<?xml version="1.0" encoding="utf-8"?>
<!-- Generator: Adobe Illustrator 26.0.1, SVG Export Plug-In . SVG Version: 6.00 Build 0)  -->
<svg version="1.1" id="Layer_1" xmlns="http://www.w3.org/2000/svg" xmlns:xlink="http://www.w3.org/1999/xlink" x="0px" y="0px"
	 viewBox="0 0 160 68.8" style="enable-background:new 0 0 160 68.8;" xml:space="preserve">
<style type="text/css">
	.st0{fill:#EC2C29;}
	.st1{fill:#963332;}
	.st2{fill:#FEFEFE;}
</style>
<g>
	<path class="st0" d="M16.4,31.9c-0.5-2.1-0.5-4.2,0.2-6.2c0.2-0.6,0-1.2,0-1.8c-0.2-1.7-0.5-3.3-0.6-5c0-0.8-0.3-1.5-0.5-2.3
		c-0.2,0.3-0.3,0.6-0.5,0.9c-0.9,3.2-2.3,6.2-3.2,9.5c-0.9,3-2,6.2-2.6,9.3c-0.5,2.7-1.1,5.4-1.4,8.1c-0.2,2.3-0.6,4.7-0.9,6.9
		c-0.2,0.6-0.5,1.2-0.5,2c0,1.2-0.3,2.4-0.3,3.6c0,0.5,0,0.9,0,1.2c-0.2,0.8-0.5,1.4-1.1,1.8C4.2,60.9,3.2,61.2,2,61
		c-1.1-0.2-1.7-0.9-1.7-2c0-1.7,0.2-3.2,0.9-4.7c0.8-1.5,1.1-3.2,1.5-4.8c0.6-2.1,1.2-4.4,1.7-6.5c0.6-3,1.5-5.9,2.1-8.9
		C6.9,32.1,7.5,30,8,28c0.3-1.4,0.9-2.6,1.4-3.9c0.9-2.7,1.7-5.4,2.4-8.1c0.6-2.4,1.2-4.7,1.8-7.1c0.3-1.2,0.9-2.4,1.5-3.5
		c0.3-0.6,0.9-0.6,1.4-0.2c0.8,0.8,1.2,1.7,1.2,2.9c0.2,1.4,0.5,2.7,0.6,3.9c0.3,1.5,0.5,2.9,0.5,4.4c0.2,2,0.6,3.9,1.1,5.7
		c0.5,1.8,0.9,3.8,1.1,5.7c0,0.2,0,0.5,0.2,0.8c0.2-0.9,0.2-1.8,0.3-2.7c0.2-1.5,0.2-3,0.3-4.5c0-0.3,0-0.6,0-1.1
		c0-1.4,0.2-2.7,0.3-3.9c0.2-1.4,0.5-2.7,0.3-4.1c0-0.9,0.2-1.8,0.5-2.7c0.3-1.1,0.5-2,0.5-3c0-0.6,0.3-1.1,0.9-1.1
		C24.4,5.6,25,6,25,6.5c0,0.5,0,1.1,0,1.5c0,1.1,0,2.1,0.3,3.2c0,0.2,0,0.5,0,0.6c-0.2,1.1,0.2,2.1,0.2,3.2c0.2,1.8,0.3,3.5,0.5,5.3
		c0.5,3.6,0.5,7.2,0.8,10.8c0,0.6,0.3,1.4,0.3,2c0.3,1.4,0.3,2.9,0.3,4.4c0,1.1,0.2,2.1,0.5,3.2c0.5,1.5,0.6,3,0.9,4.7
		c0.3,2.6,0.8,5.1,1.1,7.7c0.3,2,0.6,3.9,1.1,5.9c0.2,0.6,0.2,1.2-0.2,1.7c-0.5,0.9-1.4,1.1-2.3,0.5c-1.2-0.6-1.5-1.7-1.5-2.9
		c0-1.1,0.2-2.3,0.2-3.3c0-1.5-0.2-3.2-0.5-4.7c-0.2-1.2-0.2-2.6-0.3-3.8c-0.2-1.5-0.3-3-0.5-4.7c0-0.6-0.2-1.2-0.2-1.8
		c0-1.7-0.3-3.2-0.5-4.8c0-0.6,0-1.2,0-1.8c0-1.7-0.3-3.3-0.6-5c-0.2-0.9,0-1.8-0.3-2.7c-0.3-1.2-0.3-2.6-0.5-3.8
		c0-0.5-0.2-0.9-0.2-1.2c0-0.2,0-0.3-0.2-0.3c0,1.1-0.2,2-0.2,2.9c-0.2,2.6-0.3,5.1-0.8,7.7c-0.2,1.1-0.3,2.1-0.5,3.2
		c0,0.5-0.2,0.9-0.2,1.4c0,0.2,0,0.2-0.2,0.3c-0.5,0.3-0.5,0.9-0.5,1.4c0.2,1.7,0.2,3.3,0.2,5c0,0.3,0,0.8-0.2,1.1
		c0,0.5-0.3,0.8-0.8,0.8c-0.3,0.2-0.6-0.2-0.9-0.3c-0.5-0.5-0.6-1.2-0.6-1.8c0-1.7,0-3.5,0-5.1c0-1.1-0.2-2.3-0.3-3.3
		c-0.2-0.6-0.5-1.2-0.6-2c-0.2,0.6-0.3,1.2-0.3,1.8c0,0.6-0.3,0.9-0.8,1.1c-0.5,0-0.9-0.3-1.1-0.8c0-0.3-0.2-0.5-0.2-0.8
		c0.2,0.3,0.2,0.6,0.3,0.9c0.2,0.3,0.3,0.6,0.6,0.5c0.3,0,0.5-0.3,0.5-0.6s-0.3-0.6-0.2-0.9c0.2,0,0.3-0.2,0.3-0.3
		c0-0.2-0.2-0.2-0.3-0.3c0-0.3,0-0.6,0.2-0.9c0-0.3,0-0.6-0.5-0.8c-0.3-0.2-0.6,0.2-0.6,0.5C16.4,30.9,16.4,31.5,16.4,31.9z
		 M1.2,57.7c0,0.3,0,0.5,0.2,0.8c0.2,0.8,0.5,1.1,1.2,1.4c0.8,0.2,1.2,0,1.8-0.5c0-0.2,0-0.8-0.5-0.8C3.3,58.5,3,58,3,57.4
		c0-0.3,0-0.6,0-0.8c0.2-2.3,0.9-4.4,1.7-6.5c0.2-0.6,0.5-1.2,0.6-2c0.2-0.3,0-0.8-0.3-0.8c-0.5-0.2-0.6,0.2-0.8,0.5
		c0,0.2,0,0.2-0.2,0.3c-0.5,1.7-1.1,3.2-1.7,4.7C1.7,54.4,1.4,56,1.2,57.7z M15.7,10.5c0,0.6,0,0.9,0.2,1.4c0,1.1,0.3,2,0.5,3
		c0.2,0.6,0.2,1.4,0.3,2c0,0.3,0.3,0.6,0.6,0.5s0.5-0.3,0.5-0.6c0-0.6-0.2-1.2-0.3-1.8c-0.3-1.5-0.5-2.9-0.5-4.4
		c0-0.6-0.2-1.4-0.2-2S16.4,7.7,16,7.7c-0.5,0-0.8,0.2-0.9,0.8c-0.2,0.6-0.3,1.2-0.5,1.8c-0.5,1.4-0.8,2.9-1.2,4.2
		c-0.2,0.3,0,0.6,0.3,0.8s0.6,0,0.8-0.3c0.5-0.8,0.8-1.7,0.9-2.4C15.2,11.9,15.4,11.1,15.7,10.5z M20.2,40.7c-0.5,0-0.5,0.3-0.6,0.6
		c0,0.5,0.2,0.9,0.5,1.4c0.2,0.3,0.5,0.5,0.8,0.3c0.3-0.2,0.5-0.5,0.3-0.8c-0.2-0.3-0.3-0.6-0.3-1.1C20.8,40.8,20.5,40.7,20.2,40.7z
		"/>
	<path class="st0" d="M110.3,42.9c0.2,0,0.3,0,0.5-0.2c0.2-0.3,0.3-0.2,0.5,0.2c0.2,0.5,0.2,1.1-0.2,1.5c-0.2,0.3-0.5,0.6-0.9,0.6
		c-0.5,0-0.8-0.3-0.8-0.8c-0.2-1.2-0.3-2.6-0.3-3.8c0.2-1.5,0-3-0.3-4.5c-0.3-1.4-1.1-2.4-1.8-3.6c-0.2,0.2-0.2,0.3-0.3,0.3
		c-0.2,0-0.2-0.2-0.2-0.3c0-0.3-0.2-0.5-0.2-0.8c-0.2-0.5-0.2-0.5-0.6-0.2c-0.6-0.2-0.6-0.2-0.6,0.5c0,0.2,0,0.3,0,0.5
		c0.2,0.5,0,1.1,0.5,1.5c0,0.2,0,0.3,0.3,0.5c0.2,0,0.3-0.2,0.5-0.3c0.2-0.2,0.2-0.2,0.3-0.2c0.2,0.2,0.2,0.3,0,0.3
		c-0.2,0.3-0.5,0.5-0.9,0.5c-0.5,0-0.6-0.3-0.8-0.6c-0.2-0.5-0.2-1.1-0.2-1.5c0-1.1-0.3-2-0.6-2.9c-0.2-0.3-0.5-0.5-0.8-0.6
		c-1.1-0.6-2.1-1.2-3.2-2.1c-1.1-0.9-2.3-1.7-3.2-2.7c-1.1-1.1-2-2.1-2.1-3.6c-0.2-1.1,0-2.1,0-3.2c0.2-2.6,0.8-5,2-7.2
		c0.2-0.3,0.5-0.6,0.6-0.9c0.8-0.6,1.5-1.4,2.1-2c1.1-1.1,2.6-1.7,3.9-2.3c1.2-0.5,2.4-0.9,3.8-0.8c1.5,0,3,0,4.4,0.5
		c0.6,0.2,1.1,0.5,1.5,0.8c0.9,0.6,0.9,1.5,0.9,2.6c0,0.5,0,0.9,0,1.4c0,0.9-0.2,1.7-0.5,2.6c-0.3,0.9-1.4,1.7-2.1,1.7
		c-0.5,0-0.8-0.3-0.9-0.6c-0.6-0.9-0.9-2-0.9-3.2c0-0.2,0-0.3-0.3-0.5c-1.2-0.8-2.4-1.2-3.8-0.9c-1.1,0.3-2.1,0.8-3,1.7
		c-0.8,0.8-1.7,1.5-2.3,2.4c-0.5,0.6-1.1,1.1-1.4,1.8c-0.2,0.3-0.3,0.5-0.3,0.8c0,0.2-0.2,0.5-0.3,0.6c-0.9,1.2-1.2,2.4-0.9,3.8
		c0.3,0.9,0.8,1.8,1.4,2.6c0.3,0.3,0.8,0.6,1.2,0.9c1.2,0.8,2.4,1.5,3.3,2.6c0.8,0.8,1.7,1.4,2.4,2.1l0.2,0.2c2,0.8,3.2,2.4,4.5,3.9
		c0.6,0.6,1.1,1.2,1.8,1.5c0.2,0,0.3,0.2,0.5,0.3s0.5,0.3,0.6,0.3c0.3,0,0.5,0.2,0.6,0.5c0.2,2.1,1.2,4.2,1.4,6.3
		c0,1.5,0.2,3.2-0.2,4.7c-0.2,1.8-0.6,3.5-1.1,5.3c-0.3,1.1-0.8,2.3-1.4,3.2c-0.3,0.5-0.5,0.9-0.8,1.4c-0.5,1.5-1.5,2.6-2.6,3.6
		c-0.8,0.6-1.2,1.5-2,2.3c-0.2,0.2-0.2,0.3-0.2,0.5c0,0.9-0.2,1.7-0.2,2.6h-0.2c-0.2-0.2-0.2-0.5-0.5-0.5c-0.3,0-0.3,0.3-0.3,0.6
		c0,0.3,0,0.6,0,0.9c-0.2-0.2-0.2-0.2-0.2-0.3c0-0.9-0.2-1.8-0.2-2.9c0-0.3,0-0.5-0.3-0.5s-0.3,0.3-0.3,0.5c0,0.8,0.2,1.5,0.2,2.3
		c0,0.6,0.2,1.2,0.3,1.8c0.2,0.5,0.3,0.5,0.6,0.2c0.2,0,0.5,0,0.3-0.3c0-0.3-0.2-0.3-0.5-0.3c0-0.2-0.2-0.3-0.2-0.3
		c0.3,0.3,0.5,0.2,0.8,0c0,0.3,0,0.6,0,0.8c0,0.5-0.2,0.6-0.6,0.8c-0.5,0.2-0.8,0-0.9-0.3c-0.3-0.3-0.3-0.8-0.3-1.1
		c0-1.4-0.3-2.7-0.6-3.9c-0.2-0.6-0.2-0.6-0.8-0.5c-2.1,0.6-4.4,0.6-6.5,0.5c-1.2-0.2-2.4-0.3-3.6-0.6c-0.3,0-0.3,0-0.3,0.3
		c0,0.3,0,0.6,0.2,1.1c0.2,0.8-0.6,1.2-1.2,0.9c0.3,0,0.6-0.2,0.6-0.5s-0.2-0.5-0.3-0.5c0-0.2,0-0.2,0-0.3c0.2,0,0.5-0.2,0.3-0.5
		s-0.2-0.5-0.2-0.8c0-0.2-0.2-0.3-0.3-0.3c0-0.2,0-0.3-0.3-0.3c-0.2,0-0.3,0.2-0.3,0.3c0,0.2,0,0.3,0,0.5s0.2,0.5,0,0.6
		c-0.2-0.3-0.2-0.6-0.2-0.9c0-0.6-0.2-1.1-0.8-1.4c-0.9-0.8-1.5-1.7-2-2.7c-0.5-0.9-0.9-1.8-1.2-2.9c-0.8-2.1-0.8-4.2-0.2-6.5
		c0.5-1.7,0.8-3.5,1.1-5.1c0.3-1.1,0.6-2.3,1.1-3.3c0.9-1.8,2.4-2.9,4.5-2.9c0.9,0,1.8,0.2,2.4,0.8c0.3,0.3,0.5,0.8,0.2,1.2
		c-0.3,0.5-0.8,0.5-1.2,0.2c-0.5-0.3-0.9-0.5-1.5-0.3c-1.2,0-2.3,0.8-2.9,1.8C91,39.9,91.2,40.5,91,41c-0.2,0.2-0.2,1.1-0.2,2
		c0,0.6-0.2,1.2-0.3,1.7c-0.3,2-0.3,3.8-0.2,5.7c0.2,1.4,0.5,2.7,1.4,3.8c0.9,1.1,2,1.7,3.3,1.8c1.4,0.2,2.7,0.3,4.1,0.3
		c3.2,0,6-0.6,8.9-2.3c1.1-0.6,2.1-1.1,2.9-2c0.2-0.2,0.3-0.3,0.5-0.5c0.2-0.2,0.2-0.5,0.5-0.5c0.6-0.2,0.6-0.6,0.8-0.9
		c0.5-1.4,0.6-2.9,0.9-4.4c0.3-2.1,0.3-4.1,0.2-6.2c-0.2-0.8-0.5-1.5-0.9-2.1c-0.5,0-0.6,0-0.9,0c-0.6,0.2-0.6,0.5-0.6,0.9
		c0,0.6,0,1.4,0,2c0,0.2,0,0.5-0.2,0.6c-0.2-0.2-0.3-0.5-0.6-0.3c-0.3,0-0.2,0.3-0.3,0.5c0-0.2,0-0.3,0-0.6c0-0.3-0.2-0.5-0.3-0.5
		c-0.3,0-0.3,0.2-0.3,0.5c0,0.8,0.2,1.7,0.2,2.4c0,0.3,0,0.8,0.3,0.9c0,0.2,0.2,0.3,0.5,0.3c0.2,0,0.3-0.2,0.3-0.5
		c0-0.3-0.2-0.3-0.5-0.5C110.3,43.4,110.3,43.1,110.3,42.9z M112.1,8.6c0,0.2,0,0.3,0.2,0.5c0.5,0.5,0.5,0.9,0.2,1.5
		c-0.2,0.2-0.3,0.5,0,0.6s0.5-0.2,0.5-0.3c0.2-0.6,0.3-1.2,0.2-1.8c0-0.5,0-0.9-0.6-1.1c0-0.5,0-0.9-0.5-1.2
		c-0.3-0.5-0.9-0.9-1.5-1.1c-1.7-0.3-3.2-0.5-4.8-0.2c-1.1,0.2-2,0.6-2.9,1.2c-0.2,0.2-0.3,0.2-0.2,0.5c0.2,0.2,0.3,0.2,0.5,0.2
		c0.2,0,0.3-0.2,0.5-0.2c1.5-0.2,3-0.3,4.7-0.5c0.3,0,0.6-0.2,0.9,0s0.5,0.2,0.8,0c0.2,0,0.5,0,0.6,0c0.6,0.2,0.9,0.5,0.9,1.1
		C111.2,8.3,111.5,8.6,112.1,8.6z M89.8,41.4c-0.3,0-0.3,0.3-0.5,0.5c-0.6,1.8-1.1,3.6-0.9,5.6c0,0.5,0,0.8,0.2,1.2
		c0,1.5,0.3,3,0.9,4.4c0.2,0.2,0.2,0.5,0.5,0.3s0.2-0.3,0-0.6c-0.5-1.1-0.6-2-0.8-3.2c0-0.9-0.2-1.8-0.2-2.7c-0.2-0.9,0-1.7,0.2-2.4
		c0.2-0.9,0.5-1.8,0.8-2.7C90.1,41.7,90.1,41.6,89.8,41.4z M111.1,11.6c0,0.3,0.2,0.5,0.5,0.5c0.3,0,0.5-0.2,0.5-0.5
		s-0.2-0.6-0.5-0.6C111.1,11,111.1,11.3,111.1,11.6z M92.2,55.6c-0.2,0-0.3,0.2-0.3,0.3c0,0.2,0.3,0.6,0.6,0.6c0.2,0,0.3,0,0.3-0.3
		C92.8,56,92.5,55.6,92.2,55.6z M91,54.7c0-0.2-0.2-0.5-0.3-0.5s-0.3,0.2-0.3,0.3c0,0.2,0.2,0.3,0.3,0.5C90.9,55,91,54.8,91,54.7z
		 M111.5,9.9c-0.2,0-0.3,0.2-0.2,0.3c0,0.2,0,0.2,0.2,0.2c0.2,0,0.3-0.2,0.2-0.3C111.8,9.9,111.7,9.9,111.5,9.9z"/>
	<path class="st0" d="M33,34.8c-0.6,0-0.6,0.3-0.6,0.9c0.2,0.8,0.2,1.5,0.2,2.3c0,1.4,0.3,2.7,0.6,4.1c0.2,0.9,0.3,1.8,0.3,2.9
		c0,2.3,0.2,4.5,0.6,6.8c0,0.2,0,0.3,0,0.3c0,0.5-0.5,0.9-0.8,0.9c-0.5,0-0.8-0.3-0.9-0.8c-0.3-2.3-0.6-4.5-0.6-6.8
		c0-1.8-0.5-3.6-0.8-5.4c-0.2-0.6-0.2-1.2-0.2-1.8c0-1.1-0.2-2.3-0.2-3.3c0-0.2,0-0.3-0.2-0.3c-1.1-0.6-1.5-1.5-2-2.7
		c-0.9-2.6-1.2-5.1-1.1-7.8c0-0.6,0.2-1.2,0.2-2c0.2-2.3-0.2-4.5,0-6.6c0.2-2.9,0.3-5.6,1.1-8.3c0.2-0.6,0.5-1.2,0.8-1.7
		c1.5-1.7,3.3-1.2,4.4,0.3c0.6,0.8,0.8,1.8,1.1,2.7c0.2,0.9,0.2,1.8,0.2,2.7c0,1.2,0.2,2.6,0.2,3.8c-0.2,1.1,0.2,2.3,0.2,3.3
		s0,2.1,0.2,3.2c0,2.6,0,5.1-0.3,7.7C35,31.5,35,33.7,35,36.2c0,1.2,0.2,2.3,0.3,3.5c0,0.2,0,0.5,0,0.6c0,0.5-0.3,0.9-0.8,0.9
		c-0.3,0.2-0.9-0.2-0.9-0.6c-0.2-0.8-0.3-1.4-0.5-2.1C33,37.2,33,36,33,34.8z M33.3,8.4c0.2,0.2,0.3,0.5,0.6,0.3
		c0.3-0.2,0-0.5,0-0.6c-0.3-0.3-0.5-0.5-0.6-0.8c-0.2-0.2-0.3-0.3-0.5-0.2s-0.2,0.3,0,0.5C33,8,33.2,8.1,33.3,8.4c0,0.2-0.2,0-0.2,0
		c-0.2-0.2-0.3-0.2-0.5,0c-0.2,0.2-0.2,0.3,0,0.5C32.9,9,33,9,33.2,9c0.2-0.2,0.3-0.3,0.2-0.5C33.2,8.6,33.2,8.4,33.3,8.4z
		 M34.4,39.3c0-0.2,0-0.3,0-0.5c0.3-0.3,0.2-0.8-0.2-0.9c0-0.2-0.2-0.5-0.3-0.5c-0.3,0-0.3,0.3-0.3,0.5c0,0.8,0.3,1.5,0.5,2.3
		c0,0.2,0.2,0.3,0.3,0.3c0.2,0,0.3-0.2,0.3-0.3C35.1,39.8,35,39.5,34.4,39.3z M33.5,13.7c0-1.2-0.2-2.3-0.2-3.5c0-0.3,0-0.5-0.3-0.3
		C32.4,10.1,32,9.6,32.1,9c0.2-0.3,0-0.8,0-1.1s0-0.6-0.5-0.8c-0.5-0.2-0.6,0.2-0.9,0.5c-0.2,0.2-0.2,0.3-0.2,0.5
		c-0.2,0.8-0.3,1.7-0.5,2.4c-0.2,0.9-0.3,1.8-0.3,2.7c0,0.9,0,1.8-0.2,2.6c-0.3,1.5-0.5,3-0.5,4.7c0,2.3,0.2,4.5,0.3,6.9
		c0,0.8-0.2,1.7,0.2,2.4c0.2,0.3,0.2,0.6,0.6,0.6c0.3,0,0.5,0.3,0.6,0.6c0,0.2,0.2,0.3,0.2,0.6c0,0.2,0.2,0.3,0.3,0.3
		s0.2-0.2,0.3-0.3c0.8-1.7,1.1-3.5,1.2-5.3c0.2-0.9,0.2-1.8,0.2-2.6c0.3-2.1,0.3-4.2,0.5-6.3c0-0.8-0.2-1.5-0.2-2.4
		C33.5,14.6,33.6,14,33.5,13.7z M30.6,31.6c0-0.3-0.2-0.6-0.5-0.8c-0.2-0.2-0.5-0.2-0.6,0.2c-0.2,0.2,0,0.5,0.2,0.5
		c0.2,0,0.2,0.3,0.3,0.5c0.2,0.2,0.2,0.3,0.3,0.2C30.6,32.1,30.6,31.9,30.6,31.6z"/>
	<path class="st0" d="M57,41.3c-0.2,0.3-0.3,0.2-0.5,0.2c-0.5-0.2-0.6-0.6-0.8-1.1c-0.2-1.5-0.2-2.9-0.3-4.4c0-0.5-0.2-0.5-0.5-0.3
		c-0.5,0.2-0.8,0.3-0.6,0.9s0,1.2,0.2,1.8c0.2,0.6,0.2,1.4,0.2,2c0.2,2.1,0.3,4.1,0.3,6.2c0,1.1,0.2,2.3,0.2,3.3
		c0,0.2,0,0.3-0.2,0.5c-0.2,0.3-0.5,0.6-0.9,0.5c-0.5,0-0.8-0.3-0.8-0.8c-0.2-1.8-0.5-3.5-0.3-5.3c0.2-0.9-0.2-1.8-0.2-2.6
		c0-1.7-0.6-3.3-0.5-5.1c0-0.5,0.2-0.9-0.2-1.2c-0.2-0.3-0.8,0-1.1,0c-1.5,0-2.9-0.3-4.2-0.9c-1.1-0.6-1.4-1.5-1.7-2.6
		c-0.3-1.2-0.3-2.4-0.3-3.6c0.2-1.4,0.2-2.7,0.9-3.9c0.5-0.8,0.9-1.2,1.8-1.2c0.8,0,1.4,0.3,1.8,0.9c0.2,0.5,0.3,0.8,0,1.1
		s-0.8,0.5-1.2,0.2c-0.3-0.2-0.5,0-0.5,0.3c0,2-0.5,3.9,0.3,5.7c0.2,0.3,0.2,0.5,0.3,0.8c0.3,0.5,0.6,0.8,1.1,0.8
		c1.4,0.2,2.7,0.3,4.1-0.3c1.1-0.5,1.7-1.2,1.8-2.3c0.2-1.7,0.2-3.3-0.2-4.8c-0.3-1.4-0.8-2.7-1.2-4.1c-0.3-1.4-0.9-2.7-1.7-3.9
		c-0.2-0.2-0.2-0.5-0.5-0.6c-0.8-0.5-1.4-1.1-2.3-1.4c-0.9-0.3-1.7-0.6-2.7-0.6c-0.9,0-1.5-0.6-2-1.4c-0.6-0.8-0.6-1.7-0.5-2.7
		c0-1.2,0.2-2.6,0.5-3.8c0.3-1.1,1.1-1.7,2-2.3c0.2-0.2,0.3-0.2,0.5-0.2c1.2-0.9,2.4-0.6,3.5-0.2c0.8,0.3,1.2,0.9,1.5,1.7
		c0.2,0.5-0.3,1.5-0.9,1.7c-0.5,0.2-1.2-0.2-1.5-0.8c0.2,0.2,0.2-0.3-0.3-0.3c-0.6,0-1.2,0-1.7,0.5c-0.6,0.6-1.1,1.2-1.1,2
		c-0.2,0.9-0.2,1.8,0,2.9c0,0.2,0,0.3,0,0.6c-0.2,0.3,0.2,0.8,0.6,0.8c0.8,0,1.5,0.2,2.3,0.5c0.5,0.2,0.8,0.2,1.2,0.3
		c0.9,0.2,1.8,0.3,2.4,1.1c0.3,0.5,0.6,0.9,0.9,1.4c1.7,3.2,2.7,6.6,3.2,10.2c0.3,2.1,0.2,4.1-0.3,6c-0.2,0.6-0.2,1.2,0,1.8
		c0,1.2,0,2.4,0.2,3.5c-0.2,0-0.5-0.2-0.6,0c-0.2,0.2,0,0.5,0,0.6c0,0.3,0,0.5,0,0.8c0,0.2,0,0.3-0.2,0.3c0,0,0-0.2,0-0.3
		c0-0.3,0-0.6,0-1.1c0-0.2-0.2-0.3-0.5-0.3c-0.2,0-0.3,0.3-0.2,0.5c0.2,0.5,0,1.1,0,1.5C56.1,41.1,56.2,41.3,57,41.3z M46.7,28.3
		c0-0.2,0-0.3-0.2-0.3s-0.3,0-0.3,0.2c0,0.2,0,0.2,0,0.3c0.2,0.9,0.2,2,0.3,2.9c0,0.2,0.2,0.5,0.5,0.5c0.3,0,0.2-0.3,0.2-0.5
		C46.9,30.3,46.9,29.4,46.7,28.3z M52.2,7.1c0-0.5-0.3-0.8-0.5-1.1c0,0-0.3-0.2-0.5,0s-0.2,0.3,0,0.5c0.2,0.3,0.5,0.6,0,0.9
		c-0.2,0.2,0,0.3,0,0.5c0.2,0.2,0.2,0.2,0.3,0C51.9,7.7,52.2,7.4,52.2,7.1z M46.9,27.1c0-0.2-0.2-0.3-0.3-0.3
		c-0.2,0-0.3,0.2-0.3,0.3s0.2,0.2,0.2,0.3C46.7,27.4,46.9,27.3,46.9,27.1z"/>
	<path class="st0" d="M128.7,46.3c0.2,2.3,0,4.2-0.6,6.2c-0.5,1.5-1.1,3.2-2.3,4.2c-0.8,0.8-0.8,0.9-0.5,2c0.3,0.8,0.8,1.2,1.2,1.7
		c0.3,0.3,0.5,0.6,0.2,1.1c-0.2,0.3-0.5,0.6-0.9,0.6c-0.3,0-0.8-0.2-0.9-0.5c-0.5-0.5-0.8-0.9-0.9-1.4c-0.3-0.6-0.5-1.1-0.8-1.7
		c-0.2-0.3-0.3-0.3-0.5-0.3c-0.5,0-1.1,0-1.5,0c-1.5-0.3-2.4-1.2-3-2.6c-0.3-0.5-0.5-1.1-0.8-1.5c-0.6-1.1-0.8-2.3-0.9-3.3
		c-0.5-3.2,0-6.3,0.8-9.5c0.3-1.2,0.6-2.4,0.9-3.5c0.2-0.5,0-0.9,0.2-1.5c0.2-1.2,0.8-1.8,1.8-2.4c0.8-0.5,1.7-0.5,2.4-0.6
		c0.9,0,1.7,0.2,2.4,0.5c0.3,0.2,0.6,0.3,0.9,0.3s0.5,0.2,0.5,0.3c0,0.3,0.3,0.5,0.5,0.8c0.5,0.6,0.6,1.2,0.8,2
		c0.3,2.3,0.8,4.4,0.9,6.6C128.9,44.4,128.7,45.5,128.7,46.3z M123.9,51.7c-0.2-0.6-0.5-0.6-0.9-0.5c-0.2,0-0.3,0.2-0.3,0.5
		c0,0.3,0.2,0.3,0.3,0.3c0.2,0,0.3,0.2,0.6,0.2v0.2c0,0.2,0.2,0.3,0.3,0.3c0.2,0,0.2-0.2,0.3-0.2c0-0.2,0-0.3-0.2-0.5
		C124,51.8,123.9,51.8,123.9,51.7z M124,56.3c0.5,0.2,0.5-0.2,0.5-0.5c0-0.8-0.2-1.4-0.2-2.1c0-0.2,0-0.5-0.3-0.5s-0.3,0.3-0.3,0.6
		c0,0.5,0.2,0.8,0,1.2c-0.3-0.5-0.2-0.9-0.3-1.4c0-0.2,0-0.5-0.3-0.5s-0.3,0.3-0.3,0.5c0.3,1.8,0.6,3.6,1.2,5.3
		c0.2,0.6,0.6,0.9,0.8,1.5c0.2,0.2,0.3,0.3,0.6,0.3c0.3,0,0.3-0.3,0.2-0.5c-0.3-0.2-0.3-0.6-0.6-0.8C124.3,58.6,124.2,57.6,124,56.3
		z M120.3,55.1l0.2,0.2c0.2,0.3,0.6,0.3,0.6,0.8c0,0.2,0.2,0.2,0.3,0.2c0.2,0,0.2-0.2,0.2-0.2c0-0.2,0-0.3-0.2-0.3
		c-0.2,0-0.3-0.2-0.2-0.3c0-0.2-0.2-0.2-0.2-0.3c-0.6-0.5-0.9-0.9-1.2-1.5c-0.2-0.2-0.2-0.6-0.5-0.5c-0.5,0.2,0,0.5-0.2,0.8
		c-0.5-0.3-0.5-0.9-0.6-1.4c-0.3-0.9-0.8-1.8-0.6-2.9c0-0.2-0.2-0.3-0.3-0.3s-0.3,0.2-0.3,0.3c0,0.3-0.2,0.6,0,0.9
		c0.2,0.8,0.5,1.5,0.6,2.3c0.5,1.5,1.2,2.7,2.3,3.9l0.2,0.2c0.2,0.2,0.3,0.3,0.5,0c0.2-0.2,0-0.3-0.2-0.5c-0.2-0.2-0.2-0.2-0.3-0.3
		C120.6,55.7,120.3,55.6,120.3,55.1z M122.5,55c0.2-0.6,0-1.1-0.2-1.5c-0.3-0.5-0.5-1.1-0.6-1.7c-0.2-0.6,0.5-1.4,1.1-1.5
		c0.8,0,2.1,0.8,2.1,1.7c0,0.5,0,1.1-0.2,1.5c0,0.3-0.2,0.8,0,1.1c0.5-0.3,0.5-0.6,0.6-1.2c0.2-1.1,0.2-2,0.3-3
		c0.3-1.8,0.6-3.5,0.6-5.3c0.2-2.4-0.2-4.8-0.5-7.2c0-0.2,0-0.3-0.2-0.3c-0.3-0.2-0.5-0.5-0.6-0.8c-0.2-0.5-0.2-0.8-0.5-1.1
		c-0.5-0.6-1.2-0.6-1.5,0c-0.2,0.3-0.5,0.5-0.6,0.6c-0.3,0.2-0.5,0.5-0.6,0.6c-0.5,0.8-0.9,1.7-1.1,2.6c-0.3,1.4-0.5,2.7-0.6,3.9
		c-0.3,2.1,0.2,4.4,0.2,6.5c0,0.2,0,0.2,0,0.3c0.2,0.9,0.6,1.8,0.6,2.7c0,0.2,0,0.3,0.2,0.3C121.5,53.8,121.9,54.4,122.5,55z
		 M120.3,36.8c0.2,0,0.3-0.2,0.3-0.3c0.2-0.3,0.3-0.5,0.2-0.9l0,0c-0.2-0.2-0.3-0.2-0.3,0c-0.2,0.3-0.3,0.6-0.3,0.9
		C120.1,36.6,120.1,36.8,120.3,36.8z M121.3,35.6c0.2,0,0.3-0.2,0.3-0.3c0-0.2-0.2-0.3-0.3-0.3c-0.2,0-0.3,0.2-0.3,0.3
		C121,35.6,121.2,35.6,121.3,35.6z"/>
	<path class="st0" d="M42.5,29.4c0.2-0.5,0.2-0.9,0.2-1.2c0-2.1,0-4.1,0-6.2c0-2-0.2-3.8-0.3-5.7s-0.2-3.9-0.2-5.9
		c0-1.2-0.2-2.3,0-3.5c0-0.5,0.2-0.9,0.2-1.4c0-0.6,0.5-0.9,0.9-0.9S44,5.1,44,5.7s-0.2,1.2-0.2,1.8c0,2.6,0,5.1,0.2,7.7
		c0.2,1.5,0.2,3,0.5,4.4c0,0.2,0,0.5,0,0.6c0,3.6,0,7.2,0,10.8c0,1.2-0.3,2.4-0.5,3.6c0,0.5-0.5,0.8-0.9,0.9c-0.6,0-0.8-0.3-1.1-0.8
		c-0.5-0.9-0.3-1.8-0.6-2.9c-0.5-1.7-1.1-3.2-1.5-4.8c-0.3-1.1-0.6-2-0.9-3c0-0.2,0-0.2-0.2-0.3c0,0.3,0,0.5,0,0.8
		c0,2.3-0.3,4.7,0,6.9c0,0.3,0,0.6,0,0.8c0,0.2-0.2,0.3-0.3,0.3c-0.2,0-0.2-0.2-0.2-0.3v-0.2c0-0.2-0.2-0.3-0.3-0.3
		c-0.2,0-0.3,0.2-0.3,0.3c0,0.5,0,1.1,0,1.5c0,0.2,0.2,0.3,0.3,0.3c0.2,0,0.3-0.2,0.3-0.3s0-0.3,0.3-0.3c0.2,0,0.3,0.2,0.3,0.3
		c0.2,0.8,0.2,1.7-0.2,2.4c-0.2,0.6-1.1,0.8-1.7,0.2c-0.9-0.8-1.1-1.8-0.9-2.9c0.5-2.6,0.2-5,0.2-7.5c0-2.1,0-4.2,0.2-6.3
		c0.2-1.8-0.2-3.6-0.3-5.4c-0.2-2.4-0.2-4.8,0-7.1c0-0.6,0-1.1,0.5-1.5c0.3-0.3,0.6-0.5,1.1-0.3c0,0.5,0.3,0.8,0.2,1.2
		c-0.2,0.3-0.2,0.8,0,1.1c0.3,2.9,0.9,5.7,1.5,8.6c0.8,3.5,1.5,7.1,2.3,10.5C42.1,27.6,42.1,28.5,42.5,29.4z M37.2,8.3
		c0.3,0,0.5-0.2,0.3-0.5c-0.2-0.3-0.3-0.6-0.5-0.9c0-0.2-0.2-0.3-0.3-0.2c-0.2,0.2-0.2,0.3-0.2,0.5s0.2,0.3,0.2,0.5
		c-0.5,0.2-0.3,0.6-0.3,0.9c0.2,0.8,0,1.5,0.2,2.1c0,0.2,0,0.5,0,0.6s0.2,0.5,0.3,0.5c0.2,0,0.3-0.2,0.3-0.5c0-0.2,0-0.3,0.2-0.3
		c0.3,0,0.3-0.3,0.3-0.6C37.5,9.6,37.2,9,37.2,8.3z M37.5,35.1c-0.3-0.3-0.5-0.8-0.3-1.1c0.2-0.8,0.3-1.7,0.3-2.4
		c0-0.3,0.2-0.8,0.2-1.1c0-0.6,0.2-1.4,0.2-2c0-0.2,0-0.3-0.3-0.3c-0.2,0-0.3,0.2-0.3,0.3c0,0.2,0,0.2,0,0.3c0,0.9-0.2,1.8-0.2,2.7
		c0,0.8-0.2,1.5-0.3,2.3c-0.2,0.8,0.2,1.4,0.6,2c0.3,0.3,0.5,0.3,0.6-0.2c0.3,0,0.5-0.2,0.6-0.5c0-0.3,0-0.5-0.3-0.5
		C37.7,34.5,37.7,34.8,37.5,35.1z M43,8.7c0-0.2,0-0.3-0.2-0.5c-0.2,0-0.3,0.2-0.3,0.3s0,0.5,0.3,0.5C43,9.2,43,8.9,43,8.7z"/>
	<path class="st0" d="M81.2,34.5c0-0.2,0-0.2,0-0.3c0-0.2,0-0.2,0.2-0.3c0.2,0,0.2,0,0.3,0.2c0.3,0.5,0.2,0.9-0.3,1.2
		s-0.9,0.2-1.2-0.3c-0.3-0.5-0.5-1.1-0.5-1.7c0-2.6,0-5.3,0-7.8c0-1.1,0-2,0-3c0-0.5,0-0.9,0-1.4c0.3-1.7,0-3.3-0.6-5
		c-0.5-1.1-0.8-1.4-1.8-1.2c-0.8,0-1.1,0.5-1.1,1.1c0,0.3-0.2,0.6-0.5,0.9c0,0.2,0,0.3,0,0.5c0,0.6,0,1.1,0.2,1.5c0,0.2,0,0.3,0,0.5
		c-0.3,1.1-0.2,2,0,3c0.2,2.4,0.5,4.8,0.3,7.2c0,0.5,0.2,0.9,0.2,1.4c0,0.2,0,0.3-0.3,0.2c-0.2-0.2-0.3,0-0.5,0.2
		c-0.3,0-0.6,0-0.6,0.3c0,0.6-0.2,1.1-0.2,1.7c0,0.3,0,0.6,0.5,0.8l0,0c0,0,0,0,0.2,0.2l0,0c0,0.2,0.2,0.2,0.2,0.2
		c0.2,0,0.5-0.2,0.3-0.5c0-0.3-0.3-0.3-0.5-0.3c0-0.2,0-0.2,0-0.3c0.3,0.2,0.5,0,0.6-0.3c0.2,0.3,0.2,0.6,0.3,0.9
		c0,0.5-0.3,0.8-0.6,0.9c-0.5,0-0.9-0.2-1.1-0.8s-0.2-1.2,0-2c0.2-0.6,0-1.2-0.2-1.7c-0.2-1.7-0.2-3.2-0.2-4.8
		c-0.2-2.9-0.2-5.7-0.5-8.6c-0.2-1.7-0.3-3.5-0.6-5.1c-0.3-1.5-0.6-3.2-0.6-4.8c0-0.6,0-1.2,0.6-1.5c0.3-0.2,0.6-0.3,0.9-0.2
		c0.5,0.2,0.9,0,1.4-0.3c1.5-0.6,2.9-0.5,4.2,0.2c0.5,0.2,0.8,0.6,0.9,0.9c0.8,1.7,0.5,5.1-1.1,6.5c-0.2,0.2-0.5,0.3-0.6,0.5
		c-0.2,0.2-0.3,0.3,0,0.5c1.7,0.9,2.3,2.4,2.6,4.2c0.3,2,0.2,3.9,0.2,5.7c0,1.2,0,2.4-0.2,3.6c-0.2,1.5,0,3-0.2,4.5h-0.2
		c-0.2-0.2-0.3-0.5-0.6-0.3c-0.3,0.2-0.2,0.5-0.2,0.6c0,0.2,0,0.3,0,0.5c-0.3,0-0.5,0.2-0.5,0.5c0,0.6,0,1.1,0.2,1.7
		c0,0.3,0.3,0.6,0.6,0.6c0.2,0,0.3,0,0.5-0.2C81.4,34.8,81.4,34.6,81.2,34.5z M73.9,8.9c0,0.3,0,0.8,0,1.1c0,0.2,0.2,0.3,0.3,0.3
		c0.2,0,0.3-0.2,0.3-0.3c0-0.5,0-0.9,0-1.2c0-0.3-0.2-0.3-0.5-0.3c0-0.2-0.2-0.3-0.2-0.6c0-0.3-0.2-0.6,0.2-0.9c0,0.2,0,0.2,0,0.3
		c0.2,0.2,0.2,0.5,0.5,0.5c0.3-0.2,0.3-0.5,0.2-0.8c0-0.2-0.3-0.3-0.5-0.3c0-0.3-0.2-0.5-0.3-0.5c-0.3,0-0.3,0.2-0.5,0.3
		c-0.3,0.8,0,1.5,0.2,2.3C73.5,8.9,73.7,8.9,73.9,8.9z M75.4,10.2c-0.2,0.8,0,1.5,0.2,2.3c0,0.2,0,0.3,0.3,0.3
		c0.8-0.3,1.4-0.8,2.1-1.1c0.2-0.2,0.3-0.2,0.5-0.3c0.8-0.9,0.9-2,1.1-3.2c0-0.6-0.2-0.9-0.8-0.9c-0.8-0.2-1.4-0.3-2.1-0.2
		c-0.2,0-0.5,0-0.6,0c-0.3-0.2-0.5,0-0.5,0.3C75.5,8.4,75.4,9.3,75.4,10.2z M74.9,16c0-1.1-0.2-2-0.2-2.9c0-0.2-0.2-0.5-0.3-0.5
		s-0.3,0.2-0.3,0.3s0,0.3,0,0.3c0.2,0.9,0.2,1.8,0.3,2.7c0,0.3,0,0.5,0.3,0.5C74.9,16.6,74.9,16.3,74.9,16L74.9,16z"/>
	<path class="st0" d="M159.4,55.9c-0.2-0.3-0.3-0.6-0.6-0.5c-0.3,0.2-0.3,0.5-0.3,0.6h-0.2c-0.6,0-0.6-0.3-0.6-0.8
		c0-0.8,0-1.5-0.2-2.3c0-0.3-0.2-0.3-0.3-0.2c-0.5,0.3-0.6,0.9-0.8,1.4c-0.2,0.6,0,1.2-0.2,1.8c0,0.2,0,0.3-0.2,0.3
		c-0.2,0.3-0.3,0.5-0.6,0.3c-0.3,0-0.5-0.3-0.5-0.6c0-0.5,0-0.9,0-1.4c-0.2,0.8,0,1.4-0.2,2c0,0.2,0,0.2,0,0.3c0,0.2,0,0.3-0.2,0.3
		s-0.2-0.2-0.3-0.2c0-0.2,0-0.2,0-0.3c0-0.2-0.2-0.3-0.3-0.3c-0.6,0-1.2,0.2-1.5,0.6c-0.6,0.8-1.2,1.2-2.1,1.5
		c-0.9,0.5-1.7-0.2-1.7-1.1c0-0.9-0.2-1.8-0.3-2.7c-0.2-0.8-0.2-1.5-0.3-2.3c0-1.1-0.3-2.1-0.3-3.2c-0.2-1.7-0.2-3.5-0.3-5.1
		c-0.2-1.8-0.2-3.6-0.2-5.4c0-1.4-0.2-2.9-0.2-4.2c0-0.5,0.2-0.6,0.5-0.8c0.6-0.5,1.4-0.3,2-0.3c0.3,0,0.6,0,0.9,0.3
		c0.5,0.5,1.2,0.8,1.8,1.1c2,1.1,3.5,2.4,4.8,4.2c0.6,0.9,1.2,1.8,1.8,2.6c0.3,0.5,0.5,1.1,0.5,1.7c0.2,1.8-0.2,3.5-0.3,5.1
		c-0.2,2.3-0.2,4.5-0.2,6.8C159.4,55.4,159.4,55.7,159.4,55.9z M150.4,57.9c-0.2,0-0.2-0.2-0.3-0.3c-0.2-0.6-0.3-1.2-0.2-1.8
		c0,0,0,0.2,0.2,0.2c0.2,0.2,0.2,0.3,0.5,0.3c0.3-0.2,0.2-0.3,0.2-0.5s-0.2-0.3-0.2-0.5c0-0.3-0.2-0.5-0.6-0.3
		c-0.2-0.6-0.2-1.2-0.3-1.8c0-0.3-0.2-0.6-0.5-0.5c-0.3,0-0.3,0.3-0.2,0.6c0.2,1.1,0.3,2.1,0.3,3.2c0,0.5,0.2,0.9,0.2,1.4
		c0.2,0.3,0.3,0.6,0.8,0.8c0.3,0.2,0.6,0,0.5-0.5c0.2-0.2,0.3-0.2,0.3-0.5c0-0.2-0.2-0.5-0.3-0.5C150.6,57.3,150.4,57.6,150.4,57.9z
		 M151.5,56.2C151.6,56.2,151.6,56.2,151.5,56.2c0.2,0,0.3-0.2,0.3-0.2c1.5-1.5,2.9-2.9,3.9-4.7c1.4-2,2.3-4.1,2.4-6.5
		c0.2-1.5,0-3-0.9-4.4c-0.3-0.5-0.8-1.1-1.2-1.4c-0.5-0.5-1.1-0.9-1.5-1.4c-1.1-1.1-2.4-2.1-3.8-2.7c-0.3-0.2-0.5-0.3-0.8-0.2
		c-0.2,0.2,0,0.5,0,0.6c0.2,1.4,0.2,2.9,0.2,4.2c0,0.6-0.2,1.2,0,1.7c0.3,2,0.5,3.9,0.6,6c0,1.4,0.2,2.7,0.3,3.9
		C151.2,53,151.3,54.5,151.5,56.2z M148.9,35.3c0,0.2,0,0.3,0,0.5c0,0.2,0,0.5,0.3,0.5c0.3,0,0.3-0.2,0.3-0.5c0-0.3,0-0.6,0-0.9
		c0-0.2,0-0.3-0.2-0.3c-0.2,0-0.3,0-0.3,0.3C148.9,34.8,148.9,35.1,148.9,35.3z M156.3,55.1c0-0.2-0.2-0.3-0.3-0.3s-0.3,0.2-0.3,0.3
		c0,0.2,0.2,0.3,0.3,0.3S156.3,55.3,156.3,55.1z"/>
	<path class="st0" d="M139.2,57.9c-0.2,0-0.2-0.2-0.2-0.3c0-0.9-0.2-1.7-0.2-2.6c0-1.4,0.2-2.7,0.2-4.1c0-0.9,0-1.7-0.2-2.6
		c0-0.2,0-0.3,0-0.5c0-0.9,0-1.7,0-2.6c0-1.5-0.2-3.2-0.5-4.7c-0.2-1.5-0.5-3-0.2-4.5c0-0.5,0.3-0.9,0.5-1.4
		c0.3-0.9,1.1-1.1,1.8-1.4c0.6-0.5,1.4-0.6,2.1-0.6c0.5,0,0.9,0.2,1.2,0.5c0.5,0.5,0.9,0.9,0.8,1.8c0,1.5,0.5,3,0.5,4.7
		c0.2,1.7,0.3,3.5,0.5,5.1c0.3,3.3,0.3,6.8,0.5,10.1c0,1.2,0.3,2.3,0.5,3.5c0,0.5,0,0.9,0.3,1.2c-0.3,0.6,0.2,1.2-0.3,1.7
		c-0.2,0.2-0.2,0.3-0.3,0.3c-0.2,0-0.2-0.2-0.2-0.3c-0.2-0.5,0-0.8-0.5-1.1c-0.2-0.2-0.2-0.5,0-0.6c0.3-0.6,0.2-1.2,0.2-2
		c0-0.5-0.2-0.9-0.2-1.2c0-0.2-0.2-0.3-0.3-0.3c-0.2,0-0.2,0.2-0.2,0.3c0,0.5,0,0.9,0,1.2c0,0.2,0,0.3-0.2,0.3s-0.2-0.2-0.2-0.2
		c-0.3-1.2-0.5-2.3-0.5-3.5c0-1.4-0.3-2.7-0.2-4.1c0-0.3-0.2-0.3-0.3-0.3c-0.6,0.2-1.2,0.5-1.8,0.6c0,0-0.2,0-0.2,0.2
		c-0.8,0.3-0.8,0.3-0.8,1.1c0,1.4-0.2,2.7-0.2,4.2c0,0.2,0,0.3-0.2,0.3c-0.2,0.2-0.2-0.2-0.2-0.2c-0.2-0.2-0.2-0.2-0.3-0.2
		s-0.2,0.2-0.2,0.3c0,0.3,0,0.8-0.2,1.1C139.4,57.3,139.4,57.7,139.2,57.9z M140.6,44.9c0,1.4,0,2.6,0,3.6c0,0.5,0,0.5,0.6,0.3
		c0.9-0.3,1.5-0.9,2.4-1.1c0.2,0,0.2-0.2,0.2-0.3c0-0.8-0.2-1.5-0.2-2.3c-0.2-0.9-0.5-1.8-0.6-2.6c-0.2-1.8-0.3-3.6-0.2-5.4
		c0-0.6-0.2-1.1-0.3-1.5c-0.2-0.6-0.6-0.6-0.9-0.2c-0.2,0.2-0.3,0.5-0.5,0.6c-0.5,1.1-0.6,2.1-0.8,3.3c-0.2,0.6-0.2,1.4,0.2,2
		c0,0.2,0.2,0.3,0.2,0.5C140.6,43.1,140.6,44.1,140.6,44.9z M139.4,37.5c0,0.3,0,0.3,0.2,0.5c0.2,0,0.3,0,0.3-0.2
		c0.2-0.3,0.2-0.6,0.3-0.9c0-0.2,0-0.3-0.2-0.3s-0.3,0-0.3,0.2C139.6,36.9,139.4,37.2,139.4,37.5z M142.9,49.4c0,0,0-0.2-0.2-0.2
		c-0.3-0.3-1.2,0-1.2,0.3v0.2c0.5,0.3,0.8-0.2,1.1-0.2C142.7,49.7,142.9,49.7,142.9,49.4z M140,35.3c-0.2,0-0.3,0.2-0.3,0.3
		s0.2,0.3,0.3,0.3s0.3-0.2,0.3-0.3C140.3,35.3,140.3,35.3,140,35.3z M143.5,49c-0.2,0-0.3,0.2-0.3,0.3c0,0.2,0.2,0.3,0.3,0.3
		s0.3-0.2,0.3-0.3C143.9,49.1,143.8,49,143.5,49z"/>
	<path class="st0" d="M133.7,61.6c-0.2-0.2-0.3-0.3-0.3-0.5c0-0.5-0.3-0.5-0.6-0.3c-0.8,0-1.4-0.2-1.8-0.6c-0.3-0.3-0.5-0.9-0.6-1.4
		c-0.2-0.8-0.3-1.5-0.3-2.3c-0.2-2.9,0.2-5.7,0-8.7c-0.2-2-0.2-3.8-0.2-5.7c0-1.1,0-2.1,0-3.3c0-0.6-0.2-1.1-0.3-1.7v-0.2
		c-0.2-0.9-0.3-1.7-0.5-2.4c-0.2-0.3-0.2-0.6,0.2-0.8c0.2-0.3,0.5-0.5,0.8-0.5c0.3,0,0.6,0.3,0.8,0.6c0.3,1.2,1.1,2.4,0.9,3.8
		c0,1.4,0.2,2.9,0,4.2c-0.3,2.1-0.3,4.1-0.3,6.2c0,1.7,0.3,3.2,0.3,4.7c0,1.2,0,2.3,0.2,3.5c0.2,0.8,0.2,1.4,0.3,2.1
		c0.2,0.6,0.5,0.8,1.1,0.6c1.1-0.3,1.5-0.9,1.5-2c0-0.6,0.3-1.1,0.5-1.5c0.2-0.5,0.2-0.8,0.2-1.2c0.2-1.5,0.2-2.9,0.3-4.4
		c0-1.7,0-3.3,0-4.8c0-2.1-0.2-4.1-0.2-6.2c0-1.5-0.2-3-0.2-4.5c0-0.6,0.3-0.9,0.8-0.9c0.5,0,0.9,0.5,0.9,0.9
		c0.2,5,0.3,10.1,0.2,15.1c0,1.2,0,2.6-0.3,3.8c-0.2,0.8,0,1.5-0.2,2.4c-0.3,2.4-0.3,4.8,0,7.2c0.2,1.1,0,2-0.2,3
		c0,0.3,0,0.6-0.2,0.9c-0.2,0.6-0.9,0.9-1.4,0.5c-0.2-0.2-0.2-0.2-0.2-0.3c0.2,0.2,0.2,0.2,0.5,0.2c0.5,0,0.6-0.3,0.3-0.8
		c0-0.2,0-0.3-0.2-0.5c0-0.2,0-0.2,0-0.3c0.2-1.1,0.2-2.3,0.2-3.3c0-0.2,0-0.3-0.3-0.3c-0.2,0-0.3,0.2-0.3,0.3c0,0.3,0,0.5,0,0.8
		l0,0c-0.2,0-0.3,0.3-0.6,0.2c0-0.2,0.2-0.5,0.2-0.8C134.6,61.9,134.4,61.6,133.7,61.6C133.8,61.6,133.8,61.6,133.7,61.6
		c0.8,0,0.8,0,0.5-0.6c0-0.2-0.2-0.2-0.2-0.3c0-0.2-0.2-0.3-0.3-0.3c-0.2,0.2-0.3,0.3-0.2,0.5C133.7,61.2,133.7,61.3,133.7,61.6
		C133.8,61.5,133.7,61.5,133.7,61.6z M131.4,58.2c0-0.2,0-0.3-0.2-0.5c-0.2-0.5-0.2-0.9-0.2-1.4c0-0.2-0.2-0.5-0.3-0.5
		s-0.3,0.2-0.3,0.3c0,0.8,0.2,1.4,0.3,2.1c0,0.2,0.2,0.3,0.5,0.2C131.4,58.5,131.4,58.3,131.4,58.2z M132,60.1c0.2,0,0.2,0,0.3-0.2
		c0-0.2,0-0.2,0-0.3c-0.3-0.3-0.5-0.6-0.8-0.8c-0.2,0-0.2,0-0.3,0s-0.2,0.2-0.2,0.3C131,59.4,131.9,60.1,132,60.1z"/>
	<path class="st0" d="M71,37.1c-0.5,0-0.8-0.2-0.9-0.6c0-0.3-0.2-0.8-0.2-1.1c0-0.3-0.2-0.3-0.3-0.3c-0.6,0-1.2,0.2-1.8,0
		c-0.5-0.2-0.8-0.3-0.9-0.9c-0.6-2-1.1-3.9-1.2-6c0-0.9-0.3-2-0.3-2.9c0-1.1-0.5-2-0.5-3c0-0.2,0-0.3,0-0.3c0.3-0.6,0.2-1.2,0.2-2
		c-0.2-2.7-0.3-5.4,0.2-8.1c0.2-0.6,0-1.2,0-1.8c0-1.2-0.2-2.4,0.2-3.5c-0.2-0.8-0.2-0.8,0.6-0.8c1.5,0,3,0,4.4,0
		c0.6,0,1.1,0.2,1.5,0.6c0.3,0.3,0.3,0.6,0.2,0.9S71.4,8,71,7.8c-0.3-0.2-0.8-0.2-1.2-0.2c-0.9,0-1.8,0-2.7,0
		c-0.3,0-0.5,0.2-0.5,0.5c0,0.8,0,1.7,0,2.4c0,1.2-0.3,2.4-0.3,3.6c0,0.8-0.2,1.7,0,2.4c0,0.8,0,1.5,0,2.3c0,0.3,0,0.6,0.2,0.9
		c0.2,0.6,0.2,0.6,0.9,0.6c0.6,0,1.4,0,2,0c0.5,0,0.8,0.3,0.9,0.8c0.2,0.5-0.2,0.6-0.5,0.9c-0.2,0.2-0.3,0.2-0.5,0.2
		c-0.8,0-1.5,0-2.3,0c-0.6,0-0.6,0-0.5,0.6c0.2,1.1,0.3,2.1,0.5,3.2c0.3,1.5,0.3,3.2,0.6,4.7c0.2,0.8,0.5,1.5,0.6,2.3
		c0,0.3,0.2,0.3,0.5,0.3c0.9,0,1.8-0.2,2.7-0.3c0.5,0,0.9-0.2,1.4,0c0.8,0.2,1.4,0.6,1.4,1.4c0.2,1.2,0.2,2.4,0.2,3.6
		c0,0.2,0,0.3-0.2,0.3c-0.3,0-0.3,0.3-0.3,0.6c0,0.3,0,0.6-0.2,0.9c0,0.3-0.2,0.6,0.3,0.8c0.2,0,0.2,0.2,0,0.3
		c-0.2,0.2-0.2,0.3-0.3,0.3c0-1.8-0.2-3.8-0.3-5.6c0-0.3,0-0.6-0.3-0.6c-0.5,0-0.3,0.5-0.3,0.8c0.2,1.5,0.3,3,0.3,4.5
		c0,0.5,0,1.1,0.2,1.5c-0.5-0.3-0.5-0.6-0.5-0.9c0-1.1-0.2-2.1-0.2-3.2c0-0.9-0.2-1.7-0.2-2.6c0-0.5-0.3-0.3-0.6-0.3
		c-0.3,0-0.5,0.2-0.3,0.5c0,0.3,0,0.6,0.2,0.9c0,0.3,0,0.6-0.2,0.8c0-0.2,0-0.3-0.2-0.3c0.2-0.3,0.2-0.6-0.3-0.6
		C71,35.7,71,35.6,71,35.3c0.2,0.2,0.3,0.2,0.5,0c0.2-0.2,0.2-0.5,0-0.5c-0.2-0.2-0.3,0-0.5,0.2c-0.3-0.2-0.6-0.3-0.6,0.2
		C70.2,35.7,70.2,36.5,71,37.1z M69.2,7.1c0,0,0.2,0,0.3,0c0.2,0,0.3-0.2,0.3-0.3c0-0.3-0.3-0.3-0.5-0.2c-0.2,0-0.3,0-0.5,0
		c-0.2-0.2-0.3-0.2-0.5,0.2c-0.2,0.2,0.2,0.3,0.3,0.5C68.7,7.1,68.9,7.1,69.2,7.1z M69.2,21.8c0.2,0,0.5,0,0.3-0.3
		c0-0.5-0.5-0.3-0.8-0.5c-0.2,0-0.3,0-0.3,0.3C68.6,22,69,21.8,69.2,21.8z M71.1,6.8c0-0.2,0-0.3-0.3-0.3c-0.2,0-0.3,0.2-0.3,0.3
		s0,0.3,0.3,0.3C71,7.2,71.1,7.1,71.1,6.8z"/>
	<path class="st0" d="M57.3,5.1c1.1,0,2.3,0,3.6-0.3c0.8-0.2,1.7-0.2,2.4,0c0.8,0,1.2,0.8,1.1,1.5c-0.2,0.3,0,0.5,0,0.8
		c0,1.1,0.2,2,0,3c0,0.3,0,0.6-0.2,0.9c-0.2,0.3-0.5,0.6-0.9,0.6c-0.5-0.2-0.8-0.3-0.8-0.8c-0.2-0.8,0-1.7,0-2.4c0-0.3,0-0.5,0-0.8
		c0-0.2,0.2-0.5-0.3-0.5c-0.3,0-0.5,0-0.5,0.5c0,0.3,0,0.5,0,0.8c-0.3,0.3-0.6,0.5-0.9,0.5c-0.5,0-0.8-0.3-0.9-0.8
		c0-0.3-0.2-0.6-0.2-0.9c0-0.2,0-0.3-0.2-0.3c-0.2,0-0.2,0.2-0.2,0.3c0,0.5,0,1.1,0,1.5c0,2.1,0.3,4.2,0.6,6.3c0.2,1.1,0.2,2,0.2,3
		c0.2,2.7,0.3,5.4,0.8,8.1c0.3,2,0.6,3.8,0.9,5.7c0.2,0.8,0.3,1.4,0.3,2.1c0.2,0.6-0.2,1.1-0.8,1.1c-0.6,0-0.9-0.3-1.1-0.9
		c-0.5-2.7-0.9-5.4-1.4-8c-0.3-1.4-0.3-2.6-0.3-3.9c-0.2-2.1-0.2-4.2-0.5-6.3c-0.2-1.7-0.5-3.2-0.6-4.8c0.2-1.4,0-2.6,0.2-3.8
		c0-0.3,0-0.5-0.5-0.5c-1.1,0-2-0.2-3,0.2c-0.2,0-0.5,0-0.8,0c-0.3-0.2-0.6-0.6-0.6-0.9c0-0.5,0.5-0.8,0.9-0.8
		C55,5.1,56.1,5.1,57.3,5.1z M61,7.7L61,7.7c-0.3,0-0.2-0.3-0.3-0.5s-0.2-0.3-0.3-0.2c-0.2,0-0.3,0.2-0.2,0.3c0,0.3,0.2,0.6,0.3,0.9
		c0.2,0.2,0.3,0.3,0.5,0.3c0.2,0,0.3-0.2,0.3-0.5c0.2,0,0.5-0.2,0.3-0.3s-0.2-0.5,0-0.6c0-0.2,0-0.3,0-0.6c0-0.2-0.2-0.2-0.3-0.2
		c-0.2,0-0.3,0.2-0.3,0.3c0,0.3,0,0.6,0.2,0.8C61,7.5,61,7.5,61,7.7z M63.3,10.4c-0.2-0.8,0-1.4,0-2.1c0-0.2,0-0.3-0.2-0.5
		c-0.3,0-0.3,0.2-0.3,0.3c0,0.9-0.2,1.8,0.2,2.6c0,0.3,0.3,0.5,0.6,0.2c0.3,0,0.5-0.2,0.5-0.5C63.8,10.2,63.5,10.2,63.3,10.4z
		 M63.9,9.2c0-0.2,0.2-0.6-0.3-0.6c-0.3,0-0.3,0.3-0.3,0.6c0,0.2,0,0.5,0.3,0.5C64.1,9.6,64.1,9.5,63.9,9.2z"/>
	<path class="st1" d="M73.1,41.4c-0.2-0.5-0.2-1.1-0.2-1.5c0-1.5-0.2-3-0.3-4.5c0-0.3-0.2-0.6,0.3-0.8c0.5,0,0.3,0.5,0.3,0.6
		c0.2,1.8,0.3,3.8,0.3,5.6c0,0.2,0,0.3,0.2,0.3c0,0.2,0.3,0,0.2,0.2c0,0.2-0.3,0.2-0.5,0.2C73.4,41.6,73.2,41.6,73.1,41.4z"/>
	<path class="st1" d="M17.6,32.1c0,0.3,0.2,0.6,0.2,0.9c0,0.3-0.2,0.6-0.5,0.6s-0.6-0.2-0.6-0.5c-0.2-0.3-0.2-0.6-0.3-0.9
		c0-0.2,0-0.2,0-0.3c0-0.5,0-1.1,0.2-1.5c0.2-0.3,0.3-0.6,0.6-0.5c0.3,0.2,0.5,0.3,0.5,0.8c0,0.3-0.2,0.6-0.2,0.9
		C17.3,31.8,17.3,31.9,17.6,32.1z"/>
	<path class="st1" d="M106.7,65.2c0,0.2,0,0.3,0.2,0.3c-0.3,0.3-0.2,0.5,0.2,0.6c-0.3,0.3-0.5,0.3-0.6-0.2c-0.2-0.6-0.3-1.2-0.3-1.8
		c0-0.8-0.2-1.5-0.2-2.3c0-0.2,0-0.5,0.3-0.5s0.3,0.3,0.3,0.5c0,0.9,0.2,1.8,0.2,2.9C106.6,64.9,106.6,65.1,106.7,65.2L106.7,65.2z"
		/>
	<path class="st0" d="M139.9,58.2c0.2,0,0.3,0,0.3,0c0.3-0.3,0.5,0,0.5,0.2c0,0.6,0,1.4,0,2c0,0.5-0.3,0.6-0.8,0.8
		c-0.5,0-0.8-0.2-0.9-0.5c-0.2-0.2,0-0.5,0.2-0.5c0.2,0.2,0.2,0.3,0.3,0.5c0.5,0.3,0.6,0.2,0.6-0.3c0.2-0.3,0.2-0.5-0.3-0.5
		C139.9,59.2,139.7,58.8,139.9,58.2z"/>
	<path class="st1" d="M110.3,42.9c0,0.3,0,0.5,0,0.8c-0.2,0.2-0.3,0.3-0.3,0.5c-0.3-0.3-0.3-0.6-0.3-0.9c0-0.8-0.2-1.7-0.2-2.4
		c0-0.2,0-0.5,0.3-0.5s0.3,0.2,0.3,0.5c0,0.2,0,0.3,0,0.6c0,0.5,0,0.8,0,1.2C110.3,42.6,110.3,42.8,110.3,42.9z"/>
	<path class="st1" d="M140.2,60.3c0,0.5-0.2,0.6-0.6,0.3c-0.2-0.2-0.3-0.3-0.3-0.5c0-0.8,0.2-1.7,0-2.4c0.2-0.2,0.2-0.5,0.6-0.3
		c0,0.3,0,0.5,0.2,0.8c-0.2,0.6,0,1.1,0,1.7C139.7,60.1,139.9,60.3,140.2,60.3z"/>
	<path class="st1" d="M75.5,33.1c-0.2,0.2,0,0.2,0,0.3c-0.2,0.2-0.3,0.3-0.2,0.6c-0.5-0.2-0.5-0.5-0.5-0.8c-0.2-0.6,0-1.1,0.2-1.7
		c0-0.3,0.3-0.5,0.6-0.3c0,0.5,0,1.1,0,1.5C75.5,33,75.5,33,75.5,33.1z"/>
	<path class="st1" d="M57,41.3c-0.6,0-0.8-0.2-0.8-0.8c0-0.5,0-1.1,0-1.5c0-0.2,0-0.3,0.2-0.5c0.3,0,0.3,0.2,0.5,0.3
		c0.2,0.3,0,0.6,0,1.1c0,0.2,0,0.2,0,0.3c-0.2,0.3-0.3,0.6,0.2,0.9C57.1,41.1,57,41.3,57,41.3z"/>
	<path class="st1" d="M105.8,33.7c-0.5-0.5-0.3-1.1-0.5-1.5c0-0.2,0-0.3,0-0.5c0-0.6,0.2-0.6,0.6-0.5c0,0.6,0.2,1.2,0.2,1.7
		C106.1,33.4,106.1,33.6,105.8,33.7z"/>
	<path class="st1" d="M135.2,63c0.2-0.3,0-0.5,0-0.8c0-0.2,0-0.3,0.3-0.3c0.2,0,0.3,0.2,0.3,0.3c0,1.1,0,2.3-0.2,3.3
		c-0.3-0.6-0.2-1.4-0.2-2.1C135.5,63.3,135.5,63.1,135.2,63z"/>
	<path class="st1" d="M71.3,36.5c0.2,0,0.2,0.2,0.2,0.3c-0.2,0.2-0.3,0.3-0.6,0.3c-0.8-0.5-0.8-1.2-0.8-2c0-0.5,0.3-0.2,0.6-0.2
		c0,0.2,0,0.3,0,0.5c0,0.2,0,0.5,0.2,0.6c-0.2,0.2-0.3,0.3-0.2,0.5C71,36.6,71.1,36.5,71.3,36.5z"/>
	<path class="st1" d="M81.2,34.5c0.2,0.2,0.2,0.3,0,0.5c-0.2,0.2-0.3,0.2-0.5,0.2c-0.3-0.2-0.5-0.3-0.6-0.6C80,33.9,80,33.4,80,32.8
		c0-0.3,0.2-0.5,0.5-0.5c0,0.8,0.2,1.4,0,2.1c0,0.2,0,0.3,0.2,0.3C80.9,34.8,81.1,34.6,81.2,34.5z"/>
	<path class="st1" d="M91.9,61c0.2-0.2,0.2-0.5,0-0.6c0-0.2,0-0.3,0-0.5s0.2-0.3,0.3-0.3s0.3,0.2,0.3,0.3c-0.3,0.5-0.3,1.1,0.3,1.5
		c0,0.2,0,0.2,0,0.3h-0.2c-0.3,0.2-0.5,0-0.5-0.3C92.2,61.3,92.1,61.2,91.9,61z"/>
	<path class="st1" d="M135.5,67c-0.2,0-0.3-0.2-0.5-0.2v-0.2c0-0.3-0.2-0.8,0.5-0.8c0,0,0.2,0,0.2-0.2c0,0.2,0,0.3,0.2,0.5
		C135.3,66.4,135.2,66.6,135.5,67z"/>
	<path class="st0" d="M133.8,61.6L133.8,61.6C133.7,61.5,133.8,61.5,133.8,61.6C133.8,61.5,133.8,61.5,133.8,61.6L133.8,61.6z"/>
	<path class="st1" d="M1.2,57.7c0.2-1.7,0.6-3.5,1.2-5s1.2-3,1.7-4.7c0-0.2,0-0.2,0.2-0.3c0.2-0.3,0.5-0.6,0.8-0.5
		c0.5,0.2,0.5,0.5,0.3,0.8c-0.2,0.6-0.5,1.2-0.6,2c-0.8,2.1-1.4,4.2-1.7,6.5c0,0.3,0,0.5,0,0.8c0,0.6,0.3,1.1,0.9,1.2
		c0.5,0.2,0.5,0.6,0.2,0.9C3.6,59.8,3,60,2.3,59.8c-0.8-0.2-1.1-0.6-1.2-1.4C1.2,58.3,1.1,58,1.2,57.7z"/>
	<path class="st1" d="M15.7,10.5c-0.3,0.8-0.5,1.4-0.5,2c-0.3,0.9-0.6,1.7-0.9,2.4c-0.2,0.3-0.3,0.5-0.8,0.3
		c-0.3-0.2-0.5-0.5-0.3-0.8c0.5-1.4,0.9-2.7,1.2-4.2c0.2-0.6,0.3-1.2,0.5-1.8c0.2-0.6,0.5-0.9,0.9-0.8c0.5,0,0.8,0.3,0.8,0.9
		c0.2,0.6,0.2,1.4,0.2,2c0,1.5,0.3,2.9,0.5,4.4c0.2,0.6,0.2,1.2,0.3,1.8c0,0.3-0.2,0.6-0.5,0.6c-0.3,0.2-0.6-0.2-0.6-0.5
		c-0.2-0.6-0.2-1.4-0.3-2c-0.2-1.1-0.3-2-0.5-3C15.7,11.4,15.8,11,15.7,10.5z"/>
	<path class="st1" d="M29.7,58.9c0,0.3-0.2,0.5-0.5,0.6c-0.3,0.2-0.6,0-0.9-0.2c-0.9-0.8-1.2-1.7-1.1-2.7c0.2-1.2,0-2.6,0-3.8
		c0-0.2,0-0.3,0-0.5c0.2-0.3,0.3-0.3,0.6-0.3c0.3,0,0.5,0.2,0.5,0.3c0,0.2,0,0.3,0,0.6c0,1.4,0,2.7,0.2,4.1c0,0.3,0,0.6,0.2,1.1
		c0.2,0.5,0.5,0.6,0.8,0.8C29.5,58.6,29.5,58.8,29.7,58.9z"/>
	<path class="st1" d="M20.2,40.7c0.3,0,0.5,0.2,0.6,0.5c0,0.3,0.2,0.8,0.3,1.1c0.2,0.3,0.2,0.6-0.3,0.8c-0.3,0.2-0.6,0-0.8-0.3
		c-0.2-0.5-0.5-0.9-0.5-1.4C19.8,40.8,19.9,40.7,20.2,40.7z"/>
	<path class="st1" d="M112.1,8.6c-0.6,0-0.9-0.3-0.9-0.8c0-0.6-0.3-1.1-0.9-1.1c-0.2,0-0.5,0-0.6,0c-0.3,0-0.5,0.2-0.8,0
		s-0.6,0-0.9,0c-1.5,0.2-3,0.3-4.7,0.5c-0.2,0-0.3,0.2-0.5,0.2c-0.2,0-0.3,0-0.5-0.2c-0.2-0.2,0-0.3,0.2-0.5
		c0.9-0.6,1.8-1.1,2.9-1.2c1.7-0.3,3.2,0,4.8,0.2c0.6,0.2,1.2,0.5,1.8,0.9c0.5,0.3,0.5,0.8,0.5,1.2C112.3,8,112.3,8.3,112.1,8.6z"/>
	<path class="st2" d="M89.8,41.4c0.3,0.2,0.3,0.3,0.2,0.5c-0.3,0.9-0.6,1.8-0.8,2.7c-0.2,0.8-0.3,1.7-0.2,2.4
		c0.2,0.9,0.2,1.8,0.2,2.7c0.2,1.1,0.3,2.1,0.8,3.2c0.2,0.2,0.2,0.5,0,0.6c-0.3,0.2-0.3-0.2-0.5-0.3c-0.6-1.4-0.8-2.9-0.9-4.4
		c0-0.5,0-0.8-0.2-1.2c-0.3-2,0.2-3.8,0.9-5.6C89.5,41.7,89.5,41.4,89.8,41.4z"/>
	<path class="st2" d="M112.1,8.6c0.2-0.3,0.2-0.6,0.6-0.8c0.5,0.2,0.5,0.8,0.6,1.1c0.2,0.6,0,1.2-0.2,1.8c-0.2,0.2-0.2,0.5-0.5,0.3
		c-0.3-0.2-0.2-0.3,0-0.6c0.3-0.5,0.2-1.1-0.2-1.5C112.1,8.9,112.1,8.7,112.1,8.6z"/>
	<path class="st2" d="M111.1,11.6c0-0.3,0.2-0.6,0.5-0.6c0.3,0,0.5,0.3,0.5,0.6c0,0.3-0.2,0.5-0.5,0.5
		C111.1,12,111.1,11.7,111.1,11.6z"/>
	<path class="st2" d="M92.8,61.5c-0.5-0.3-0.6-1.1-0.3-1.5c0.2,0,0.3,0.2,0.3,0.3c0,0.3,0,0.5,0.2,0.8
		C93.3,61.3,93.1,61.3,92.8,61.5z"/>
	<path class="st2" d="M92.2,55.6c0.2,0,0.6,0.5,0.6,0.6c0,0.2-0.2,0.3-0.3,0.3c-0.3,0-0.6-0.5-0.6-0.6
		C92.1,55.7,92.1,55.6,92.2,55.6z"/>
	<path class="st2" d="M110,44c0-0.2,0.2-0.3,0.3-0.5c0.3,0,0.5,0.2,0.5,0.5c0,0.2-0.2,0.3-0.3,0.5C110.2,44.4,110.2,44.3,110,44z"/>
	<path class="st2" d="M91,54.7c0,0.2-0.2,0.3-0.3,0.3c-0.3,0-0.3-0.2-0.3-0.5c0-0.2,0.2-0.3,0.3-0.3C90.9,54.2,91,54.5,91,54.7z"/>
	<path class="st2" d="M106.9,66.3c-0.3-0.2-0.3-0.5-0.2-0.6c0.3,0,0.5,0,0.5,0.3C107.3,66.1,107,66.1,106.9,66.3z"/>
	<path class="st2" d="M111.5,9.9c0.2,0,0.3,0,0.3,0.2s0,0.3-0.2,0.3c-0.2,0-0.3,0-0.3-0.2C111.2,10.1,111.4,9.9,111.5,9.9z"/>
	<path class="st1" d="M34.4,38.9c0,0.2,0,0.3,0,0.5c-0.3,0.5-0.3,0.8,0.3,0.9c0,0.2,0,0.3-0.3,0.3c-0.2,0-0.3-0.2-0.3-0.3
		c-0.3-0.8-0.5-1.5-0.5-2.3c0-0.2,0-0.5,0.3-0.5c0.3,0,0.3,0.2,0.3,0.5c-0.3,0.2-0.3,0.3-0.3,0.5C34.1,38.6,34.2,38.7,34.4,38.9z"/>
	<path class="st2" d="M33.3,8.4C33.3,8.1,33,8,33,7.7c-0.2-0.2-0.2-0.3,0-0.5c0.2-0.2,0.3,0,0.5,0.2c0.2,0.3,0.3,0.5,0.5,0.8
		c0.2,0.2,0.3,0.5,0,0.6C33.5,8.9,33.5,8.6,33.3,8.4L33.3,8.4z"/>
	<path class="st1" d="M30.6,31.6c0,0.3,0,0.5-0.2,0.5c-0.2,0-0.3,0-0.3-0.2c-0.2-0.2,0-0.3-0.3-0.5c-0.3,0-0.3-0.3-0.2-0.5
		c0.2-0.2,0.3-0.3,0.6-0.2C30.3,31.2,30.5,31.5,30.6,31.6z"/>
	<path class="st2" d="M33.2,50.2c0,0.2,0,0.3,0,0.5c-0.2,0.8-0.2,0.8-0.6,0.6c0-0.2,0-0.2,0-0.3c0-0.2,0-0.2,0-0.3
		C32.7,50.2,32.9,50,33.2,50.2z"/>
	<path class="st1" d="M32.6,51.1c0.5,0.2,0.5,0.2,0.6-0.6c0,0.3,0,0.8,0,1.1c-0.3,0-0.5,0.3-0.5,0.5C32.4,52,32.7,51.5,32.6,51.1z"
		/>
	<path class="st2" d="M34.4,38.9c-0.3,0-0.5-0.2-0.5-0.5c0-0.2,0-0.5,0.3-0.5C34.7,38.1,34.7,38.4,34.4,38.9z"/>
	<path class="st1" d="M33.2,50.2c-0.3-0.2-0.5,0-0.6,0.3c0,0.2,0,0.2,0,0.3c-0.2-0.5,0-0.8,0-1.2c0-0.2,0.2-0.3,0.3-0.3
		s0.3,0,0.3,0.3C33.2,49.9,33.2,50,33.2,50.2z"/>
	<path class="st2" d="M34.7,40.2c-0.5-0.2-0.6-0.5-0.3-0.9C35,39.5,35.1,39.8,34.7,40.2z"/>
	<path class="st2" d="M33.3,8.4c-0.2,0,0,0.2,0,0.2c0,0.2,0,0.3-0.2,0.5c-0.2,0-0.3,0-0.5-0.2c-0.2-0.2-0.2-0.3,0-0.5
		c0.2-0.2,0.3-0.2,0.5,0C33.2,8.4,33.2,8.6,33.3,8.4L33.3,8.4z"/>
	<path class="st2" d="M46.7,28.3c0.2,0.9,0.2,2,0.3,2.9c0,0.2,0.2,0.5-0.2,0.5c-0.3,0-0.3-0.2-0.5-0.5c-0.2-0.9-0.3-2-0.3-2.9
		c0-0.2,0-0.2,0-0.3c0-0.2,0.2-0.3,0.3-0.2C46.7,28,46.9,28.2,46.7,28.3z"/>
	<path class="st1" d="M54.7,50.6c-0.2,0.3-0.5,0.3-0.6,0c-0.2-0.5-0.3-0.9-0.3-1.4c0-0.6,0-1.2-0.2-1.8c0-0.2,0-0.5,0.2-0.5
		c0.2,0.6,0.2,1.1,0.3,1.7c0,0.3,0.2,0.5,0.5,0.5c0,0.3,0,0.6,0.2,0.9c-0.3,0-0.5,0.2-0.5,0.5C54.3,50.5,54.4,50.6,54.7,50.6z"/>
	<path class="st2" d="M52.2,7.1c0,0.3-0.3,0.5-0.5,0.8c0,0.2-0.2,0-0.3,0c-0.2-0.2-0.2-0.3,0-0.5c0.3-0.3,0.2-0.6,0-0.9
		c-0.2-0.2-0.2-0.3,0-0.5c0-0.2,0.3,0,0.3,0.2C52,6.5,52.2,6.8,52.2,7.1z"/>
	<path class="st2" d="M46.9,27.1c0,0.2-0.2,0.3-0.3,0.3c-0.2,0-0.2-0.2-0.2-0.3s0.2-0.3,0.3-0.3C46.7,27,46.9,27,46.9,27.1z"/>
	<path class="st1" d="M54.7,50.6C54.7,50.6,54.9,50.6,54.7,50.6C54.9,50.6,54.7,50.6,54.7,50.6z"/>
	<path class="st1" d="M120.3,55.1c0,0.5,0.3,0.6,0.6,0.9c0,0.2,0.2,0.2,0.3,0.3c0.2,0.2,0.3,0.3,0.2,0.5c-0.2,0.2-0.3,0-0.5,0
		l-0.2-0.2c-1.1-1.2-1.8-2.4-2.3-3.9c-0.2-0.8-0.5-1.5-0.6-2.3c0-0.3,0-0.6,0-0.9c0-0.2,0.2-0.3,0.3-0.3c0.2,0,0.3,0.2,0.3,0.3
		c-0.2,1.1,0.3,2,0.6,2.9c0.2,0.5,0.2,0.9,0.6,1.4l0,0c0,0.2,0,0.2,0.2,0.2l0,0c0,0.2,0,0.2,0.2,0.2l0,0c0,0.2,0,0.2,0.2,0.2l0,0
		c0,0,0,0.2,0.2,0.2l0,0c0,0.2,0,0.2,0.2,0.2l0,0c0,0,0,0.2,0.2,0.2l0,0c0,0.2,0,0.2,0.2,0.2l0,0c0,0,0,0.2,0.2,0.2l0,0
		C120.1,54.8,120.1,55,120.3,55.1L120.3,55.1C120.1,55.1,120.1,55.1,120.3,55.1L120.3,55.1z"/>
	<path class="st1" d="M124,56.3c0.2,1.1,0.3,2.3,0.9,3.2c0.2,0.3,0.3,0.6,0.6,0.8c0.2,0.2,0.2,0.5-0.2,0.5c-0.3,0-0.5,0-0.6-0.3
		c-0.2-0.5-0.6-0.9-0.8-1.5c-0.6-1.7-0.9-3.5-1.2-5.3c0-0.3,0-0.5,0.3-0.5s0.3,0.3,0.3,0.5c0.2,0.5,0,1.1,0.3,1.4l0,0
		c0,0.2,0,0.3,0.2,0.5C123.7,55.9,123.9,56.2,124,56.3z"/>
	<path class="st2" d="M119.4,53.6c0-0.3-0.3-0.6,0.2-0.8c0.3-0.2,0.3,0.3,0.5,0.5c0.3,0.6,0.6,1.2,1.2,1.5c0.2,0,0.2,0.2,0.2,0.3
		c0,0.2,0,0.3,0.2,0.3c0.2,0,0.2,0.2,0.2,0.3c0,0.2-0.2,0.2-0.2,0.2c-0.2,0-0.3,0-0.3-0.2c0-0.5-0.5-0.5-0.6-0.8l-0.2-0.2l0,0
		c0-0.2,0-0.2-0.2-0.2l0,0c0,0,0-0.2-0.2-0.2l0,0c0,0,0-0.2-0.2-0.2l0,0c0-0.2,0-0.2-0.2-0.2l0,0c0,0,0-0.2-0.2-0.2l0,0
		c0-0.2,0-0.2-0.2-0.2l0,0c0,0,0-0.2-0.2-0.2l0,0c0-0.2,0-0.2-0.2-0.2l0,0c0-0.2,0-0.2-0.2-0.2l0,0
		C119.5,53.8,119.4,53.8,119.4,53.6L119.4,53.6z"/>
	<path class="st2" d="M124,56.3c-0.2-0.3-0.2-0.5-0.2-0.8c0-0.2,0-0.3-0.2-0.5l0,0c0-0.5-0.2-0.8,0-1.2c0-0.3,0-0.6,0.3-0.6
		s0.3,0.3,0.3,0.5c0,0.8,0.2,1.4,0.2,2.1C124.5,56.3,124.5,56.5,124,56.3z"/>
	<path class="st1" d="M123.6,52.1c-0.2,0-0.5,0-0.6-0.2c-0.2,0-0.3-0.2-0.3-0.3c0-0.2,0.2-0.3,0.3-0.5c0.5-0.2,0.8,0,0.9,0.5
		C123.7,51.8,123.6,52,123.6,52.1z"/>
	<path class="st2" d="M120.3,36.8c-0.2,0-0.3-0.2-0.2-0.2c0-0.3,0.2-0.6,0.3-0.9c0-0.2,0.2,0,0.3,0l0,0c0.2,0.3-0.2,0.6-0.2,0.9
		C120.6,36.6,120.4,36.8,120.3,36.8z"/>
	<path class="st2" d="M123.6,52.1c0-0.2,0.2-0.3,0.3-0.3c0.2,0,0.2,0.2,0.3,0.2c0.2,0.2,0.2,0.3,0.2,0.5s-0.2,0.2-0.3,0.2
		C123.7,52.6,123.7,52.4,123.6,52.1L123.6,52.1z"/>
	<path class="st2" d="M121.3,35.6c-0.2,0-0.3-0.2-0.3-0.3c0-0.2,0-0.3,0.3-0.3c0.2,0,0.3,0.2,0.3,0.3
		C121.6,35.6,121.5,35.6,121.3,35.6z"/>
	<path class="st1" d="M37.8,35.6c-0.2,0.5-0.3,0.5-0.6,0.2c-0.5-0.6-0.8-1.2-0.6-2s0.3-1.5,0.3-2.3c0-0.9,0.2-1.8,0.2-2.7
		c0-0.2,0-0.2,0-0.3s0.2-0.3,0.3-0.3c0.2,0,0.3,0.2,0.3,0.3c0,0.6-0.2,1.4-0.2,2c0,0.3,0,0.8-0.2,1.1c0,0.8-0.2,1.7-0.3,2.4
		c-0.2,0.5,0,0.8,0.3,1.1C37.5,35.3,37.7,35.4,37.8,35.6z"/>
	<path class="st1" d="M37.2,8.3c0,0.8,0.5,1.5,0.6,2.3c0,0.3,0,0.5-0.3,0.6c-0.2,0-0.2,0.2-0.2,0.3s-0.2,0.3-0.3,0.5
		c-0.5-0.2-0.5-0.5-0.5-0.6s0-0.5,0-0.6c0-0.8,0-1.5-0.2-2.1c0-0.3-0.2-0.6,0.3-0.9C36.9,7.8,37.1,8,37.2,8.3z"/>
	<path class="st1" d="M43.4,33.9c0.2,0.2,0.2,0.3,0,0.5c-0.2,0.2-0.3,0.3-0.6,0c-0.2-0.2-0.3-0.3-0.3-0.5c-0.2-0.8-0.3-1.7-0.5-2.4
		c0-0.2,0-0.3,0.2-0.5c0.2,0,0.3,0,0.5,0.3c0.3,0.6,0.3,1.2,0.5,1.8c-0.2,0.3-0.3,0.5,0,0.8C43.1,34.2,43.3,34,43.4,33.9z"/>
	<path class="st2" d="M37.2,8.3c-0.2-0.2-0.2-0.5-0.3-0.6c-0.2-0.2-0.3-0.3-0.3-0.5s0-0.3,0.2-0.5c0.2-0.2,0.3,0,0.3,0.2
		c0.2,0.3,0.3,0.6,0.5,0.9C37.7,8.1,37.5,8.3,37.2,8.3z"/>
	<path class="st2" d="M37.8,35.6c-0.2-0.2-0.2-0.3-0.3-0.6c0.2-0.3,0.2-0.5,0.6-0.5c0.3,0.2,0.3,0.3,0.3,0.5
		C38.3,35.6,38.1,35.7,37.8,35.6z"/>
	<path class="st1" d="M74.9,16L74.9,16c0,0.3,0,0.6-0.3,0.6s-0.3-0.3-0.3-0.5c-0.2-0.9-0.2-1.8-0.3-2.7c0-0.2,0-0.3,0-0.3
		c0-0.2,0.2-0.3,0.3-0.3c0.3,0,0.3,0.2,0.3,0.5C74.8,14,74.9,14.9,74.9,16z"/>
	<path class="st1" d="M74,6.8c-0.2,0.3-0.2,0.6-0.2,0.9c0,0.2,0,0.3,0.2,0.6c-0.2,0.2-0.2,0.5-0.2,0.6c-0.2,0-0.3,0-0.3-0.2
		c-0.2-0.8-0.5-1.5-0.2-2.3c0.2-0.2,0.2-0.3,0.5-0.3s0.3,0.2,0.3,0.5C74.2,6.6,74.2,6.8,74,6.8z"/>
	<path class="st2" d="M73.9,8.9c0-0.2,0-0.5,0.2-0.6c0.3,0,0.5,0,0.5,0.3c0,0.5,0,0.9,0,1.2c0,0.2,0,0.3-0.3,0.3
		c-0.2,0-0.3-0.2-0.3-0.3C73.9,9.6,73.9,9.2,73.9,8.9z"/>
	<path class="st2" d="M74,6.8c0.2-0.2,0.2-0.2,0.3-0.3c0.2,0,0.5,0,0.5,0.3s0.2,0.6-0.2,0.8c-0.3,0.2-0.5-0.2-0.5-0.5
		C74,6.9,74,6.9,74,6.8z"/>
	<path class="st2" d="M75.4,34c0-0.2,0-0.5,0.2-0.6c0.2,0,0.5,0,0.5,0.3c0,0.3-0.2,0.3-0.3,0.5C75.5,34.2,75.5,34.2,75.4,34L75.4,34
		L75.4,34L75.4,34z"/>
	<path class="st1" d="M75.4,34c0,0,0.2,0,0.2,0.2C75.5,34.2,75.4,34.2,75.4,34z"/>
	<path class="st1" d="M75.4,34L75.4,34L75.4,34z"/>
	<path class="st1" d="M150.1,55.6c-0.2,0.6,0,1.2,0.2,1.8c0,0.2,0.2,0.3,0.3,0.3c0.2,0.2,0.2,0.3,0.5,0.3c0,0.5-0.2,0.5-0.5,0.5
		c-0.5-0.2-0.6-0.3-0.8-0.8c-0.2-0.5-0.2-0.9-0.2-1.4c0-1.1,0-2.1-0.3-3.2c0-0.2-0.2-0.5,0.2-0.6c0.3,0,0.3,0.3,0.5,0.5
		c0.2,0.6,0.2,1.2,0.3,1.8C149.9,55.1,150.1,55.4,150.1,55.6z"/>
	<path class="st2" d="M148.9,35.3c0-0.2,0-0.5,0.2-0.6c0-0.2,0.2-0.3,0.3-0.3c0.2,0,0.2,0.2,0.2,0.3c0,0.3,0,0.6,0,0.9
		c0,0.2,0,0.5-0.3,0.5c-0.3,0-0.3-0.3-0.3-0.5C148.9,35.6,148.9,35.4,148.9,35.3z"/>
	<path class="st2" d="M150.1,55.6c0-0.3-0.2-0.5,0-0.8c0.3-0.3,0.5-0.2,0.6,0.3c0,0.2,0,0.3,0.2,0.5c0,0.2,0.2,0.5-0.2,0.5
		c-0.2,0.2-0.3-0.2-0.5-0.3C150.1,55.7,150.1,55.7,150.1,55.6z"/>
	<path class="st2" d="M150.9,58.2c-0.2,0-0.3-0.2-0.5-0.3c0-0.3,0-0.6,0.3-0.6c0.2,0,0.3,0.2,0.3,0.5C151.2,57.9,151,58,150.9,58.2z
		"/>
	<path class="st2" d="M156.3,55.1c0,0.2-0.2,0.3-0.3,0.3s-0.3-0.2-0.3-0.3c0-0.2,0.2-0.3,0.3-0.3S156.3,55,156.3,55.1z"/>
	<path class="st2" d="M139.4,37.5c0-0.3,0.2-0.6,0.3-0.9c0-0.2,0.2-0.3,0.3-0.2c0.2,0,0.2,0.2,0.2,0.3c0,0.3-0.2,0.6-0.3,0.9
		c0,0.2-0.2,0.3-0.3,0.2C139.4,37.8,139.4,37.8,139.4,37.5z"/>
	<path class="st2" d="M142.9,49.4c0,0.2-0.2,0.3-0.3,0.3c-0.5-0.2-0.8,0.5-1.1,0.2v-0.2c0.2-0.3,1.1-0.6,1.2-0.3
		C142.9,49.4,142.9,49.4,142.9,49.4z"/>
	<path class="st2" d="M140,35.3c0.2,0,0.3,0.2,0.3,0.3s-0.2,0.3-0.3,0.3s-0.3-0.2-0.3-0.3S139.9,35.3,140,35.3z"/>
	<path class="st2" d="M143.5,49c0.2,0,0.3,0.2,0.3,0.3c0,0.2-0.2,0.3-0.3,0.3s-0.3-0.2-0.3-0.3C143.3,49,143.5,49,143.5,49z"/>
	<path class="st1" d="M131.4,58.2c0,0.2,0,0.3-0.2,0.5c-0.2,0-0.3,0-0.5-0.2c-0.2-0.8-0.5-1.4-0.3-2.1c0-0.2,0.2-0.3,0.3-0.3
		c0.3,0,0.3,0.2,0.3,0.5c0,0.5,0.2,0.9,0.2,1.4C131.4,57.9,131.4,58,131.4,58.2z"/>
	<path class="st2" d="M132,60.1c-0.2,0-0.9-0.8-1.1-0.9c0-0.2,0-0.2,0.2-0.3c0.2,0,0.2,0,0.3,0c0.3,0.2,0.6,0.5,0.8,0.8
		c0,0.2,0.2,0.2,0,0.3C132.2,60.1,132.2,60.1,132,60.1z"/>
	<path class="st1" d="M133.8,61.6C133.8,61.5,133.8,61.5,133.8,61.6c-0.2-0.3-0.3-0.5-0.3-0.6c-0.2-0.2,0-0.5,0.2-0.5s0.3,0,0.3,0.3
		c0,0.2,0,0.2,0.2,0.3C134.4,61.5,134.4,61.6,133.8,61.6z"/>
	<path class="st2" d="M135.5,67c-0.3-0.5-0.2-0.6,0.3-0.8C136.1,66.7,135.9,67,135.5,67z"/>
	<path class="st2" d="M69.2,7.1c-0.3,0-0.5,0-0.5-0.2c-0.2-0.2-0.3-0.2-0.3-0.5c0.2-0.2,0.3-0.2,0.5-0.2c0.2,0.2,0.3,0,0.5,0
		c0.2,0,0.5,0,0.5,0.2c0,0.3-0.2,0.3-0.3,0.3C69.3,7.1,69.2,7.1,69.2,7.1z"/>
	<path class="st2" d="M69.2,21.8c-0.3-0.2-0.6,0-0.8-0.5c0-0.2,0.2-0.3,0.3-0.3c0.3,0,0.8-0.2,0.8,0.5
		C69.6,21.8,69.5,21.8,69.2,21.8z"/>
	<path class="st2" d="M70.8,35.3c0-0.2,0-0.3,0-0.5c0.2-0.2,0.3-0.3,0.5-0.2c0.2,0.2,0.2,0.3,0,0.5C71.3,35.6,71,35.4,70.8,35.3z"/>
	<path class="st2" d="M71.1,6.8c0,0.2-0.2,0.3-0.3,0.3s-0.3-0.2-0.3-0.3s0.2-0.3,0.3-0.3C71.1,6.5,71.1,6.6,71.1,6.8z"/>
	<path class="st2" d="M71.3,36.5c-0.2,0.2-0.3,0.2-0.5,0c-0.2-0.2,0-0.3,0.2-0.5C71.4,35.9,71.4,36.2,71.3,36.5z"/>
	<path class="st1" d="M61.3,34c-0.6-0.3-0.8-0.9-0.8-1.5c-0.2-0.8-0.2-1.7-0.3-2.4c0-0.2,0-0.3,0.2-0.5c0.3,0,0.3,0.2,0.5,0.3
		c0.2,0.6,0.2,1.2,0.2,1.8c0,0.2,0,0.3,0,0.6c0,0.2,0,0.3,0,0.5c0,0.3,0.2,0.5,0.5,0.5c0,0.2,0.2,0.3,0.2,0.5
		C61.5,33.7,61.3,33.9,61.3,34z"/>
	<path class="st1" d="M63.5,10.8c-0.3,0.3-0.6,0-0.6-0.2c-0.3-0.9-0.2-1.7-0.2-2.6c0-0.2,0.2-0.3,0.3-0.3c0.2,0,0.2,0.2,0.2,0.5
		c0,0.8,0,1.4,0,2.1C63.2,10.5,63.2,10.7,63.5,10.8z"/>
	<path class="st1" d="M61.3,8.1c0,0.3-0.2,0.3-0.3,0.5c-0.2,0-0.3-0.2-0.5-0.3c-0.2-0.3-0.3-0.6-0.3-0.9c0-0.2,0-0.3,0.2-0.3
		s0.3,0,0.3,0.2c0.2,0.2,0,0.5,0.3,0.5C61,7.8,61,8,61.3,8.1z"/>
	<path class="st2" d="M61.3,8.1C61,8.1,61,7.8,61,7.7l0,0c0.2-0.2,0.2-0.2,0.2-0.2C61,7.2,61,7.1,61,6.8c0-0.2,0.2-0.3,0.3-0.3
		c0.2,0,0.2,0.2,0.3,0.2c0,0.2,0.2,0.3,0,0.6c0,0.2-0.2,0.3,0,0.6C61.6,8,61.5,8,61.3,8.1z"/>
	<path class="st2" d="M63.9,9.2c0,0.3,0,0.5-0.3,0.5c-0.3,0-0.3-0.3-0.3-0.5s0-0.5,0.3-0.6C64.1,8.7,63.9,9,63.9,9.2z"/>
	<path class="st2" d="M63.5,10.8c-0.3-0.2-0.3-0.3-0.2-0.6c0.2,0,0.5,0,0.5,0.3C63.9,10.8,63.6,10.8,63.5,10.8z"/>
	<path class="st1" d="M61.2,7.4c0,0.2,0,0.2-0.2,0.2C61,7.5,61,7.5,61.2,7.4z"/>
	<path class="st2" d="M140.2,60.3c-0.3,0-0.5-0.2-0.3-0.5C140.3,59.8,140.3,60,140.2,60.3z"/>
	<path class="st0" d="M119.8,54.5c0.2,0,0.2,0.2,0.2,0.2C119.8,54.8,119.8,54.7,119.8,54.5z"/>
	<path class="st0" d="M120.1,55c0.2,0,0.2,0,0.2,0.2C120.1,55.1,120.1,55.1,120.1,55z"/>
	<path class="st0" d="M119.4,53.6c0.2,0,0.2,0.2,0.2,0.2C119.4,53.9,119.4,53.8,119.4,53.6z"/>
	<path class="st0" d="M119.4,53.9c0.2,0,0.2,0.2,0.2,0.2C119.4,54.1,119.4,53.9,119.4,53.9z"/>
	<path class="st0" d="M119.7,54.4c0.2,0,0.2,0.2,0.2,0.2C119.7,54.5,119.7,54.4,119.7,54.4z"/>
	<path class="st0" d="M119.5,54.1c0.2,0,0.2,0.2,0.2,0.2C119.5,54.2,119.5,54.1,119.5,54.1z"/>
	<path class="st0" d="M119.8,54.5L119.8,54.5L119.8,54.5z"/>
	<path class="st0" d="M120,54.8C120,54.8,120.1,54.8,120,54.8L120,54.8z"/>
	<path class="st0" d="M120.1,54.8C120.1,54.8,120.1,55,120.1,54.8C120.1,55,120.1,54.8,120.1,54.8z"/>
	<path class="st0" d="M119.7,54.2L119.7,54.2C119.7,54.4,119.7,54.2,119.7,54.2z"/>
	<path class="st0" d="M123.7,55.1c0.2,0.2,0.2,0.3,0.2,0.5C123.7,55.4,123.7,55.3,123.7,55.1z"/>
</g>
</svg>
