<?xml version="1.0" encoding="utf-8"?>
<!-- Generator: Adobe Illustrator 26.0.1, SVG Export Plug-In . SVG Version: 6.00 Build 0)  -->
<svg version="1.0" id="Layer_1" xmlns="http://www.w3.org/2000/svg" xmlns:xlink="http://www.w3.org/1999/xlink" x="0px" y="0px"
	 viewBox="0 0 127.93 146.13" style="enable-background:new 0 0 127.93 146.13;" xml:space="preserve">
<style type="text/css">
	.st0{font-family:'Shlop-Regular';}
	.st1{font-size:16.8889px;}
</style>
<g>
	<path d="M53,42.18c0.5-2.19,0.39-4.41-0.2-6.55c-0.54-1.96-1.22-3.91-2.08-5.76c-1.64-3.52-2.14-7.12-1.19-10.89
		c0.51-2.02,1.06-4.03,1.64-6.03c0.44-1.49,1.45-2.42,2.88-3.1c1.57-0.75,3.06-1.7,4.52-2.65c1.19-0.77,2.17-0.98,3.19-0.02
		c0.98,0.92,1.8,2.09,2.45,3.27c0.49,0.88,0.28,1.9-0.29,2.82c-0.99,1.59-1.91,3.2-3.62,4.18c-0.28,0.16-0.44,0.64-0.52,1
		c-0.31,1.35-0.52,2.73-0.86,4.08c-0.23,0.9-0.09,1.64,0.71,2.44c0.25-1.46,0.46-2.79,0.7-4.12c0.08-0.42,0.16-0.89,0.39-1.24
		c1.91-2.9,3.87-5.77,5.79-8.66c0.9-1.36,2.12-1.66,3.63-1.33c1.39,0.3,2.84,0.41,4.18,0.86c1.15,0.38,2.33,0.96,3.22,1.75
		c1.6,1.43,1.44,3.55-0.19,4.99c-1.19,1.05-2.62,1.6-4.19,1.73c-0.62,0.05-0.85,0.3-1.06,0.84c-0.47,1.18-1.17,2.29-1.56,3.49
		c-0.47,1.43-0.71,2.93-1.05,4.4c0.15,0.05,0.3,0.09,0.45,0.14c0.46-1.07,1-2.11,1.36-3.22c0.72-2.21,2.07-3.8,4.16-4.84
		c1.27-0.63,2.48-1.41,3.66-2.21c0.93-0.64,1.87-0.81,2.9-0.44c1.43,0.52,2.92,0.96,4.24,1.7c1.61,0.9,2,2.15,1.59,3.92
		c-0.43,1.89-1.19,2.6-3.08,2.92c-0.18,0.03-0.37,0.11-0.54,0.08c-2.05-0.33-2.92,0.91-3.68,2.55c-1.01,2.19-2.25,4.27-3.36,6.41
		c-0.12,0.24-0.07,0.57-0.09,0.86c0.27-0.1,0.58-0.15,0.8-0.32c1.01-0.79,2-1.6,2.98-2.43c1.51-1.28,3.38-1.68,5.23-2.11
		c1.22-0.28,2.38,0.13,3.27,0.93c1.73,1.57,3.42,3.19,5,4.91c1.06,1.16,0.96,2.17,0.03,3.47c-1.99,2.79-4.17,3.13-6.9,1.07
		c-0.2-0.15-0.4-0.32-0.61-0.47c-1.32-1-1.66-0.95-2.3,0.57c-0.65,1.55-1.46,3.09-1.74,4.72c-0.24,1.42,0.16,2.96,0.27,4.44
		c0.37,4.78,0.17,9.5-1.5,14.06c-0.75,2.05-1.87,3.87-3.41,5.44c-0.29,0.3-0.51,0.8-0.54,1.22c-0.26,4.38-0.45,8.77-0.7,13.15
		c-0.04,0.73,0.27,1.1,0.74,1.63c1.14,1.3,2.49,1.24,4.01,1.26c1.31,0.02,2.77,0.26,3.87,0.91c2.88,1.69,6.02,2.41,9.22,3.03
		c0.22,0.04,0.43,0.08,0.65,0.13c0.89,0.21,1.35,0.8,1.22,1.67c-0.13,0.87-0.76,1.38-1.66,1.23c-3.43-0.57-6.87-1.17-9.91-3
		c-1.46-0.87-2.92-1.28-4.59-0.99c-0.54,0.09-1.11,0.21-1.63,0.12c-0.56-0.1-1.28-0.29-1.59-0.7c-1.2-1.62-2.83-2.27-4.73-2.4
		c-1.02-0.07-2.05-0.07-3.07,0.02c-1.25,0.12-2.41,0.19-3.59-0.49c-0.51-0.29-1.44-0.09-2.08,0.15c-0.91,0.34-1.76,0.88-2.59,1.42
		c-0.78,0.51-1.51,0.62-2.37,0.22c-0.49-0.23-1.03-0.39-1.56-0.5c-1.4-0.28-1.72,0-2.3,1.33c-0.21,0.49-0.77,1.04-1.27,1.16
		c-5.15,1.25-10.32,2.43-15.48,3.61c-0.95,0.22-1.69-0.23-1.89-1.04c-0.22-0.9,0.27-1.63,1.36-1.88c4.56-1.06,9.12-2.08,13.67-3.18
		c0.49-0.12,0.92-0.57,1.32-0.93c0.32-0.29,0.48-0.82,0.84-0.99c1.13-0.56,1.14-1.51,1.17-2.56c0.08-3.84,0.29-7.68,0.28-11.52
		c0-1.27-0.34-2.63-0.89-3.78c-0.85-1.77-1.92-3.46-3.07-5.05c-2.16-2.99-4.43-5.89-6.67-8.82c-1.09-1.42-1.59-2.93-1.48-4.78
		c0.17-2.92-0.55-5.73-1.54-8.47c-0.34-0.93-0.79-1.82-1.04-2.77c-0.19-0.75-0.13-1.56-0.21-2.34c-0.08-0.76-0.13-1.52-0.29-2.26
		c-0.33-1.5-0.81-2.97-1.07-4.47c-0.39-2.35,0.9-3.88,3.28-3.85c3.05,0.04,5.68,1.06,6.97,4.03c1.16,2.67,2.12,5.43,3.03,8.2
		c0.27,0.82-0.01,1.8,0.09,2.7c0.07,0.67,0.35,1.32,0.54,1.98C52.8,42.22,52.9,42.2,53,42.18z M74,84.24
		c0.04-0.56,0.08-0.96,0.1-1.36c0.21-4.2,0.39-8.4,0.66-12.6c0.05-0.7,0.34-1.55,0.82-2.01c1.47-1.39,2.58-2.98,3.27-4.87
		c1.44-3.88,1.71-7.92,1.31-11.99c-0.33-3.39-0.74-6.74,1.1-9.87c0.24-0.4,0.3-0.91,0.53-1.32c0.38-0.7,0.76-1.43,1.27-2.04
		c1.22-1.45,2.78-1.71,4.42-0.76c0.66,0.38,1.26,0.87,1.88,1.33c1.33,0.98,1.67,0.92,2.67-0.62c-1.43-1.36-2.87-2.76-4.36-4.1
		c-0.28-0.25-0.87-0.45-1.19-0.34c-1.33,0.46-2.69,0.91-3.88,1.62c-1.15,0.69-2.13,1.67-3.14,2.56c-1.69,1.49-2.23,1.53-4.04,0.11
		c-0.4-0.31-0.75-0.69-1.1-1.06c-0.75-0.78-0.85-1.6-0.31-2.59c1.89-3.47,3.69-6.98,5.61-10.43c0.26-0.47,0.99-0.82,1.55-0.93
		c1-0.2,2.04-0.13,3.06-0.24c0.72-0.08,1.04-0.82,0.63-1.34c-0.77-1-3.73-1.54-4.81-0.88c-1.22,0.74-2.42,1.51-3.67,2.19
		c-0.99,0.54-1.6,1.3-2.01,2.34c-1.14,2.85-2.37,5.67-3.56,8.5c-0.3,0.71-0.81,1.29-1.57,1.06c-0.53-0.16-1.04-0.7-1.36-1.2
		c-0.32-0.51-0.38-1.17-0.54-1.77c-0.82-3.04-0.87-6.08,0.25-9.06c0.74-1.97,1.6-3.91,2.43-5.85c0.33-0.77,0.93-0.99,1.78-0.91
		c0.81,0.08,1.67,0.03,2.45-0.18c0.51-0.13,0.91-0.65,1.36-0.99c-0.46-0.38-0.86-0.94-1.38-1.09c-1.36-0.4-2.79-0.56-4.16-0.92
		c-0.71-0.18-1.14-0.06-1.54,0.57c-1.62,2.48-3.28,4.93-4.91,7.41c-0.19,0.29-0.31,0.66-0.37,1.01c-0.31,1.76-0.49,3.56-0.91,5.29
		c-0.4,1.65-0.14,3.03,0.83,4.41c0.75,1.06,0.55,1.98-0.31,2.45c-0.82,0.45-1.59,0.13-2.22-0.95c-1.47-2.53-2.99-5.03-4.37-7.61
		c-0.36-0.67-0.47-1.6-0.37-2.37c0.31-2.2,0.74-4.39,1.22-6.57c0.1-0.46,0.55-1.07,0.96-1.18c1.35-0.35,2.06-1.33,2.72-2.39
		c0.88-1.41,0.81-1.75-0.42-2.84c-1.9,1.01-3.78,1.96-5.61,3c-0.36,0.21-0.64,0.7-0.78,1.13c-0.49,1.57-0.88,3.17-1.35,4.74
		c-1.05,3.58-0.68,6.97,1.01,10.31c1.84,3.64,2.88,7.52,2.55,11.65c-0.13,1.62-0.55,3.21-0.85,4.88c0.14,0.07,0.37,0.17,0.6,0.28
		c3.72,1.77,7.13,4,10.21,6.74c0.82,0.73,0.91,1.48,0.32,2.21c-0.55,0.67-1.41,0.67-2.24,0.04c-1.36-1.04-2.67-2.18-4.12-3.07
		c-2.24-1.35-4.59-2.51-6.87-3.79c-0.51-0.28-1.06-0.65-1.35-1.12c-0.69-1.11-1.23-2.31-1.85-3.53c-0.94,0.46-1.81,0.55-2.36-0.41
		c-0.57-0.98,0.03-1.62,0.75-2.23c0.81-0.69,1.19-1.6,0.8-2.65c-0.96-2.56-1.86-5.15-2.96-7.65c-0.66-1.51-2.76-2.32-4.64-1.99
		c0.22,0.95,0.46,1.89,0.66,2.83c0.31,1.5,0.6,3,0.88,4.5c0.17,0.91,0.14,1.89,0.46,2.73c1.41,3.65,2.44,7.37,2.27,11.31
		c-0.04,0.99,0.23,1.77,0.81,2.52c1.65,2.13,3.32,4.25,4.89,6.43c1.58,2.2,3.11,4.43,4.53,6.73c1.23,1.98,2.01,4.12,1.91,6.53
		c-0.16,3.73-0.2,7.46-0.29,11.19c-0.04,1.7-0.07,1.76,1.57,2.14c0.47,0.11,1.11-0.12,1.56-0.38c2.21-1.28,4.44-2.12,6.94-0.8
		c0.15,0.08,0.35,0.09,0.53,0.09C70.19,84.25,72.05,84.24,74,84.24z"/>
	<path d="M67.59,94.31c-1.96-0.04-3.52-0.25-4.72-1.59c-0.2-0.22-0.96-0.26-1.24-0.06c-4.63,3.32-10.2,2.97-15.4,4.02
		c-1.08,0.22-1.85-0.34-1.97-1.24c-0.12-0.89,0.48-1.53,1.59-1.72c3.6-0.61,7.21-1.18,10.8-1.85c0.72-0.13,1.36-0.63,2.06-0.93
		c1.19-0.51,2.36-1.13,3.6-1.45c1.04-0.27,1.95,0.29,2.74,1.05c0.4,0.38,1.06,0.71,1.6,0.7c1.82-0.01,3.65-0.12,5.47-0.31
		c1.52-0.16,2.9-0.1,4.07,1.06c0.27,0.26,0.8,0.33,1.21,0.36c2.12,0.15,4.06,0.61,5.77,2.05c1.24,1.05,2.88,0.9,4.43,0.79
		c0.94-0.06,1.61,0.3,1.74,1.26c0.13,0.89-0.33,1.52-1.23,1.65c-2.46,0.35-4.86,0.14-6.89-1.42c-1.08-0.83-2.21-1.21-3.52-1.29
		c-1.35-0.09-2.68-0.24-3.75-1.28c-0.28-0.27-0.95-0.23-1.44-0.2C70.76,94.01,69.02,94.18,67.59,94.31z"/>
	<path d="M49.85,82.59c0.02,3.07-2.64,4.81-5.41,3.49c-1.48-0.71-2.93-0.78-4.46-0.72c-2.87,0.11-4.77-1.87-4.53-4.74
		c0.13-1.5,1.17-2.57,2.95-2.71c1.52-0.11,3.07-0.07,4.58,0.11c1.52,0.18,3.02,0.55,4.5,0.94c1.93,0.51,2.12,0.8,2.32,2.78
		C49.84,82.07,49.84,82.4,49.85,82.59z M46.77,83.44c0.1-0.1,0.21-0.21,0.31-0.31c-0.27-0.5-0.47-1.36-0.82-1.43
		c-2.28-0.43-4.6-0.71-6.91-0.97c-0.28-0.03-0.6,0.32-0.91,0.5c0.31,0.4,0.56,0.87,0.94,1.16c0.2,0.15,0.63-0.02,0.96-0.02
		c1.75-0.02,3.5-0.06,5.1,0.9C45.79,83.49,46.32,83.4,46.77,83.44z"/>
	<path d="M86.54,82.03c-1.14-0.41-2.38-0.67-3.41-1.28c-1.38-0.8-1.59-2.1-0.61-3.36c0.73-0.94,1.64-1.76,2.56-2.52
		c0.84-0.7,1.76-1.3,2.69-1.87c1.68-1.02,3.47-0.7,4.47,0.98c0.65,1.1,1.04,2.4,1.33,3.66c0.11,0.48-0.26,1.2-0.63,1.63
		C91.3,81.19,89.04,81.69,86.54,82.03z M85.39,78.41c0.05,0.16,0.11,0.32,0.16,0.47c1.19-0.17,2.42-0.19,3.56-0.53
		c1.74-0.53,1.84-1.68,0.3-2.95C88.08,76.39,86.73,77.4,85.39,78.41z"/>
</g>
<text transform="matrix(1 0 0 1 20.6969 113.6741)"><tspan x="0" y="0" class="st0 st1">Monster Squad </tspan><tspan x="33.36" y="20.27" class="st0 st1">DAO</tspan></text>
</svg>
