<svg id="Layer_1" data-name="Layer 1" xmlns="http://www.w3.org/2000/svg" viewBox="0 0 19.91 19.14"><path d="M20,14.16a.58.58,0,0,0-.05.14,1.57,1.57,0,0,1-.78,1.19c-1.56.94-3.11,1.9-4.68,2.81a18,18,0,0,1-1.93.93,2.2,2.2,0,0,1-1.69,0c-1-.4-2-.83-3-1.26-.36-.15-.71-.32-1.07-.45a1.47,1.47,0,0,0-1.11.08c-.51.21-1,.47-1.51.71L2.86,19a1,1,0,0,1-1.54-.63L.12,14.48A1,1,0,0,1,.9,13c1.63-.5,3.25-1,4.89-1.47A10,10,0,0,1,7,11.35c0-.24,0-.5,0-.75a12.5,12.5,0,0,1,.17-2.13A4.86,4.86,0,0,1,10.7,4.82,1.63,1.63,0,0,1,11,4.75a1.85,1.85,0,0,0-.27-1.37c-.3-.37-.54-.79-.81-1.18A.47.47,0,0,1,10,1.51L11,.43a.43.43,0,0,1,.63-.07l1,.64A.3.3,0,0,0,13,1c.29-.21.59-.4.89-.58a.53.53,0,0,1,.79.11l.95,1a.49.49,0,0,1,.05.73c-.28.4-.54.81-.82,1.2a1.08,1.08,0,0,0-.24.79c0,.17,0,.35,0,.53a5,5,0,0,1,2.55,1.47A4.85,4.85,0,0,1,18.5,9.58c0,.28,0,.55,0,.83a.42.42,0,0,1-.45.47.43.43,0,0,1-.44-.49,5.83,5.83,0,0,0-.21-2,4.18,4.18,0,0,0-3.95-2.84,17.38,17.38,0,0,0-2,.06,4.1,4.1,0,0,0-3.53,4c0,.54,0,1.09,0,1.64,0,.16.06.21.21.27.67.28,1.32.59,2,.87a15.58,15.58,0,0,0,1.61.6,1.39,1.39,0,0,0,.7,0,1.69,1.69,0,0,1,1.79.65.31.31,0,0,0,.41.12l3.45-1a1.37,1.37,0,0,1,1.89,1.17s0,0,0,.06ZM2.22,18.23l.8-.41c.75-.37,1.49-.77,2.26-1.1a2.35,2.35,0,0,1,1.84-.07c1,.44,2.08.88,3.11,1.34,1.4.62,1.62.66,3-.07s2.66-1.54,4-2.33c.52-.31,1-.62,1.56-.95a.77.77,0,0,0,.28-.89c-.11-.21-.39-.27-.74-.17l-3.36,1c-.24.07-.45.13-.51.41a.63.63,0,0,1-.22.27,4.29,4.29,0,0,1-2.16,1,2.51,2.51,0,0,1-1.36-.07L9,15.68A.5.5,0,0,1,8.59,15c.1-.25.35-.33.67-.22.53.18,1.05.38,1.58.54a3,3,0,0,0,2.71-.69.36.36,0,0,0,.07-.32.89.89,0,0,0-.91-.49,3,3,0,0,1-2-.19c-.51-.23-1-.5-1.53-.72a10.15,10.15,0,0,0-1.5-.59,3.56,3.56,0,0,0-1.91.13L1.11,13.9c-.17,0-.19.14-.14.29.3.93.58,1.86.87,2.79C2,17.38,2.09,17.78,2.22,18.23Zm9.26-16.9-.66.59c.2.31.38.6.59.87a.29.29,0,0,0,.23.12H14a.29.29,0,0,0,.22-.09c.21-.28.4-.57.61-.88l-.62-.61c-.34.21-.68.41-1,.64a.54.54,0,0,1-.7,0Zm2.18,3.34V3.83H11.94v.84Z" transform="translate(-0.04 -0.25)"/><path d="M12.45,6.88c.05-.35-.12-.83.47-.86.32,0,.4.16.45.85l.27.06A1.1,1.1,0,0,1,14.46,8a.44.44,0,0,1-.38.47.43.43,0,0,1-.5-.37.3.3,0,0,0-.36-.29h-.9c-.19,0-.3.08-.29.28s0,.29,0,.43c0,.33.07.39.41.39h1a1,1,0,0,1,1,.88,4.19,4.19,0,0,1,0,.79,1.14,1.14,0,0,1-1.11,1.22v.38a.46.46,0,0,1-.45.49.45.45,0,0,1-.44-.49c0-.12,0-.24,0-.4h-.29a1.08,1.08,0,0,1-1-1.1.42.42,0,0,1,.36-.45.41.41,0,0,1,.51.32c0,.31.21.35.46.34h.79a.27.27,0,0,0,.31-.3c0-.79,0-.79-.73-.79h-.61a1.08,1.08,0,0,1-1.09-1.1V8.07A1.07,1.07,0,0,1,12.28,6.9Z" transform="translate(-0.04 -0.25)"/><path d="M18.57,11.75a.42.42,0,0,1-.44.45.45.45,0,0,1-.46-.46.41.41,0,0,1,.46-.4A.39.39,0,0,1,18.57,11.75Z" transform="translate(-0.04 -0.25)"/></svg>