<?xml version="1.0" encoding="utf-8"?>
<!-- Generator: Adobe Illustrator 26.0.1, SVG Export Plug-In . SVG Version: 6.00 Build 0)  -->
<svg version="1.1" id="Layer_1" xmlns="http://www.w3.org/2000/svg" xmlns:xlink="http://www.w3.org/1999/xlink" x="0px" y="0px"
	 viewBox="0 0 62 32" style="enable-background:new 0 0 62 32;" xml:space="preserve">
<style type="text/css">
	.st0{fill:#F5AC37;}
	.st1{fill:#FEFEFD;}
	.st2{fill:#FDFDFD;}
	.st3{fill:#FDFEFD;}
	.st4{fill:#EDF5E7;}
	.st5{fill:#9AE36B;}
	.st6{fill:#549F25;}
	.st7{fill:#9AE46C;}
	.st8{fill:#529E20;}
	.st9{fill:#7CC72E;}
	.st10{fill:#EAF4E4;}
	.st11{fill:#90DA38;}
	.st12{fill:#72BD2A;}
	.st13{fill:#9AE46B;}
	.st14{fill:#D1753D;}
	.st15{fill:#D1743D;}
	.st16{fill:#91DA39;}
	.st17{fill:#C93731;}
</style>
<circle class="st0" cx="45.2" cy="16" r="16"/>
<path class="st1" d="M47,17.1H53c0.1,0,0.2,0,0.2-0.2c0-0.6,0-1.2,0-1.9c0-0.1-0.1-0.2-0.2-0.2H40.9c-0.1,0-0.2,0-0.2,0.2v1.8
	c0,0.2,0,0.2,0.2,0.2H47z M52.6,12.8c0,0,0-0.1,0-0.1c-0.1-0.2-0.2-0.4-0.4-0.6c-0.2-0.3-0.5-0.7-0.7-0.9c-0.1-0.2-0.3-0.3-0.5-0.4
	c-0.9-0.7-1.9-1.3-3-1.5C47.4,9,46.9,9,46.3,9h-5.4c-0.1,0-0.2,0.1-0.2,0.2v3.5c0,0.1,0,0.2,0.2,0.2L52.6,12.8
	C52.5,12.9,52.6,12.9,52.6,12.8L52.6,12.8L52.6,12.8z M52.6,19.2c-0.2,0-0.3,0-0.5,0H41c-0.1,0-0.2,0-0.2,0.2v3.5
	c0,0.2,0,0.2,0.2,0.2h5.1c0.2,0,0.5,0,0.7,0c0.7-0.1,1.5-0.2,2.2-0.5c0.3-0.1,0.5-0.2,0.7-0.3h0.1c1.2-0.6,2.2-1.6,2.8-2.8
	C52.6,19.4,52.6,19.2,52.6,19.2L52.6,19.2z M38.7,24.9L38.7,24.9v-2.4v-0.8v-2.4c0-0.1,0-0.1-0.2-0.1h-2.2c-0.1,0-0.2,0-0.2-0.2
	v-1.9h2.3c0.1,0,0.2,0,0.2-0.2v-1.9c0-0.1,0-0.1-0.2-0.1h-2.2c-0.1,0-0.2,0-0.2-0.2V13c0-0.1,0-0.1,0.2-0.1h2.2c0.1,0,0.2,0,0.2-0.2
	V7.3c0-0.2,0-0.2,0.2-0.2h7.5c0.5,0,1.1,0.1,1.6,0.2c1.1,0.2,2.2,0.6,3.1,1.2c0.6,0.4,1.2,0.8,1.8,1.4c0.4,0.4,0.8,0.9,1.1,1.3
	c0.3,0.5,0.6,1,0.8,1.5c0,0.1,0.2,0.2,0.3,0.2h1.8c0.2,0,0.2,0,0.2,0.2v1.6c0,0.2-0.1,0.2-0.2,0.2h-1.4c-0.1,0-0.2,0-0.2,0.2
	c0.1,0.6,0.1,1.2,0,1.8c0,0.2,0,0.2,0.2,0.2h1.6c0.1,0.1,0,0.2,0,0.3c0,0.1,0,0.2,0,0.3v1.2c0,0.2,0,0.2-0.2,0.2H55
	c-0.1,0-0.3,0.1-0.3,0.2c-0.4,1.2-1.2,2.2-2.1,3.1c-0.3,0.3-0.7,0.6-1.1,0.9c-0.4,0.2-0.8,0.5-1.2,0.7c-0.8,0.3-1.5,0.6-2.4,0.7
	c-0.8,0.1-1.6,0.2-2.3,0.2L38.7,24.9L38.7,24.9L38.7,24.9z"/>
<g>
	<path class="st2" d="M29.1,16.5c0,5.2-25.4,8.4-25.4,4.9l0,0c0,0,0,0,0,0c0.1,0.4,0.1,0.9,0.2,1.3c0,0.3,0.1,0.5,0.3,0.7
		c0.2,0.2,0.3,0.1,0.4-0.1c0.2-0.3,0.2-0.6,0.2-1c0-1.1,0-2.2,0.2-3.3c0-0.1,0-0.3,0.1-0.4c0.1,0.1,0.1,0.2,0.1,0.4
		c0,1.1,0.1,2.2,0.1,3.4c0,0.3,0,0.6,0.1,0.9c0.2,1,0.5,1.9,1,2.8c0.2,0.4,0.4,0.7,0.9,0.8C7.8,27,8.2,27,8.6,26.8
		c0.4-0.2,0.7-0.6,0.9-1c0.2-0.3,0.3-0.7,0.4-1.1c0.1,0.2,0.1,0.3,0.1,0.4c0.1,0.4,0,0.8,0,1.2c0.1,0.5,0.1,0.9,0.2,1.4
		c0,1,0.2,2,0.5,3c0.1,0.5,0.4,0.9,0.7,1.2c0.1,0.1,0.2,0.2,0.3,0c0,0,0,0,0.1,0c0.1,0.1,0.3,0.1,0.5,0.1c0.2,0,0.4,0,0.6,0
		c0.4,0,0.8-0.1,1.1-0.4c0.1-0.1,0.1-0.2,0.3-0.2c0.1,0.1,0.2,0.1,0.3-0.1c0.1-0.2,0.2-0.4,0.2-0.7c0.2-0.6,0.4-1.2,0.5-1.8
		c0.2-1.1,0.2-2.3,0.3-3.4c0-0.2,0-0.3,0-0.5c0,0.1,0.1,0.1,0.1,0.1c0.1,0.5,0.3,1,0.4,1.6c0.1,0.5,0.2,0.9,0.6,1.3
		c0.1,0.1,0.2,0.2,0.4,0.1c0.2,0,0.3-0.2,0.3-0.3c0-0.4,0.1-0.7,0.1-1.1c0-0.1,0-0.2,0.1-0.3c0.1,0.6,0.1,1.1,0.2,1.6
		c0,0.4,0,0.8,0.1,1.3c0,0.1,0,0.3,0.2,0.2c0,0,0,0,0.1,0c0,0.1,0,0.2,0.1,0.3c0,0,0,0.1,0.1,0.1c0,0,0.1,0,0.1-0.1c0,0,0-0.1,0-0.1
		c0.1,0,0.2,0.1,0.2-0.1c0-0.4,0-0.8,0-1.1c-0.1-0.7-0.2-1.4-0.2-2.1c0-0.2,0-0.3,0.1-0.4c0-0.1,0-0.1,0.1-0.1
		c0.1,0,0.1,0.1,0.1,0.1c0.1,0.4,0.1,0.7,0.1,1.1c0,0.5,0.1,1.1,0.3,1.6c0.1,0.4,0.3,0.7,0.6,1c0.2,0.2,0.3,0.3,0.6,0.3
		c0.7,0.1,1.2-0.2,1.7-0.7c0.1-0.1,0.3-0.3,0.4-0.5c0.2-0.5,0.3-1.1,0.4-1.7c0.1-0.6,0-1.1,0.1-1.7c0,0,0-0.1,0.1-0.1
		c0.1,0.1,0.1,0.2,0.2,0.3c0.2,0.2,0.3,0.4,0.5,0.5c0.2,0.1,0.2,0.2,0.2,0.4c-0.2,0.6-0.2,1.2-0.2,1.9c0,0.3,0.1,0.6,0.2,0.9
		c0.3,0.5,0.7,0.7,1.2,0.6c0.4,0,1.1-0.6,1.2-1c0,0,0,0,0-0.1c0.1-0.4,0.1-0.8,0.2-1.1c0.1-0.8,0.2-1.6,0.4-2.3
		c0.1-0.4,0.2-0.8,0.4-1.1c0.1,0.2,0.1,0.3,0.1,0.5c0,0.4,0,0.7,0,1.1c0,0.3,0.2,0.4,0.5,0.3c0.1,0,0.2-0.1,0.3-0.3c0,0,0,0,0.1,0
		c0,0.1,0,0.2,0,0.3c0.1,0.3,0.1,0.5,0.1,0.8c0,0.1,0,0.2,0,0.3c0,0.1,0.1,0.3,0.2,0.3c0.1,0.1,0.3,0,0.4-0.1
		c0.2-0.2,0.3-0.5,0.3-0.7c0.1-1.1,0-2.1-0.1-3.2c0-0.6,0-1.2,0-1.7c0.1-0.8,0.2-1.5,0.1-2.3C28.8,18.3,28.9,17.4,29.1,16.5
		L29.1,16.5L29.1,16.5z"/>
	<path class="st3" d="M3.7,18.9c0-6,25.4-8.8,25.4-4.3c0,0,0,0,0,0c-0.1-0.6-0.2-1.3-0.2-1.9c-0.1-1.3-0.7-2.5-1.1-3.8
		c-0.1-0.5-0.4-0.9-0.6-1.4c-0.2-0.7-0.6-1.4-1-2c-0.5-0.8-1.1-1.5-1.8-2.1c-0.3-0.3-0.6-0.6-1-0.8c-0.9-0.6-1.9-1.1-2.9-1.3
		c-1.4-0.4-2.9-0.5-4.4-0.5C15.1,0.9,14,1.2,13,1.5C12.3,1.7,11.6,2,11,2.4c-0.2,0.1-0.3,0.2-0.5,0.3C9.8,3.2,9,3.7,8.3,4.4
		C7.7,5,7.1,5.6,6.6,6.4c-0.5,0.9-1,1.7-1.3,2.7c-0.2,0.5-0.3,1-0.5,1.5c-0.2,0.7-0.4,1.5-0.5,2.2c-0.1,0.6-0.2,1.1-0.3,1.7
		c-0.1,0.7-0.3,1.5-0.3,2.2C3.8,17.5,3.7,18.2,3.7,18.9C3.7,18.9,3.7,18.9,3.7,18.9z"/>
	<path class="st4" d="M3.7,18.9c0,0.8,0,1.7,0,2.5l0,0l0,0C3.7,20.6,3.7,18.9,3.7,18.9z"/>
	<path class="st4" d="M29,14.6C29.1,14.6,29.1,14.6,29,14.6c0,0.6,0,1.2,0,1.8l0,0l0,0C29,15.9,29,15.2,29,14.6z"/>
	<path class="st5" d="M18.4,29.6c0,0,0,0.1,0,0.1c0,0,0,0.1-0.1,0.1c-0.1,0-0.1-0.1-0.1-0.1c0-0.1,0-0.2-0.1-0.3
		C18,28.6,18,27.8,17.9,27c0-0.3,0-0.6-0.1-0.9c0-0.2-0.1-0.3-0.3-0.3c-0.2,0-0.3,0.1-0.3,0.3c0,0.4-0.1,0.9-0.1,1.3
		c0,0.1,0,0.1-0.1,0.2c-0.1,0-0.1,0-0.2-0.1c-0.2-0.3-0.4-0.7-0.4-1c-0.1-0.3-0.1-0.6-0.2-0.9c-0.2-0.8-0.5-1.7-0.4-2.5
		c0.3,0,0.6,0,0.9,0c0.8,0,1.6-0.1,2.4-0.2c0.9,0,1.7-0.3,2.5-0.6c0.5-0.2,1-0.5,1.5-0.9c0.7-0.6,1.3-1.3,1.7-2.1
		c0.1,0.2,0.2,0.4,0.3,0.7c0.2,0.5,0.8,0.7,1.2,0.4c0.2-0.1,0.3-0.3,0.4-0.4c0.7-1,0.9-2.1,0.8-3.2c-0.1-1.2-0.4-2.3-0.5-3.5
		c0-0.3-0.1-0.6,0.1-0.9c0.1,0.1,0.1,0.2,0.1,0.3c0.1,0.3,0.1,0.6,0.3,0.9c0.1,0.2,0.2,0.3,0.4,0.2c0.2,0,0.3-0.1,0.4-0.3
		c0.1-0.2,0-0.5,0.1-0.7c0,0,0-0.1-0.1-0.1c-0.1,0-0.1,0-0.1,0.1C28,12.7,28,12.8,28,12.9c0,0.1,0,0.2,0,0.3c0,0.1,0,0.2-0.1,0.2
		c-0.1,0-0.1-0.1-0.2-0.1c-0.1-0.1-0.1-0.2-0.1-0.3c-0.1-0.3-0.1-0.5-0.3-0.7C27.2,12.1,27.1,12,27,12c-0.1,0-0.2,0.1-0.3,0.2
		c0,0.1,0,0.1,0,0.2c-0.1,0.3,0,0.5,0,0.8c0,0.5,0.1,0.9,0.1,1.4c0.1,0.7,0.3,1.3,0.3,2c0.1,0.9,0,1.8-0.5,2.6
		c-0.2,0.3-0.3,0.6-0.7,0.9c-0.3,0.2-0.6,0.1-0.8-0.2c-0.2-0.3-0.3-0.7-0.3-1c0.3-0.6,0.7-1.2,1-1.8c0.4-0.7,0.5-1.5,0.6-2.3
		c0-0.7,0.1-1.5,0-2.2c0-0.2,0-0.4-0.1-0.5c0.1-0.5,0.2-0.9,0.2-1.4c-0.1-0.5-0.1-1-0.2-1.5c-0.2-0.8-0.6-1.4-0.9-2.1
		c-0.3-0.7-0.8-1.3-1.3-1.8c-0.2-0.3-0.5-0.4-0.8-0.1c0,0-0.1,0.1-0.1,0.1c-0.2,0-0.3-0.2-0.4-0.2c0.1-0.2,0.2-0.5,0.2-0.7
		c0-0.7-1-1.5-1.7-1c-0.2,0.1-0.3,0.2-0.5,0.4c0,0-0.1,0-0.1,0c-0.4-0.2-0.9-0.3-1.3-0.5C18.9,3,18.5,3.1,18.2,3
		c-0.8-0.2-1.7-0.2-2.5,0c-1,0.2-2,0.6-3,1c-0.5,0.3-1,0.6-1.5,0.9c-0.4,0.3-0.9,0.6-1.3,1C9.8,6.1,9.6,6.3,9.4,6.6
		c-0.3,0.3-0.5,0.6-0.7,1C8.4,8,8.3,8.4,8.1,8.8c-0.2,0.5-0.4,1-0.6,1.5c-0.2,0.5-0.3,1.1-0.3,1.6C7,12.5,7,13,7,13.5
		c0,0.1,0,0.2-0.2,0.2c-0.1,0-0.1-0.1-0.2-0.1c-0.1-0.1-0.1-0.3-0.1-0.4c0-0.3,0.1-0.5,0-0.8c0-0.1,0-0.3-0.2-0.3
		c-0.1,0-0.2,0.1-0.3,0.2C6.1,12.3,6,12.5,6,12.6c-0.1,0.3-0.2,0.6-0.4,0.8c-0.2,0.2-0.3,0.2-0.6,0.2c-0.2-0.1-0.3-0.2-0.4-0.4
		c-0.1-0.3,0-0.5,0.1-0.8c0.2-1.1,0.6-2.1,0.9-3.2c0.2-0.8,0.7-1.5,1.1-2.3C6.8,6.5,7,6.2,7.3,5.8C7.6,5.6,7.8,5.3,8,5
		c0.5-0.6,1.1-1.1,1.8-1.5c0.4-0.3,0.9-0.5,1.3-0.8c0.2-0.2,0.4-0.3,0.7-0.4c0.8-0.4,1.7-0.7,2.6-0.9c0.9-0.2,1.8-0.3,2.7-0.2
		c0.8,0,1.6,0.1,2.4,0.2c0.6,0.1,1.2,0.3,1.7,0.5c0.7,0.2,1.4,0.6,2,1c0.5,0.3,1,0.7,1.4,1.1c0.2,0.2,0.3,0.4,0.4,0.5
		c0.4,0.4,0.7,0.9,1.1,1.4c0.5,0.8,0.8,1.7,1.2,2.5c0.3,0.7,0.5,1.5,0.7,2.2c0.3,0.9,0.6,1.9,0.6,2.8c0,0.7,0.2,1.3,0.2,2
		c0,0.2-0.1,0.4,0,0.6c0,0.2,0,0.4,0,0.6c-0.1,0.7-0.2,1.5-0.2,2.2c0,0.5,0.1,1,0,1.5c-0.1,0.9-0.2,1.7-0.2,2.6
		c0,1.1,0.1,2.1,0.1,3.2c0,0.1,0,0.3,0,0.4c0,0.2,0,0.4-0.2,0.5c0,0.1-0.1,0.1-0.2,0.1c-0.1,0,0-0.1,0-0.2c0-0.2,0-0.5,0-0.7
		c0-0.2-0.1-0.3-0.1-0.5c0.1-0.4-0.1-0.7,0-1.1c0-0.4,0-0.7,0-1.1c0-0.3,0.1-0.6,0-0.9c0-0.1,0-0.1-0.1-0.1c-0.1,0-0.2,0-0.2,0.1
		c-0.1,0.1-0.1,0.3-0.1,0.4c0,0.5,0,0.9,0,1.4c0,0.4,0,0.7,0,1.1c0,0.1,0,0.2-0.1,0.2c-0.1,0-0.1-0.1-0.1-0.2c0-0.6,0-1.2,0-1.9
		c0-0.1,0-0.3-0.2-0.3c-0.2,0-0.2,0.1-0.3,0.2c-0.1,0.2-0.2,0.5-0.2,0.7c-0.1,0.5-0.3,1-0.4,1.4c-0.1,0.6-0.2,1.1-0.2,1.7
		c-0.1,0.4-0.1,0.8-0.2,1.3c0,0.1,0,0.1-0.1,0.2c-0.2,0.2-0.4,0.4-0.6,0.6c-0.1,0.1-0.2,0.1-0.3,0.1c-0.6,0-1-0.4-1.1-1
		c-0.1-0.6,0-1.2,0.1-1.8c0-0.3,0.1-0.5,0.2-0.8c0.1-0.2,0-0.3-0.2-0.3c-0.1,0-0.1,0-0.2,0c-0.3-0.3-0.6-0.6-0.7-1
		c0-0.3-0.1-0.6-0.1-0.9c0-0.1,0-0.2-0.2-0.1c-0.1,0-0.1,0.1-0.1,0.2c0,0.1,0,0.1,0,0.2c0.1,0.8-0.1,1.7-0.1,2.5
		c0,0.6-0.1,1.1-0.3,1.7c-0.1,0.7-0.9,1.3-1.5,1.4c-0.4,0.1-0.7,0-1-0.4c-0.2-0.3-0.4-0.7-0.5-1c-0.2-0.5-0.2-1-0.2-1.5
		c0-0.3,0-0.6-0.1-0.8c0-0.1-0.1-0.3-0.2-0.3c-0.2-0.1-0.4,0-0.5,0.2c-0.2,0.5-0.1,1,0,1.5c0.1,0.7,0.2,1.5,0.2,2.2
		C18.3,29.4,18.3,29.5,18.4,29.6z M26.4,17.8c0,0.6-0.2,1.1-0.7,1.5c-0.1,0.1-0.1,0.1-0.1,0.2c0.1,0.1,0.1,0.1,0.3,0.1
		c0.1-0.1,0.2-0.1,0.3-0.2c0.4-0.6,0.6-1.2,0.6-1.9c0-0.1-0.1-0.2-0.2-0.2c-0.1,0-0.2,0.1-0.2,0.2C26.4,17.6,26.4,17.7,26.4,17.8z
		 M24.5,28.8c0.2,0,0.3-0.1,0.4-0.3c0-0.1,0.1-0.2-0.1-0.3c-0.1-0.1-0.2,0-0.3,0.1c-0.1,0.1-0.2,0.1-0.2,0c-0.1-0.1-0.1-0.3-0.1-0.4
		c0-0.1,0-0.2-0.1-0.2c-0.1,0-0.2,0-0.2,0.1C24,27.8,23.9,27.9,24,28c0.1,0.2,0.1,0.4,0.3,0.6C24.3,28.7,24.4,28.8,24.5,28.8z
		 M25.3,18.7c-0.1,0-0.2,0.1-0.2,0.2c0,0.1,0.1,0.2,0.2,0.2c0.1,0,0.2-0.1,0.2-0.2C25.5,18.8,25.4,18.7,25.3,18.7z M25.6,27.4
		c0.1,0,0.2-0.1,0.2-0.2c0-0.1-0.1-0.2-0.2-0.2c-0.1,0-0.2,0.1-0.2,0.2C25.4,27.3,25.5,27.3,25.6,27.4z M25.2,28.2
		c0.1,0,0.2-0.1,0.2-0.2c0-0.1-0.1-0.2-0.2-0.2c-0.1,0-0.2,0.1-0.2,0.2C25,28.1,25.1,28.1,25.2,28.2z"/>
	<path class="st6" d="M18.4,29.6c0-0.1,0-0.1,0-0.2c0-0.7-0.1-1.5-0.2-2.2c-0.1-0.5-0.2-1,0-1.5c0.1-0.2,0.3-0.3,0.5-0.2
		c0.2,0,0.2,0.2,0.2,0.3c0,0.3,0.1,0.6,0.1,0.8c0,0.5,0,1,0.2,1.5c0.1,0.4,0.3,0.7,0.5,1c0.3,0.4,0.6,0.4,1,0.4
		c0.6-0.1,1.4-0.7,1.5-1.4c0.1-0.6,0.3-1.1,0.3-1.7c0-0.8,0.2-1.7,0.1-2.5c0-0.1,0-0.1,0-0.2c0-0.1,0-0.2,0.1-0.2
		c0.1,0,0.1,0.1,0.2,0.1c0,0.3,0.1,0.6,0.1,0.9c0.1,0.4,0.3,0.8,0.7,1c0.1,0.1,0.1,0.1,0.2,0c0.2-0.1,0.3,0,0.2,0.3
		c-0.1,0.3-0.1,0.5-0.2,0.8c-0.1,0.6-0.2,1.2-0.1,1.8c0.1,0.6,0.5,1,1.1,1c0.1,0,0.2,0,0.3-0.1c0.2-0.2,0.4-0.4,0.6-0.6
		c0,0,0.1-0.1,0.1-0.2c0.1-0.4,0.1-0.8,0.2-1.3c0.1-0.6,0.1-1.1,0.2-1.7c0.1-0.5,0.2-1,0.4-1.4c0.1-0.2,0.1-0.5,0.2-0.7
		c0.1-0.1,0.1-0.3,0.3-0.2c0.2,0,0.2,0.2,0.2,0.3c0,0.6,0,1.2,0,1.9c0,0.1,0,0.2,0.1,0.2c0.1,0,0.1-0.1,0.1-0.2c0-0.4,0-0.7,0-1.1
		c0-0.5,0-0.9,0-1.4c0-0.2,0.1-0.3,0.1-0.4c0-0.1,0.1-0.1,0.2-0.1c0.1,0,0.1,0.1,0.1,0.1c0.1,0.3,0,0.6,0,0.9c0,0.4,0,0.7,0,1.1
		c0,0.4,0.1,0.7,0,1.1c0,0.2,0.1,0.3,0.1,0.5c0,0.2,0,0.5,0,0.7c0,0.1,0,0.1,0,0.2c0.1,0,0.1,0,0.2-0.1c0.1-0.2,0.1-0.4,0.2-0.5
		c0-0.1,0-0.3,0-0.4c0-1.1,0-2.1-0.1-3.2c0-0.9,0.1-1.7,0.2-2.6c0.1-0.5,0-1,0-1.5c0-0.7,0.1-1.5,0.2-2.2c0-0.2,0-0.4,0-0.6
		c0-0.2,0-0.4,0-0.6c0-0.7-0.1-1.3-0.2-2c-0.1-1-0.3-1.9-0.6-2.8c-0.3-0.7-0.4-1.5-0.7-2.2c-0.4-0.8-0.7-1.7-1.2-2.5
		c-0.3-0.5-0.7-1-1.1-1.4c-0.2-0.2-0.3-0.3-0.4-0.5c-0.4-0.4-0.9-0.8-1.4-1.1c-0.6-0.4-1.3-0.8-2-1c-0.6-0.2-1.1-0.4-1.7-0.5
		c-0.8-0.1-1.6-0.2-2.4-0.2c-0.9,0-1.8,0-2.7,0.2c-0.9,0.2-1.7,0.5-2.6,0.9c-0.2,0.1-0.5,0.2-0.7,0.4C10.7,3,10.2,3.2,9.8,3.5
		C9.2,3.9,8.6,4.4,8,5C7.8,5.3,7.6,5.6,7.3,5.8C7,6.2,6.8,6.5,6.6,6.9C6.2,7.7,5.8,8.4,5.5,9.2c-0.3,1.1-0.7,2.1-0.9,3.2
		c0,0.3-0.1,0.5-0.1,0.8c0,0.2,0.2,0.4,0.4,0.4c0.2,0.1,0.4,0,0.6-0.2c0.2-0.2,0.3-0.5,0.4-0.8c0.1-0.2,0.1-0.3,0.2-0.5
		C6.2,12.1,6.3,12,6.4,12c0.1,0,0.2,0.2,0.2,0.3c0,0.3,0,0.5,0,0.8c0,0.2,0,0.3,0.1,0.4c0,0.1,0.1,0.1,0.2,0.1C7,13.7,7,13.6,7,13.5
		c0.1-0.1,0.1-0.3,0.1-0.4c0-0.1,0.1-0.2,0.2-0.3c0.1,0,0.2,0.1,0.1,0.2c-0.1,0.3-0.1,0.5-0.2,0.8C7.1,13.8,7,13.9,7,13.9
		c-0.2,0-0.4-0.1-0.5-0.3c-0.1-0.2-0.2-0.4-0.2-0.6c0-0.2,0-0.4,0-0.6c-0.1,0-0.1,0.1-0.1,0.1C6.1,13,6,13.2,5.8,13.5
		c-0.3,0.4-0.9,0.5-1.2,0.2c-0.1-0.1-0.1,0-0.1,0.1c0,0.2-0.1,0.4-0.1,0.6C4.2,15.1,4,15.9,4,16.6c0,0.9-0.1,1.7-0.1,2.6
		c0,0.8-0.1,1.6,0,2.5c0,0.4,0.1,0.9,0.2,1.3c0,0.1,0.1,0.3,0.2,0.3c0.1,0,0.1-0.2,0.1-0.3c0.1-0.4,0.1-0.8,0.1-1.3
		c0-0.7,0-1.4,0.1-2c0-0.3,0-0.6,0.1-0.9c0.1-0.3,0.2-0.4,0.4-0.4c0.2,0,0.3,0.2,0.3,0.5c0,0.6,0,1.3,0,1.9c0,0.5,0,1,0.1,1.4
		c0,0.3,0,0.7,0.1,1c0.2,1,0.5,1.9,1,2.8c0.2,0.4,0.5,0.7,0.9,0.7c0.8,0.1,1.2-0.1,1.7-0.8c0.3-0.5,0.5-1,0.6-1.5
		c0-0.1,0-0.2-0.1-0.3c-0.2-0.2-0.4-0.4-0.5-0.7C9,23,9,22.6,8.9,22.2c0-0.1,0-0.2,0.1-0.2c0.1,0,0.2,0.1,0.2,0.1c0,0.1,0,0.1,0,0.2
		c0,0.3,0.1,0.7,0.2,1c0.1,0.2,0.2,0.4,0.3,0.5c0.1,0.1,0.2,0.2,0.4,0.2c0.2,0,0.2-0.2,0.2-0.3c0,0,0-0.1,0-0.1
		c0.1-0.2,0.1-0.5,0.1-0.7c0.1-0.5,0-1.1,0.1-1.6c0-0.1,0-0.2,0-0.3c0-0.2,0-0.5,0-0.7c0,0,0-0.1,0-0.1c0-0.1,0-0.1,0-0.2
		c0-0.1,0.1-0.2,0.1-0.2c0,0,0.1,0,0.1,0c0,0,0.1,0,0.1-0.1c0.1,0,0.2,0,0.3,0c0.2,0.1,0.3,0.3,0.3,0.6c0,0.2,0,0.4,0,0.6
		c0,0.1,0,0.1,0.1,0.2c0.1,0,0.1-0.1,0.1-0.1c0,0,0-0.1,0-0.1c0.1-0.3,0-0.6,0.1-0.9c0.3-0.2,0.4-0.1,0.4,0.2c0,0.1,0,0.2,0.1,0.3
		c0,0.1,0.1,0.1,0.2,0.1c0.1,0,0.1-0.1,0.1-0.2c0-0.2,0-0.3,0-0.5c0-0.1,0-0.2,0.1-0.1c0.1,0,0.1,0.1,0.1,0.2c0,0.1,0,0.3,0,0.4
		c0,0.3-0.1,0.4-0.3,0.5c-0.2,0-0.4-0.1-0.5-0.4c0,0.1,0,0.2,0,0.3c0,0.1,0,0.2-0.1,0.3c-0.1,0.2-0.3,0.3-0.4,0.3
		c-0.2,0-0.3-0.2-0.4-0.4c0-0.1,0-0.1,0-0.2c0-0.2,0-0.4,0-0.5c0-0.1,0-0.2-0.1-0.3c-0.1,0-0.1,0.1-0.2,0.2c0,0,0,0.1-0.1,0.1
		c-0.1,0.3-0.1,0.7-0.1,1c0,0.1,0,0.2,0,0.3c0,0.6,0,1.1-0.1,1.6c0,0.4-0.1,0.7-0.4,1c-0.1,0.1-0.1,0.1,0,0.2
		c0.1,0.4,0.1,0.9,0.1,1.3c0,0.3,0,0.6,0,0.9c0.1,0.5,0.1,1,0.2,1.5c0,0.9,0.3,1.8,0.5,2.7c0.1,0.3,0.2,0.5,0.4,0.7
		c0.1,0.1,0.3,0.2,0.4,0.4c0,0-0.1,0-0.1,0c-0.1,0.2-0.2,0.1-0.3,0c-0.4-0.3-0.6-0.7-0.7-1.2c-0.3-1-0.5-2-0.5-3
		c0-0.5-0.1-0.9-0.2-1.4c0-0.4,0-0.8,0-1.2c0-0.1,0-0.3-0.1-0.4c-0.1,0.4-0.3,0.7-0.4,1.1c-0.2,0.4-0.5,0.8-0.9,1
		C8.2,27,7.8,27,7.3,26.9c-0.5-0.1-0.7-0.4-0.9-0.8c-0.5-0.9-0.9-1.8-1-2.8c0-0.3-0.1-0.6-0.1-0.9c0-1.1-0.1-2.2-0.1-3.4
		c0-0.1,0-0.2-0.1-0.4C5,18.8,5,18.9,5,19.1c-0.1,1.1-0.1,2.2-0.2,3.3c0,0.4-0.1,0.7-0.2,1c-0.1,0.2-0.2,0.3-0.4,0.1
		C4,23.2,3.9,23,3.9,22.7c-0.1-0.4-0.1-0.9-0.2-1.3c0-0.8,0-1.7,0-2.5c0-0.7,0.1-1.4,0.1-2.1c0-0.8,0.1-1.5,0.3-2.2
		c0.1-0.6,0.2-1.1,0.3-1.7c0.1-0.8,0.3-1.5,0.5-2.2c0.1-0.5,0.3-1,0.5-1.5c0.3-1,0.8-1.8,1.3-2.7C7.1,5.6,7.7,5,8.3,4.4
		C9,3.7,9.8,3.2,10.6,2.7c0.2-0.1,0.3-0.2,0.5-0.3C11.6,2,12.3,1.7,13,1.5c1-0.3,2.1-0.6,3.2-0.6c1.5-0.1,2.9,0.1,4.4,0.5
		c1,0.3,2,0.7,2.9,1.3c0.4,0.3,0.7,0.5,1,0.8c0.7,0.6,1.3,1.3,1.8,2.1c0.4,0.6,0.7,1.3,1,2c0.2,0.5,0.4,0.9,0.6,1.4
		c0.3,1.3,0.9,2.5,1.1,3.8c0.1,0.6,0.1,1.3,0.2,1.9c0,0.6,0,1.2,0,1.8c-0.2,0.9-0.3,1.9-0.2,2.8c0,0.8-0.1,1.5-0.1,2.3
		c0,0.6-0.1,1.2,0,1.7c0.1,1.1,0.1,2.1,0.1,3.2c0,0.3-0.1,0.5-0.3,0.7c-0.1,0.1-0.2,0.1-0.4,0.1c-0.1-0.1-0.2-0.2-0.2-0.3
		c0-0.1,0-0.2,0-0.3c0-0.3,0-0.5-0.1-0.8c0-0.1,0-0.2,0-0.3c0-0.1,0-0.2,0-0.4c0-0.2,0-0.4,0-0.5c0-0.3,0-0.6,0-0.9
		c0-0.3,0.1-0.6,0-1c-0.1,0.3,0,0.6-0.1,0.9c0,0.3,0,0.6,0,1c0,0.2,0,0.3,0,0.5c0,0.1,0,0.2,0,0.4c-0.1,0.1-0.1,0.2-0.3,0.3
		c-0.2,0.1-0.5-0.1-0.5-0.3c0-0.4,0-0.7,0-1.1c0-0.1,0-0.3-0.1-0.5c-0.2,0.4-0.2,0.8-0.4,1.1c-0.2,0.8-0.3,1.5-0.4,2.3
		c0,0.4-0.1,0.8-0.2,1.1c0,0,0,0,0,0.1c-0.1,0.4-0.8,1-1.2,1c-0.5,0-1-0.2-1.2-0.6c-0.2-0.3-0.2-0.6-0.2-0.9c0-0.6,0-1.3,0.2-1.9
		c0.1-0.2,0.1-0.3-0.2-0.4c-0.2-0.1-0.4-0.3-0.5-0.5c-0.1-0.1-0.1-0.2-0.2-0.3c-0.1,0-0.1,0.1-0.1,0.1c-0.1,0.6-0.1,1.1-0.1,1.7
		c-0.1,0.6-0.2,1.1-0.4,1.7c-0.1,0.2-0.2,0.3-0.4,0.5c-0.5,0.5-1,0.8-1.7,0.7c-0.2,0-0.4-0.1-0.6-0.3c-0.3-0.3-0.5-0.6-0.6-1
		c-0.2-0.5-0.3-1-0.3-1.6c0-0.4,0-0.7-0.1-1.1c0-0.1,0-0.1-0.1-0.1c-0.1,0-0.1,0.1-0.1,0.1c-0.1,0.1-0.1,0.3-0.1,0.4
		c0,0.7,0.1,1.4,0.2,2.1c0,0.4,0,0.8,0,1.1C18.6,29.6,18.4,29.5,18.4,29.6z"/>
	<path class="st7" d="M11.9,31.9c-0.1-0.1-0.3-0.2-0.4-0.4c-0.2-0.2-0.3-0.5-0.4-0.7c-0.3-0.9-0.5-1.8-0.5-2.7c0-0.5-0.1-1-0.2-1.5
		c0-0.3,0-0.6,0-0.9c0-0.4,0-0.9-0.1-1.3c0-0.1,0-0.1,0-0.2c0.3-0.2,0.4-0.6,0.4-1c0.1-0.5,0.1-1.1,0.1-1.6c0.1,0,0.2,0.1,0.3,0.1
		c0.6,0.3,1.1,0.7,1.8,1c0.9,0.3,1.7,0.5,2.6,0.5c0,0.5-0.1,1-0.1,1.5c0,0.9-0.1,1.8-0.1,2.7c0,0.5-0.1,1-0.2,1.4
		c-0.2,0.8-0.5,1.7-0.8,2.5c-0.1,0-0.2,0.1-0.3,0.2c-0.3,0.3-0.6,0.4-1.1,0.4c-0.2,0-0.4,0-0.6,0C12.2,32,12,31.9,11.9,31.9z
		 M12.5,31c0.1,0,0.2,0,0.4,0c0.1,0,0.2-0.1,0.1-0.3c0-0.1-0.1-0.1-0.3-0.1c-0.4,0.1-0.8-0.1-0.9-0.5c-0.1-0.4-0.2-0.7-0.2-1.1
		c-0.1-0.5-0.1-1.1-0.1-1.6c0-0.6-0.1-1.2,0-1.8c0-0.1,0-0.3-0.2-0.3c-0.1,0-0.2,0.1-0.2,0.2c0,0.2-0.1,0.4,0,0.6
		c0,1,0.1,1.9,0.2,2.9c0,0.4,0.1,0.8,0.2,1.2C11.6,30.6,12,31.1,12.5,31z M13.4,30.3c0,0.2,0.1,0.3,0.3,0.3c0.2,0,0.3-0.2,0.3-0.4
		c0-0.2-0.1-0.3-0.3-0.3C13.5,29.9,13.4,30.1,13.4,30.3z M14.3,29.6c0.1,0,0.2-0.1,0.2-0.2c0-0.1-0.1-0.2-0.2-0.2
		c-0.1,0-0.2,0.1-0.2,0.2C14.1,29.5,14.2,29.6,14.3,29.6z"/>
	<path class="st6" d="M14.3,31.3c0.3-0.8,0.6-1.7,0.8-2.5c0.1-0.5,0.2-1,0.2-1.4c0-0.9,0.1-1.8,0.1-2.7c0-0.5,0.1-1,0.1-1.5
		c0-0.1,0-0.2,0-0.3c0.1,0,0.1,0,0.2,0c0,0.1,0,0.2,0,0.2c-0.1,0.9,0.2,1.7,0.4,2.5c0.1,0.3,0.1,0.6,0.2,0.9c0.1,0.4,0.2,0.7,0.4,1
		c0,0.1,0.1,0.1,0.2,0.1c0.1,0,0.1-0.1,0.1-0.2c0.1-0.4,0.1-0.9,0.1-1.3c0-0.2,0.1-0.3,0.3-0.3c0.2,0,0.3,0.1,0.3,0.3
		c0.1,0.3,0.1,0.6,0.1,0.9c0.1,0.8,0.1,1.6,0.2,2.3c0,0,0,0-0.1,0c-0.2,0.1-0.2-0.1-0.2-0.2c-0.1-0.4-0.1-0.8-0.1-1.3
		c0-0.5-0.1-1.1-0.2-1.6c-0.1,0.1-0.1,0.2-0.1,0.3c0,0.4-0.1,0.7-0.1,1.1c0,0.2-0.1,0.3-0.3,0.3c-0.2,0-0.3,0-0.4-0.1
		c-0.3-0.4-0.5-0.8-0.6-1.3c-0.1-0.5-0.3-1-0.4-1.6c0,0,0,0-0.1-0.1c0,0.2,0,0.4,0,0.5c-0.1,1.1-0.1,2.3-0.3,3.4
		c-0.1,0.6-0.3,1.2-0.5,1.8c-0.1,0.2-0.1,0.5-0.2,0.7C14.5,31.4,14.4,31.4,14.3,31.3z"/>
	<path class="st7" d="M27.7,25.5c0-0.1,0.1-0.2,0-0.4c0,0,0,0,0,0C27.8,25.3,27.8,25.4,27.7,25.5C27.8,25.5,27.8,25.5,27.7,25.5z"/>
	<path class="st4" d="M23.1,5.3C23.2,5.3,23.2,5.2,23.1,5.3c0.4-0.3,0.7-0.2,0.9,0c0.5,0.6,0.9,1.2,1.3,1.8c0.3,0.7,0.7,1.4,0.9,2.1
		c0.1,0.5,0.2,1,0.2,1.5c0.1,0.5-0.1,0.9-0.2,1.4c-0.1,0.2-0.1,0.4-0.1,0.6c-0.2,0.1-0.3,0.1-0.4-0.1c0-0.1-0.1-0.2-0.1-0.3
		c0-0.1,0-0.1,0-0.2c0,0,0,0,0-0.1c0,0,0-0.1,0-0.1c0-0.4-0.2-0.7-0.2-1c0-0.2-0.1-0.5-0.1-0.7c-0.1-0.9-0.5-1.7-0.9-2.5
		c-0.2-0.4-0.5-0.8-0.9-1.1c-0.3-0.2-0.5-0.3-0.8-0.2c-0.1,0-0.2,0-0.3-0.1c-0.1-0.1,0-0.2,0.1-0.3c0.1-0.2,0.3-0.4,0.4-0.5
		C23,5.5,23.1,5.4,23.1,5.3z"/>
	<path class="st8" d="M24.9,18.9c0,0.4,0.1,0.7,0.3,1c0.2,0.3,0.5,0.4,0.8,0.2c0.3-0.2,0.5-0.5,0.7-0.9c0.4-0.8,0.5-1.7,0.5-2.6
		c-0.1-0.7-0.2-1.3-0.3-2c-0.1-0.4-0.1-0.9-0.1-1.4c0-0.3-0.1-0.5,0-0.8c0-0.1,0-0.1,0-0.2c0-0.1,0.1-0.2,0.3-0.2
		c0.1,0,0.2,0.1,0.3,0.2c0.1,0.2,0.2,0.5,0.3,0.7c0,0.1,0,0.2,0.1,0.3c0,0.1,0.1,0.2,0.2,0.1c0.1,0,0.1-0.1,0.1-0.2
		c0-0.1,0-0.2,0-0.3c0-0.1,0-0.2,0.1-0.3c0,0,0.1-0.1,0.1-0.1c0.1,0,0.1,0.1,0.1,0.1c-0.1,0.2,0,0.5-0.1,0.7
		c-0.1,0.2-0.2,0.3-0.4,0.3c-0.2,0-0.3-0.1-0.4-0.2c-0.1-0.3-0.2-0.6-0.3-0.9c0-0.1-0.1-0.2-0.1-0.3c-0.1,0.3-0.1,0.6-0.1,0.9
		c0.1,1.2,0.4,2.3,0.5,3.5c0.1,1.2-0.2,2.3-0.8,3.2c-0.1,0.2-0.3,0.3-0.4,0.4c-0.5,0.3-1,0.2-1.2-0.4c-0.1-0.2-0.1-0.5-0.3-0.7
		c0-0.1,0-0.2-0.1-0.3c0-0.1,0-0.1,0-0.2c-0.1-0.6-0.2-1.2-0.2-1.7c0-0.5,0-0.9-0.1-1.4c-0.1-0.9-0.2-1.7-0.2-2.6c0,0,0-0.1,0-0.1
		c0-0.4,0-0.7-0.1-1.1c-0.1-0.4-0.2-0.8-0.4-1.1c0-0.1,0-0.1-0.1-0.1c-0.1-0.2-0.2-0.3-0.4-0.3c-0.2,0-0.5,0.1-0.6,0.3
		c-0.1,0.2-0.1,0.3-0.1,0.5c0,0,0,0,0,0c0,0,0,0,0,0c-0.1,0.1-0.2,0.2-0.3,0.3c-0.2,0.1-0.4,0-0.6-0.2c-0.3-0.3-0.4-0.7-0.4-1.1
		c0-0.1,0-0.3-0.1-0.3c-0.1-0.1-0.2,0.1-0.2,0.1c0,0-0.1,0-0.1,0c-0.1,0-0.1-0.1-0.1-0.1c0-0.2,0.2-0.3,0.3-0.3c0.1,0,0.2,0,0.3,0.1
		c0.1,0.2,0.1,0.4,0.2,0.6c0,0.3,0.1,0.6,0.4,0.9c0.1,0.1,0.2,0.1,0.2,0c0.2-0.1,0.3-0.3,0.3-0.5c0.1-0.3,0.3-0.5,0.6-0.6
		c0.2-0.1,0.4,0,0.5,0c0,0,0.1,0,0.1,0c0,0,0,0.1,0.1,0.1c0.3,0.2,0.4,0.5,0.5,0.8c0.2,0.6,0.3,1.2,0.3,1.8c0,0.1,0,0.3,0,0.4
		c0,0.2,0,0.4,0,0.6c0.1,0.6,0.2,1.3,0.2,1.9c0.1,0.9,0.1,1.8,0.2,2.7C24.8,18.6,24.9,18.8,24.9,18.9z"/>
	<path class="st9" d="M7.3,12.8c-0.1,0.1-0.2,0.2-0.2,0.3c0,0.1,0,0.3-0.1,0.4c0-0.5,0-1,0.1-1.5c0.1-0.5,0.2-1.1,0.3-1.6
		c0.2-0.5,0.4-1,0.6-1.5C8.3,8.4,8.4,8,8.7,7.6c0.2-0.4,0.4-0.7,0.7-1C9.6,6.3,9.8,6.1,10,5.9c0.4-0.4,0.8-0.7,1.3-1
		c0.5-0.3,0.9-0.6,1.5-0.9c0.9-0.5,1.9-0.8,3-1c0.8-0.2,1.7-0.2,2.5,0c0.4,0.1,0.7,0.1,1.1,0.2c0.4,0.2,0.9,0.3,1.3,0.5
		c0,0,0.1,0,0.1,0c0,0.1-0.1,0.2-0.1,0.2c-0.1,0-0.2-0.1-0.3-0.1c-0.4-0.2-0.8-0.3-1.2-0.4c-0.8-0.2-1.7-0.3-2.5-0.3
		c0,0,0-0.1,0-0.1c-0.1,0-0.1,0.1-0.1,0.1c-0.3,0-0.5,0-0.8,0.1c-0.3,0.1-0.6,0.2-0.9,0.3c-0.8,0.2-1.6,0.6-2.4,1
		c-0.4,0.2-0.8,0.5-1.1,0.7c-0.3,0.2-0.7,0.4-1,0.8c-0.1,0.1-0.1,0.2-0.3,0.3c-0.2,0-0.1,0.1-0.1,0.2c-0.4,0.3-0.8,0.8-1,1.2
		c-0.3,0.7-0.7,1.4-1,2.1c-0.2,0.4-0.3,0.8-0.4,1.2c0,0.1-0.2,0.2-0.1,0.3c-0.1,0.1,0,0.2-0.1,0.3C7.4,12,7.3,12.4,7.3,12.8z"/>
	<path class="st4" d="M20.6,4c0-0.1,0.1-0.2,0.1-0.2c0.1-0.2,0.3-0.3,0.5-0.4c0.7-0.5,1.7,0.2,1.7,1c0,0.3,0,0.5-0.2,0.7
		c-0.1,0.1-0.2,0.2-0.2,0.3c-0.1,0-0.1,0.1-0.1,0.1c-0.1,0.1-0.3,0.2-0.4,0.3c0,0-0.1,0-0.1,0c-0.3,0.1-0.5,0-0.7-0.1
		c0,0-0.1-0.1-0.1-0.1c-0.2-0.2-0.3-0.5-0.3-0.7C20.5,4.5,20.6,4.2,20.6,4z"/>
	<path class="st9" d="M24.6,19c0.1,0.1,0.1,0.2,0.1,0.3c-0.5,0.8-1,1.5-1.7,2.1c-0.4,0.4-0.9,0.7-1.5,0.9c-0.8,0.3-1.6,0.6-2.5,0.6
		c-0.8,0-1.6,0.2-2.4,0.2c-0.3,0-0.6,0-0.9,0c0-0.1,0-0.2,0-0.2c0.8-0.1,1.6,0,2.4-0.1c0,0,0.1,0,0.1,0c0.1,0,0.2,0,0.3,0
		c0.4,0,0.7-0.1,1.1-0.1c0.5-0.1,0.9-0.2,1.3-0.4c0.7-0.2,1.3-0.6,1.9-1.1c0.6-0.5,1.1-1.1,1.4-1.7C24.4,19.2,24.5,19.1,24.6,19z"/>
	<path class="st9" d="M24.9,18.9c-0.1-0.1-0.1-0.3-0.1-0.4c0.1,0,0.1-0.1,0.1-0.1c0.1-0.3,0.3-0.5,0.4-0.8c0.6-1,0.9-2,0.8-3.2
		c0-0.5,0-1,0-1.5c0-0.2,0.1-0.4,0.1-0.6c0.1,0.1,0.1,0.3,0.1,0.5c0.1,0.7,0,1.5,0,2.2c0,0.8-0.2,1.5-0.6,2.3
		C25.6,17.7,25.3,18.3,24.9,18.9z"/>
	<path class="st10" d="M26.4,17.8c0-0.1,0-0.2,0-0.3c0-0.1,0-0.2,0.2-0.2c0.1,0,0.2,0.1,0.2,0.2c0.1,0.7-0.1,1.4-0.6,1.9
		c-0.1,0.1-0.2,0.2-0.3,0.2c-0.1,0-0.2,0-0.3-0.1c-0.1-0.1,0-0.2,0.1-0.2C26.2,19,26.4,18.5,26.4,17.8z"/>
	<path class="st10" d="M24.5,28.8c-0.1,0-0.3-0.1-0.3-0.2C24.1,28.4,24,28.2,24,28c0-0.1,0-0.2,0.1-0.3c0.1-0.1,0.1-0.1,0.2-0.1
		c0.1,0,0.1,0.1,0.1,0.2c0,0.2,0,0.3,0.1,0.4c0.1,0.1,0.1,0.1,0.2,0c0.1-0.1,0.1-0.2,0.3-0.1c0.1,0.1,0.1,0.2,0.1,0.3
		C24.9,28.7,24.7,28.7,24.5,28.8z"/>
	<path class="st9" d="M22.5,5.3c0.1-0.1,0.2-0.2,0.2-0.3c0.2,0,0.2,0.2,0.4,0.2c-0.1,0.1-0.1,0.2-0.2,0.2c0-0.1-0.1-0.1-0.1-0.1
		c0-0.1,0-0.1-0.1-0.1C22.6,5.3,22.5,5.3,22.5,5.3z"/>
	<path class="st10" d="M25.3,18.7c0.1,0,0.2,0.1,0.2,0.2c0,0.1-0.1,0.2-0.2,0.2c-0.1,0-0.2-0.1-0.2-0.2
		C25.1,18.8,25.2,18.7,25.3,18.7z"/>
	<path class="st10" d="M25.6,27.4c-0.1,0-0.2-0.1-0.2-0.2c0-0.1,0.1-0.2,0.2-0.2c0.1,0,0.2,0.1,0.2,0.2
		C25.8,27.3,25.7,27.3,25.6,27.4z"/>
	<path class="st10" d="M25.2,28.2c-0.1,0-0.2-0.1-0.2-0.2c0-0.1,0.1-0.2,0.2-0.2c0.1,0,0.2,0.1,0.2,0.2
		C25.4,28.1,25.3,28.1,25.2,28.2z"/>
	<path class="st11" d="M24.6,19c-0.1,0.1-0.2,0.3-0.3,0.4c-0.4,0.7-0.9,1.2-1.4,1.7c-0.6,0.5-1.2,0.9-1.9,1.1
		c-0.4,0.2-0.9,0.3-1.3,0.4c-0.4,0.1-0.7,0.1-1.1,0.1c-0.1,0-0.2,0-0.3,0c-0.1-0.3-0.2-0.5-0.3-0.8c0-0.1,0-0.2,0.1-0.2
		c0.3-0.1,0.5-0.2,0.8-0.3c0.1,0,0.2-0.1,0.1-0.2c-0.1-0.2-0.3-0.4-0.5-0.6c0,0-0.1-0.1-0.1,0c-0.1,0.2-0.3,0.1-0.4,0.1
		c-0.1,0-0.2,0-0.1-0.1c0.1-0.2,0.2-0.4,0.3-0.6c0.1-0.2,0-0.2-0.2-0.3c-0.4-0.1-0.8,0-1-0.5c0,0,0-0.1-0.1,0c0,0,0,0.1,0,0.1
		c0.1,0.2,0.2,0.4,0.4,0.4c0.2,0,0.4,0.1,0.6,0.1c0.1,0,0.2,0.1,0.1,0.2c-0.1,0.2-0.2,0.4-0.4,0.6c-0.1,0.1-0.1,0.2,0.1,0.2
		c0.1,0,0.3,0.1,0.4,0c0.3-0.1,0.4,0,0.5,0.2c0,0,0.1,0.1,0.1,0.1c0.1,0.1,0.1,0.1,0,0.2c-0.2,0.1-0.4,0.2-0.6,0.3
		c-0.3,0.1-0.3,0.1-0.2,0.4c0,0.1,0.1,0.2-0.1,0.2c-0.2,0-0.5,0.1-0.7,0.1c-0.1,0-0.1,0-0.1-0.1c0-0.1,0-0.1,0.1-0.1
		c0.1-0.1,0.1-0.2,0-0.3c0.1-0.1,0.3-0.1,0.4-0.2c0.1,0,0.1-0.1,0-0.2c-0.2-0.1-0.3-0.3-0.4-0.5c0,0,0-0.1-0.1-0.1
		c-0.1,0,0,0.1,0,0.1c0.1,0.2,0.3,0.4,0.4,0.5c-0.2,0.1-0.3,0.1-0.5,0.2c-0.1,0-0.3,0-0.3,0.1c0,0.1,0.2,0.1,0.3,0.1c0,0,0,0,0,0
		c-0.1,0.1-0.2,0.1-0.1,0.2c0.1,0.1,0.1,0.2,0.3,0.2c0.2,0,0.3-0.1,0.5-0.1c0.3,0,0.3,0,0.4,0.2c0,0.1,0.1,0.2,0.1,0.3
		c-0.8,0.1-1.6,0-2.4,0.1c-0.1,0-0.1,0-0.2,0c-0.3,0-0.5,0-0.7,0c-0.5-0.1-1.1-0.2-1.6-0.4c-0.4-0.2-0.9-0.3-1.3-0.6
		c-0.4-0.2-0.7-0.5-1.1-0.7c0-0.3,0-0.7,0.1-1c0-0.1,0-0.1,0.1-0.1c0.1-0.1,0.1-0.2,0.2-0.2c0.1,0,0.1,0.2,0.1,0.3
		c0,0.2,0,0.4,0,0.5c0,0.1,0,0.1,0,0.2c0,0.2,0.2,0.4,0.4,0.4c0.2,0,0.3-0.1,0.4-0.3c0-0.1,0.1-0.2,0.1-0.3c0-0.1,0-0.2,0-0.3
		c0.1,0.3,0.3,0.4,0.5,0.4c0,0.1,0.1,0.2,0.2,0.2c0.5,0.3,1.1,0.6,1.7,0.5c0.4-0.1,0.8-0.2,1-0.5c0.2-0.2,0.3-0.4,0.4-0.6
		c0.2-0.3,0.3-0.6,0.3-0.9c0-0.4-0.1-0.8-0.1-1.3c0-0.1-0.1-0.2-0.1-0.3c-0.1-0.1-0.2-0.2-0.2-0.3c-0.1-0.3-0.3-0.6-0.4-0.9
		c0.2-0.2,0.5-0.3,0.7-0.6c0.2-0.3,0.3-0.7,0.2-1.1c-0.1-0.3-0.3-0.5-0.6-0.6c0.2-0.7,0.4-1.4,0.7-2c0.3-0.6,0.6-1.1,0.8-1.7
		c0.3-0.6,0.4-1.1,0.4-1.8c0-0.2,0-0.5-0.1-0.7c-0.1-0.2-0.2-0.5-0.4-0.7C17,7.4,16.8,7.2,16.5,7c-0.7-0.4-1.5-0.6-2.4-0.5
		c-0.4,0.1-0.8,0.3-1,0.6c-0.6,0.7-0.9,1.6-1.2,2.5c-0.1,0.4-0.2,0.8-0.4,1.2c-0.2,0.5-0.3,1-0.3,1.5c0,0.8,0,1.7,0,2.5
		c0,1.3,0.1,2.6,0.2,3.9c0,0.4,0.2,0.8,0.3,1.1c0,0.1,0.1,0.1,0.2,0.1c-0.1,0.3-0.1,0.6-0.1,0.9c0,0,0,0.1,0,0.1
		c0,0.1-0.1,0.1-0.1,0.1c-0.1,0-0.1-0.1-0.1-0.2c0-0.2,0-0.4,0-0.6c0-0.2-0.1-0.4-0.3-0.6c-0.1,0-0.2,0-0.3,0c0-0.1,0-0.1,0-0.2
		c0,0,0-0.1,0-0.1c0,0-0.1,0-0.1,0.1c0,0.1,0,0.2,0,0.3c0,0-0.1,0-0.1,0c-0.2-0.3,0-0.6,0-0.9c0,0,0.1-0.1,0-0.1
		c-0.1,0-0.1,0-0.1,0.1c0,0,0,0.1,0,0.1c0,0.2-0.3,0.3-0.1,0.6c0,0,0,0,0,0.1c-0.1,0.2-0.1,0.3,0.1,0.4c0,0.1,0,0.1,0,0.2
		c-0.2,0-0.3,0-0.4-0.1c-0.1-0.1-0.1-0.1-0.2-0.1c-0.1-0.1-0.1,0-0.1,0.1c0,0.1,0,0.3-0.1,0.4c0,0-0.1-0.1-0.1-0.1
		c-0.5-0.4-0.8-0.9-1.2-1.4c-0.4-0.5-0.7-1.2-0.8-1.8c-0.2-0.6-0.4-1.2-0.4-1.8c0.1,0,0.1-0.1,0.1-0.2c0,0,0-0.1,0-0.1
		c0.1,0,0.1,0,0.1,0.1c0.1,0.1,0.2,0.2,0.3,0.3c0,0,0.1,0.1,0.1,0.1c0.1,0,0.1-0.1,0.1-0.1c0-0.1,0-0.2,0-0.3C7.9,14.2,8,13.6,8,13
		c0-0.3,0.1-0.5,0.2-0.8c0,0,0.1,0.1,0.1,0.1c0.2,0,0.2,0.2,0.2,0.3c0.1,0.2,0.1,0.3,0.1,0.5c0,0.1,0,0.2,0.2,0.2
		c0.2,0,0.3,0,0.1,0.2c0,0,0,0.1-0.1,0.1c0,0.1-0.1,0.1,0,0.2c0,0,0.1,0,0.2,0c0.1,0,0.2-0.1,0.2,0.1c0,0,0,0.1,0.1,0
		c0,0,0.1-0.1,0-0.1c0-0.1-0.1-0.2-0.2-0.2c-0.2,0-0.2-0.1-0.1-0.2c0,0,0-0.1,0.1-0.1c0-0.1,0-0.2-0.1-0.2c-0.2,0-0.2-0.1-0.1-0.2
		c0-0.1,0.1-0.2,0.1-0.3c0,0,0-0.1,0.1,0c0.1,0.1,0.2,0.1,0.3,0.1c0.2-0.1,0.2,0,0.2,0.2c0,0.2,0,0.4,0.1,0.6c0,0.1,0,0.1,0.1,0.2
		c0.1,0,0.1-0.1,0.1-0.1c0.1-0.1,0.1-0.2,0.2-0.3c0-0.1,0.1-0.1,0.2,0c0.1,0.2,0.2,0.2,0.5,0.1c-0.1,0.3-0.3,0.4-0.5,0.6
		c-0.1,0.1-0.2,0.2,0,0.3c0.1,0.1,0.2,0.2,0.1,0.3c-0.1,0.1-0.3,0.3-0.5,0.3c-0.1,0-0.2,0.1-0.2,0.3c0,0.1,0.1,0.3,0.1,0.4
		c0,0.1,0,0.2-0.1,0.3c-0.2,0.2-0.3,0.4-0.5,0.5c-0.3,0.2-0.3,0.2-0.2,0.5c0.1,0.3,0.2,0.7,0.2,1c0,0.1,0.1,0.2,0.1,0.3
		c0,0,0.1,0.1,0.1,0c0,0,0-0.1,0-0.1c-0.1-0.1-0.1-0.3-0.1-0.4c-0.1-0.3-0.1-0.6-0.3-0.9c-0.1-0.1,0-0.1,0.1-0.2
		c0.1-0.1,0.3-0.2,0.4-0.3c0.3-0.2,0.5-0.5,0.3-0.9c0,0,0-0.1,0-0.1c0-0.1,0-0.2,0.1-0.2c0.1,0,0.1,0,0.2,0.1c0,0.1,0.1,0.2,0.1,0.4
		c0.1,0.2,0,0.3,0.2,0.5c0.1,0.1,0.1,0.2,0.2,0.2c0.1,0.1,0.2,0.1,0.2,0c0.1-0.1,0.2-0.2,0.3-0.1c0,0,0.1,0,0.1,0c0,0,0-0.1,0-0.1
		c-0.1-0.1-0.3-0.1-0.4,0c-0.1,0.1-0.1,0.1-0.2,0c0-0.1-0.1-0.1-0.1-0.1c0-0.2-0.1-0.5-0.2-0.7c-0.1-0.2,0-0.3,0.1-0.5
		c0.3-0.2,0.3-0.3,0.1-0.5c-0.1-0.1-0.1-0.1,0-0.2c0.2-0.1,0.3-0.3,0.4-0.5c0-0.1,0.1-0.1,0-0.2c-0.1-0.1-0.1-0.1-0.2-0.1
		c-0.1,0-0.2,0-0.2-0.1c-0.2-0.2-0.2-0.2-0.4,0c-0.1,0.1-0.1,0.3-0.2,0.2c-0.1,0-0.1-0.2-0.1-0.3c-0.1-0.2,0-0.4-0.2-0.5
		c0-0.1,0.1-0.1,0.1-0.1c0.2-0.1,0.5-0.2,0.7-0.4c0,0,0.1,0,0.1-0.1c0-0.1-0.1-0.1-0.1,0c0,0-0.1,0-0.1,0c-0.3,0.2-0.6,0.3-0.9,0.5
		c0,0-0.1,0.1-0.1,0c0,0,0-0.1-0.1-0.1c-0.1,0-0.1,0.1-0.1,0.1c-0.1,0.1-0.1,0.3-0.2,0.4c0-0.1,0-0.1,0-0.1
		c-0.1-0.2-0.1-0.4-0.3-0.5c-0.1,0,0-0.1,0-0.1c0-0.1,0-0.1-0.1-0.1c-0.1,0-0.1,0-0.1,0.1c-0.1,0.2-0.2,0.4-0.3,0.6
		c-0.1,0.7-0.1,1.5,0,2.2c0,0.1,0,0.2,0,0.3c-0.2-0.1-0.3-0.3-0.4-0.4c-0.1-0.1-0.1-0.1-0.2,0c0-0.2,0-0.3,0-0.5c0-0.2,0-0.3,0-0.5
		c0.1-0.2,0.2-0.5,0.2-0.8c0-0.1,0-0.2-0.1-0.2c0-0.4,0.1-0.8,0.1-1.2c0-0.1,0-0.2,0.1-0.3c0,0,0.1,0,0.1-0.1c0.3-0.7,0.9-1,1.4-1.4
		C9.1,9.8,9.2,9.8,9.2,10c0,0.1,0.1,0.3,0.1,0.4c0.1,0.1,0.2,0.2,0.3,0c0.1-0.1,0.2-0.2,0.3-0.3c0,0,0.1-0.1,0.2-0.1
		c0.1,0,0.1,0.1,0.1,0.2c0,0.2,0.1,0.5,0.2,0.7c0,0,0,0.1,0.1,0.1c0,0,0.1,0,0.1-0.1c0-0.1,0.1-0.2,0.1-0.3c0,0,0-0.1,0.1,0
		c0.1,0.1,0.1,0.1,0.2,0c0.1-0.1,0.1-0.1,0.1-0.2c0-0.2,0-0.3,0.1-0.4c0,0,0.1-0.1,0.1-0.1c-0.1-0.1-0.1,0-0.1,0.1
		c-0.1,0.1-0.2,0.3-0.2,0.5c0,0,0,0.1,0,0.1c0,0-0.1,0-0.1,0c-0.1-0.2-0.2,0-0.2,0.1c0,0.1,0,0.2-0.1,0.2c-0.2-0.4-0.2-0.7-0.2-1.1
		c0,0,0-0.1,0.1-0.1c0.3,0,0.5-0.2,0.6-0.4c0,0,0.1-0.1,0-0.2c-0.1,0-0.1,0-0.1,0.1c0,0,0,0.1-0.1,0.1c-0.1,0.2-0.2,0.3-0.4,0.3
		c-0.1,0-0.2,0.1-0.2,0.2c0,0.1,0,0.2-0.1,0.3c-0.2,0.1-0.3,0.3-0.5,0.5c-0.1,0.1-0.2,0.1-0.2,0C9.4,10.1,9.4,10,9.3,9.9
		C9.3,9.6,9.2,9.6,9,9.7c-0.5,0.4-1.1,0.7-1.4,1.3c0-0.4,0.2-0.8,0.4-1.2c0.3-0.7,0.6-1.4,1-2.1c0.2-0.5,0.5-0.9,1-1.2
		c0,0.2-0.1,0.4,0,0.6c0,0.1,0,0.2,0.1,0.2c0.1,0,0.1-0.1,0.2-0.1c0.3-0.3,0.6-0.5,1-0.7l0,0c0,0.1,0,0.2-0.2,0.2
		c-0.1,0-0.1,0.1-0.1,0.1c0,0,0,0.1,0.1,0c0.1-0.1,0.4-0.1,0.3-0.4c0-0.1,0.1-0.1,0.2-0.1c0.1,0,0,0.1,0,0.1
		c-0.2,0.3-0.3,0.6-0.4,0.9c0,0-0.1,0.1,0,0.1c0.1,0.1,0.1,0,0.1,0c0.1-0.1,0.3-0.2,0.4-0.2c0.1,0,0.2,0,0.2,0.1
		c0,0.1,0,0.3-0.1,0.4c0,0,0.2,0.3,0.2,0.3c0,0,0.1,0,0.1-0.1c0-0.1,0-0.1,0-0.2c-0.1-0.1-0.1-0.2-0.1-0.3c0-0.1,0-0.2,0-0.3
		c0-0.2-0.1-0.2-0.3-0.2c-0.1,0-0.2,0.1-0.3,0.1l0,0c0,0,0-0.1,0-0.1c0.1-0.3,0.4-0.5,0.4-0.9c0,0,0,0,0,0c0.1,0,0.3-0.1,0.4,0.1
		c0.1,0.1,0.1,0.2,0,0.3c0,0,0,0.1,0,0.1C12,6.9,12,7,12.1,7c0.1,0,0.1-0.1,0.1-0.1c0.1-0.1,0.1-0.2,0.2-0.3C12.5,6.3,12.7,6,13.1,6
		c0,0,0.1,0,0.1-0.1c0-0.1-0.1-0.1-0.1-0.1c-0.1,0-0.2,0.1-0.3,0.1c-0.2,0.1-0.4,0.4-0.5,0.6c-0.1-0.2-0.3-0.3-0.5-0.2
		c-0.2,0-0.3-0.1-0.5,0c0,0-0.1,0-0.1,0c0-0.1,0-0.3,0.1-0.3c0.2,0,0.3-0.2,0.4-0.2c0,0,0,0.1,0.1,0.1c0.1,0.1,0.2,0.1,0.3,0.1
		c0.1,0,0.2-0.1,0.2,0.1c0,0.1,0.1,0,0.1,0c0-0.1,0-0.2-0.2-0.2c-0.1,0-0.1,0-0.2,0c-0.1,0-0.2,0-0.2-0.1c-0.1-0.1,0-0.2,0-0.2
		c0-0.1,0.1-0.1,0.2-0.1c0.2,0,0.3-0.1,0.5-0.2c0,0,0.1,0,0.1-0.1c0,0-0.1,0-0.1,0c-0.3,0.2-0.6,0.2-0.8,0.4
		c-0.1,0.1-0.2,0.3-0.4,0.3c-0.1,0-0.3,0.1-0.2,0.3c0,0,0,0.1,0,0.1c-0.1,0.1-0.2,0.3-0.3,0.3c-0.2,0.1-0.4,0.3-0.6,0.5
		c0,0-0.1,0.1-0.1,0.1c-0.1,0,0-0.1,0-0.2c0-0.2,0-0.5,0.1-0.7c0.1-0.1,0.2-0.2,0.3-0.3c0.3-0.3,0.6-0.5,1-0.8
		c0.4-0.3,0.7-0.5,1.1-0.7c0.8-0.4,1.5-0.7,2.4-1c0.3-0.1,0.6-0.2,0.9-0.3c0.3-0.1,0.5-0.1,0.8-0.1c-0.2,0.2-0.3,0.5-0.6,0.6
		c0,0-0.1,0-0.1,0.1c-0.1,0.1-0.1,0.1-0.1,0.2c0,0.1,0.1,0.1,0.2,0.1c0.1,0,0.2,0,0.2,0c0,0.2,0.1,0.2,0.2,0.3
		c-0.5,0-0.9,0.2-1.3,0.4c0,0-0.1,0-0.1,0.1c0,0-0.1,0.1-0.1,0.1c0,0.1,0.1,0,0.1,0c0,0,0.1,0,0.1-0.1c0.3-0.1,0.6-0.2,0.8-0.3
		c0,0.1,0,0.1,0,0.2c-0.1,0.2-0.1,0.3,0.1,0.3c0.2,0.1,0.3,0.2,0.5,0.2c0.1,0,0.2,0.1,0,0.2c-0.1,0.1-0.2,0.2-0.4,0.3
		C16,5.8,15.9,5.9,15.9,6c0,0,0,0.1,0,0.1c0,0,0.1,0,0.1,0c0.2-0.3,0.5-0.3,0.7-0.6c0-0.1,0.1-0.1,0.2,0c0.1,0,0.1,0.1,0,0.1
		c0,0.2,0.1,0.2,0.2,0.3c0.3,0.1,0.3,0.1,0.1,0.3c-0.1,0.1-0.2,0.2-0.1,0.4c0,0,0,0.1,0.1,0.1c0,0,0,0,0-0.1c0-0.2,0.1-0.3,0.2-0.4
		c0.1-0.2,0.1-0.2,0-0.3c-0.1,0-0.1-0.1-0.2-0.1C17,5.6,17,5.6,17,5.4c0-0.2-0.1-0.2-0.3-0.2c-0.1,0-0.1,0.1-0.2,0
		c-0.2-0.1-0.4-0.1-0.6-0.2c-0.1,0-0.2,0-0.2-0.2c0.1-0.1,0-0.3,0.3-0.3c0.1,0,0.2,0,0.2-0.1c0-0.1,0-0.2-0.1-0.2c0,0,0,0-0.1-0.1
		c0-0.1,0.1-0.2,0.1-0.2c0,0,0.1-0.1,0.1,0c0,0.2,0.2,0.2,0.3,0.2c0.1,0,0.2,0.1,0.2,0.2c0,0.1,0,0.1,0.1,0.2c0,0,0.1,0,0.1,0
		c0,0,0-0.1,0-0.1c-0.1-0.1,0-0.3-0.2-0.5c-0.1-0.1,0-0.2,0.1-0.2c0.1,0,0.1,0,0.2,0.1C17.2,4,17.3,4.1,17.4,4
		c0.1,0,0.3-0.1,0.4-0.2C17.9,3.8,18,3.8,18,3.9c0.1,0.2,0.2,0.3,0.4,0.3c0,0,0.1,0,0.1,0c0,0,0-0.1-0.1-0.1c-0.2,0-0.3-0.2-0.4-0.3
		c-0.1-0.1-0.2-0.2-0.3-0.1c-0.1,0.1-0.2,0.1-0.4,0.2c-0.1,0-0.2,0-0.2-0.1c0-0.2-0.2-0.1-0.3-0.1c-0.1,0.1-0.1,0.2-0.2,0.2
		c-0.1,0.1-0.1,0.1-0.2,0c-0.1-0.2-0.1-0.2-0.3-0.1C16.2,3.9,16,4,15.9,4c0,0-0.1,0-0.1,0c0-0.1,0-0.1,0.1-0.1
		c0.3-0.1,0.5-0.4,0.7-0.7c0.9,0,1.7,0.1,2.5,0.3c0.4,0.1,0.8,0.2,1.2,0.4c0.1,0,0.2,0.1,0.3,0.1c0,0.3-0.1,0.6,0,0.9
		c0.1,0.3,0.2,0.5,0.3,0.7c0,0.2-0.2,0.3-0.1,0.5c0,0.1,0,0.1,0,0.2c-0.1,0-0.1-0.1-0.2-0.1C20.5,6.1,20.5,6,20.5,6
		c0-0.1-0.1-0.2-0.2-0.2c-0.2,0-0.3,0-0.5,0.1c-0.1,0.1-0.2,0.2-0.2,0.3c0,0.1,0,0.2-0.1,0.2c-0.1-0.3-0.1-0.3-0.4-0.2c0,0,0,0,0,0
		c-0.2,0.1-0.4,0.2-0.7,0.4c0,0-0.1,0.1-0.1,0.1c0,0.1,0.1,0,0.1,0c0.2-0.1,0.4-0.2,0.6-0.3c0.2-0.1,0.2-0.1,0.3,0.1
		c0,0.1,0,0.1,0.1,0.1c0.1,0,0.1,0,0.1-0.1c0.1-0.1,0.2-0.2,0.2-0.4c0-0.2,0.3-0.4,0.5-0.3c0,0,0.1,0,0,0.1c0,0.2,0.2,0.3,0.3,0.4
		c0.1,0.1,0.2,0,0.2-0.1c0-0.2,0.1-0.4,0.1-0.6c0.2,0.1,0.5,0.1,0.7,0.1c0.1,0.1,0.2,0.2,0.1,0.3c0,0,0,0.1,0,0.1
		c0.3,0.5,0.4,1,0.6,1.5c0,0.1,0.2,0.3,0.1,0.3c-0.1,0.1-0.2-0.1-0.3-0.2c0,0,0,0,0,0c-0.3-0.2-0.7-0.3-1.1-0.3
		c-0.1,0-0.2,0.2-0.3,0.1c-0.4-0.1-0.8,0-1.2,0c-0.1,0-0.1,0-0.2,0.1c0,0.1,0.1,0.1,0.1,0.1C19.8,8,20,8.2,20.1,8.3
		c0.1,0.1,0.1,0.2-0.1,0.3c-0.1,0-0.2,0.1-0.4,0.1c-0.3,0.1-0.3,0.2-0.3,0.5c0,0.3-0.1,0.4-0.4,0.4c-0.1,0-0.2,0-0.2,0.1
		c-0.1,0.3-0.4,0.4-0.3,0.7c0,0.1,0,0.1,0,0.2c-0.1,0.1-0.1,0.2-0.3,0.2c-0.1,0-0.1,0-0.2,0.1c0,0,0,0.1,0,0.1
		c0.1,0.1,0.1-0.1,0.1-0.1c0,0,0,0,0,0c0.2,0,0.4-0.2,0.4-0.4c0-0.2,0.1-0.4,0.2-0.5c0.1-0.1,0.1-0.2,0.3-0.2c0.1,0,0.3-0.1,0.4-0.2
		c0.1-0.1,0-0.3,0.1-0.4c-0.2-0.3,0.1-0.3,0.2-0.3c0.1,0,0.2-0.1,0.3-0.1c0.3-0.1,0.4-0.2,0.1-0.5c-0.1-0.1-0.3-0.3-0.4-0.4
		c0.1,0,0.2,0,0.3,0c0.3,0,0.6-0.1,0.9,0.1c0.2,0.1,0.3-0.1,0.4,0c0,0,0,0,0-0.1c-0.1-0.1,0-0.1,0.1-0.1c0.3,0,0.5,0.1,0.8,0.3
		c0.1,0.1,0.3,0.2,0.4,0.3c0,0,0.1,0.1,0.1,0c0,0,0-0.1,0-0.1c0-0.1,0-0.2-0.1-0.3c0,0-0.1-0.1,0-0.1c0.1,0,0.2,0,0.2,0
		c0.1,0,0,0.1,0,0.1c0,0.1,0,0.1,0.1,0.2c0.3,0.1,0.5,0.2,0.8,0.2c0.1,0,0.1,0,0.1,0c0,0.1,0,0.1,0,0.2c-0.3,0.2-0.5,0.5-0.9,0.6
		C23,9,22.8,9,22.6,9.1c-0.1,0-0.2,0.1-0.1,0.2c0.2,0.1,0.1,0.3,0.1,0.5c0,0.1,0,0.1,0,0.2c0,0,0,0.1,0,0.1c0,0,0.1,0,0.1,0
		c0.1-0.2,0.2-0.4,0.1-0.7c0-0.1-0.1-0.1,0-0.2C22.8,9.1,23,9,23.1,9.1c0.1,0.2,0.4,0.2,0.4,0.5c0,0.3,0.1,0.3-0.2,0.5
		c-0.2,0-0.4,0-0.5,0c-0.3,0.1-0.5,0.3-0.6,0.6c0,0.2-0.1,0.4-0.3,0.5c-0.1,0.1-0.2,0.1-0.2,0c-0.2-0.2-0.3-0.5-0.4-0.9
		c0-0.2,0-0.4-0.2-0.6c-0.1-0.1-0.2-0.2-0.3-0.1c-0.2,0.1-0.3,0.1-0.3,0.3c0,0.1,0,0.1,0.1,0.1c0.1,0,0.1,0,0.1,0
		c0.1,0,0.1-0.2,0.2-0.1C21,10,21,10.2,21,10.3c0,0.4,0.1,0.8,0.4,1.1c0.2,0.2,0.3,0.3,0.6,0.2c0,0.1-0.1,0.1-0.2,0.1
		c0,0-0.1,0,0,0.1c0,0,0,0,0,0c0.1,0,0.3,0,0.3-0.1c0-0.2,0.1-0.2,0.3-0.3c0.1-0.1,0.2-0.1,0.3-0.2c0.1-0.1,0.3-0.2,0.4-0.2
		c0.2,0,0.3,0,0.4-0.2c0.3,0.3,0.4,0.7,0.4,1.1c0.1,0.3,0.1,0.7,0.1,1.1C24,13,23.8,13,23.7,13c-0.1,0-0.1,0.1-0.1,0.2
		c0.1,0.3-0.1,0.4-0.2,0.5c-0.2,0.2-0.2,0.2-0.1,0.4c0.2,0.3,0.3,0.7,0.3,1.1c0,0.1-0.1,0.2-0.2,0.1c-0.1,0-0.3-0.1-0.4-0.2
		c-0.3-0.3-0.6-0.4-0.9-0.6c-0.1-0.1-0.3-0.1-0.3,0.1c-0.1,0.2-0.1,0.3-0.3,0.2c0,0-0.1,0-0.1,0c-0.2,0.1-0.4,0.2-0.7,0.1
		c0.1-0.1,0.2-0.2,0.4-0.2c0.5-0.3,0.7-0.6,0.6-1.2c0-0.1,0-0.2-0.1-0.2c-0.1,0-0.1,0.1-0.2,0.1c0,0,0,0.1-0.1,0.1
		c-0.1,0.1-0.2,0.1-0.3-0.1c0-0.1-0.1-0.1-0.2-0.1c-0.1,0.1-0.2,0.2-0.3,0.2c0,0,0,0,0,0c0,0,0-0.1-0.1-0.1c-0.1,0-0.1,0-0.1-0.1
		c0.1-0.3,0.1-0.3-0.2-0.3c-0.2,0-0.3-0.1-0.3-0.3c0-0.2,0-0.5,0-0.7c0-0.2-0.1-0.3-0.2-0.3c-0.2,0-0.3,0.1-0.3,0.3
		c0,0.3-0.2,0.4-0.4,0.4c-0.2,0-0.4,0.1-0.4,0.3c-0.1,0.1,0,0.3-0.3,0.2c0,0-0.1,0.1-0.2,0.1c-0.1,0.1-0.2,0.2-0.4,0.2
		c0,0-0.1,0-0.1,0c0,0.1,0,0.1,0.1,0.1c0.1,0,0.3-0.1,0.4-0.1c0.1-0.1,0.2-0.1,0.3-0.1c0.1,0,0.2,0,0.2-0.1c0.1-0.3,0.2-0.4,0.5-0.5
		c0.2,0,0.4-0.2,0.4-0.4c0-0.1,0-0.2,0.2-0.2c0.1,0,0.2,0.1,0.1,0.2c0,0.2,0,0.4,0,0.6c0,0.3,0.1,0.4,0.4,0.4c0.1,0,0.1,0,0.1,0.1
		c0,0.2-0.1,0.4-0.2,0.5C20,13.9,20,14,20,14c0,0.1,0.1,0,0.2,0c0.2-0.1,0.5-0.3,0.7-0.4c0.1,0,0.1-0.1,0.1,0
		c0.1,0.2,0.2,0.2,0.4,0.1c0.1-0.1,0.1,0,0.1,0.1c0,0.3-0.1,0.6-0.3,0.7c-0.2,0.1-0.4,0.2-0.5,0.4c-0.1,0.1-0.1,0.2,0.1,0.3
		c0.1,0,0.3,0,0.4,0c0.2,0,0.3-0.2,0.5-0.1c0.1,0,0.1-0.1,0.2-0.1c0.1-0.2,0.1-0.2,0.3-0.1c0.1,0.1,0.2,0.1,0.1,0.2c0,0,0,0.1,0,0.1
		c0.2,0.2,0,0.4-0.1,0.5c-0.1,0.1-0.1,0.1-0.3,0.1c-0.4,0-0.8,0.1-1.2,0.3c-0.3,0.2-0.3,0.3-0.2,0.6c0.1,0.2,0.1,0.4,0.1,0.6
		c-0.1,0.3-0.2,0.6-0.5,0.9c0,0.1-0.1,0.2-0.2,0.2c-0.1,0-0.1-0.1-0.2-0.2c0,0,0-0.1,0-0.1c0-0.2-0.1-0.3-0.3-0.4
		c-0.2-0.1-0.3-0.1-0.3,0.2c0,0.1,0,0.2-0.2,0.2c-0.1,0-0.2,0-0.3,0.1c-0.2,0.1-0.4,0.1-0.6,0.1c-0.2,0-0.3,0-0.4,0.1
		c0,0-0.1,0-0.1,0.1c0,0,0.1,0,0.1,0c0.2-0.1,0.4-0.1,0.6-0.1c0.1,0,0.2,0,0.3-0.1c0.1-0.1,0.2-0.1,0.4-0.2c0.2,0,0.2-0.1,0.2-0.3
		c0-0.1,0.1-0.2,0.2-0.1c0.1,0,0.2,0.1,0.2,0.2c0,0.1,0.1,0.3,0.1,0.4c0.1,0.2,0.4,0.2,0.4,0c0.1-0.3,0.2-0.4,0.3-0.7
		c0.2-0.4,0.2-0.7,0-1.1c-0.1-0.2,0-0.3,0.1-0.4c0.4-0.2,0.8-0.3,1.2-0.3c0.1,0,0.2,0,0.2-0.1c0-0.1,0.1-0.2,0.2-0.2
		c0.1,0,0.1-0.1,0.1-0.2c-0.1-0.1-0.2-0.2-0.1-0.3c0.1-0.1,0.2,0,0.3,0.1c0.2,0.2,0.5,0.3,0.8,0.4c0.2,0,0.2,0,0.2-0.1
		c0-0.4-0.1-0.8-0.3-1.1c-0.1-0.3-0.1-0.3,0.1-0.5c0.1-0.1,0.2-0.2,0.2-0.3c-0.1-0.1,0-0.2,0.1-0.2c0.1,0,0.2-0.1,0.2-0.1
		c0,0.9,0.2,1.7,0.2,2.6c0,0.5,0.1,0.9,0.1,1.4c0,0.6,0.1,1.2,0.2,1.7C24.6,18.8,24.6,18.9,24.6,19z M17.2,17.4
		c0,0.1,0.1,0.3,0.3,0.3c0.1,0,0.3-0.2,0.3-0.3c0-0.1-0.1-0.2-0.2-0.2C17.4,17.1,17.2,17.3,17.2,17.4z"/>
	<path class="st12" d="M11.9,19.8c-0.1,0-0.1-0.1-0.2-0.1c-0.2-0.4-0.3-0.7-0.3-1.1c-0.1-1.3-0.2-2.6-0.2-3.9c0-0.8,0-1.7,0-2.5
		c0-0.5,0.1-1,0.3-1.5c0.1-0.4,0.2-0.8,0.4-1.2c0.3-0.9,0.6-1.7,1.2-2.5c0.3-0.3,0.6-0.5,1-0.6C15,6.4,15.8,6.7,16.5,7
		c0.3,0.1,0.5,0.4,0.7,0.6c0.2,0.2,0.2,0.5,0.4,0.7c0.1,0.2,0.1,0.4,0.1,0.7c0.1,0.6-0.1,1.2-0.4,1.8c-0.3,0.6-0.5,1.1-0.8,1.7
		c-0.3,0.6-0.5,1.3-0.7,2c-0.3,0-0.6-0.1-0.9,0.1c-0.4,0.3-0.5,0.7-0.6,1.1c0,0.5,0.2,1,0.8,1.1c0.2,0,0.3,0,0.5,0
		c0.1,0.3,0.3,0.6,0.4,0.9c0,0.1,0.2,0.2,0.2,0.3c0.1,0.1,0.1,0.2,0.1,0.3c0,0.4,0.1,0.8,0.1,1.3c0,0.3-0.2,0.6-0.3,0.9
		c-0.1,0.2-0.3,0.4-0.4,0.6c-0.3,0.3-0.6,0.4-1,0.5c-0.6,0.1-1.2-0.2-1.7-0.5c-0.1-0.1-0.2-0.1-0.2-0.2c0.2-0.1,0.3-0.3,0.3-0.5
		c0-0.1,0-0.3,0-0.4c0-0.1,0-0.1-0.1-0.2c-0.1,0-0.1,0.1-0.1,0.1c0,0.2,0,0.3,0,0.5c0,0.1,0,0.2-0.1,0.2c-0.1,0-0.1,0-0.2-0.1
		c-0.1-0.1,0-0.2-0.1-0.3C12.3,19.7,12.2,19.7,11.9,19.8z M13.7,20.2c0-0.1,0-0.1,0-0.1c-0.2-0.4-0.4-0.8-0.4-1.2
		c-0.1-1.2,0-2.4,0.1-3.6c0.1-1,0.3-2,0.5-3c0.2-1.1,0.5-2.2,0.9-3.3c0.1-0.2,0.2-0.4,0.2-0.7c0-0.1,0-0.1,0-0.2
		c-0.1,0-0.1,0-0.1,0.1c-0.4,0.5-0.8,1.1-1.1,1.6c-0.9,1.7-1.3,3.5-1.3,5.4c0,0.7,0.1,1.4,0.1,2.1c0.1,1,0.5,1.9,1.1,2.7
		C13.5,20.1,13.6,20.2,13.7,20.2z"/>
	<path class="st13" d="M10.5,21.3c0,0.5,0,1.1-0.1,1.6c0,0.2,0,0.5-0.1,0.7c0,0,0,0.1,0,0.1c0,0.1-0.1,0.3-0.2,0.3
		c-0.2,0-0.3-0.1-0.4-0.2c-0.1-0.1-0.2-0.3-0.3-0.5c-0.1-0.3-0.2-0.6-0.2-1c0-0.1,0-0.1,0-0.2C9.2,22.1,9.1,22,9,22
		c-0.1,0-0.1,0.1-0.1,0.2C9,22.6,9,23,9.2,23.4c0.1,0.3,0.3,0.5,0.5,0.7c0.1,0.1,0.1,0.1,0.1,0.3c-0.1,0.5-0.3,1.1-0.6,1.5
		c-0.4,0.7-0.9,0.9-1.7,0.8c-0.4-0.1-0.7-0.4-0.9-0.7c-0.5-0.9-0.8-1.8-1-2.8c-0.1-0.3-0.1-0.7-0.1-1c0-0.5,0-1-0.1-1.4
		c0-0.6,0-1.3,0-1.9c0-0.3-0.1-0.5-0.3-0.5c-0.2,0-0.3,0.1-0.4,0.4c-0.1,0.3-0.1,0.6-0.1,0.9c-0.1,0.7-0.1,1.4-0.1,2
		c0,0.4,0,0.8-0.1,1.3c0,0.1,0,0.3-0.1,0.3c-0.1,0-0.2-0.1-0.2-0.3C4.1,22.5,4,22.1,4,21.7c-0.1-0.8,0-1.6,0-2.5
		C4,18.3,4,17.5,4,16.6c0-0.8,0.1-1.5,0.3-2.3c0-0.2,0.1-0.4,0.1-0.6c0-0.1,0-0.2,0.1-0.1c0.3,0.3,0.9,0.2,1.2-0.2
		C6,13.2,6.1,13,6.2,12.7c0,0,0-0.1,0.1-0.1c0,0.2,0,0.4,0,0.6c0,0.2,0.1,0.4,0.2,0.6C6.6,13.9,6.8,14,7,13.9c0,0.3,0,0.6,0,1
		c0,0.1,0,0.3,0,0.4c0.1,0.5,0.2,1,0.3,1.4c0.2,0.7,0.5,1.5,0.9,2.1c0.6,0.8,1.2,1.6,2,2.2C10.3,21.2,10.4,21.3,10.5,21.3z
		 M6.2,19.8C6.2,19.8,6.2,19.8,6.2,19.8c0,0.3,0,0.6,0,0.9c0.1,0.8,0.1,1.6,0.2,2.3c0,0.6,0.1,1.2,0.3,1.8c0.2,0.6,0.5,0.7,1.1,0.7
		c0.1,0,0.2,0,0.2-0.2c0-0.2-0.1-0.2-0.3-0.2c-0.4,0-0.5-0.1-0.7-0.4c-0.2-0.5-0.2-0.9-0.3-1.4c0-0.6-0.1-1.2-0.1-1.8
		c-0.1-0.8-0.1-1.7-0.1-2.5c0-0.1,0-0.2-0.2-0.2c-0.1,0-0.2,0.1-0.2,0.2c0,0.1,0,0.1,0,0.2C6.2,19.3,6.2,19.5,6.2,19.8z M8.8,24.9
		c0-0.2-0.1-0.3-0.2-0.3c-0.2,0-0.3,0.2-0.3,0.3c0,0.2,0.2,0.3,0.3,0.3C8.7,25.3,8.8,25.1,8.8,24.9z"/>
	<path class="st9" d="M10.5,21.3c-0.1,0-0.2-0.1-0.3-0.2c-0.8-0.6-1.5-1.4-2-2.2c-0.4-0.6-0.7-1.4-0.9-2.1c-0.1-0.5-0.2-1-0.3-1.4
		c0-0.1,0-0.3,0-0.4c0-0.3,0-0.6,0-1c0-0.1,0.1-0.1,0.2-0.2c0.1,0.2,0,0.3,0,0.5c0,0.2,0,0.3,0,0.5c0,0.1,0,0.1,0,0.2
		c-0.1,0-0.1-0.1-0.1-0.1c0,0,0,0.1,0,0.1c0,0.1,0.1,0.2,0.1,0.2c0,0.6,0.3,1.2,0.4,1.8c0.2,0.7,0.4,1.3,0.8,1.8
		c0.3,0.5,0.7,1,1.2,1.4c0,0,0.1,0.1,0.1,0.1c0,0.1,0,0.1,0.1,0.1c0,0,0.1,0.1,0.1,0.1c0.2,0.1,0.3,0.4,0.5,0.4
		C10.5,21.1,10.5,21.2,10.5,21.3z"/>
	<path class="st9" d="M10.8,21.2c0.4,0.2,0.8,0.4,1.1,0.7c0.4,0.3,0.8,0.4,1.3,0.6c0.5,0.2,1.1,0.3,1.6,0.4c0.2,0,0.5,0,0.7,0
		c0,0.1,0,0.2,0,0.3c-0.9,0-1.8-0.2-2.6-0.5c-0.6-0.2-1.2-0.6-1.8-1c-0.1-0.1-0.2-0.1-0.3-0.1C10.8,21.5,10.8,21.3,10.8,21.2z"/>
	<path class="st11" d="M10.5,21c-0.2-0.1-0.4-0.3-0.5-0.4c-0.1,0-0.1-0.1-0.1-0.1c0.1-0.1,0.1-0.2,0.1-0.3c0-0.1,0.1-0.1,0.1-0.1
		c0.2,0.1,0.3,0.2,0.5,0.2C10.6,20.5,10.6,20.7,10.5,21z"/>
	<path class="st14" d="M10.7,19.9c-0.2-0.1-0.3-0.2-0.1-0.4c0,0,0,0,0-0.1c-0.1-0.2,0.2-0.4,0.1-0.6c0,0,0-0.1,0-0.1
		c0,0,0.1-0.1,0.1-0.1c0.1,0,0,0.1,0,0.1c-0.1,0.3-0.3,0.6,0,0.9C10.8,19.8,10.7,19.8,10.7,19.9z"/>
	<path class="st15" d="M10.6,20.3c-0.2,0-0.4-0.1-0.5-0.2C10,20,10,20,9.9,20.1c0,0.1,0,0.2-0.1,0.3c-0.1,0-0.1,0-0.1-0.1
		c0.1-0.1,0.1-0.3,0.1-0.4c0-0.1,0-0.1,0.1-0.1c0.1,0,0.2,0.1,0.2,0.1c0.1,0.1,0.3,0.2,0.4,0.1C10.6,20.2,10.6,20.2,10.6,20.3z"/>
	<path class="st9" d="M27.8,25.2C27.8,25.2,27.8,25.2,27.8,25.2c-0.1-0.2-0.1-0.3-0.1-0.5c0-0.3,0-0.6,0-1c0,0,0,0,0.1,0
		c0,0.3,0,0.6,0,0.9C27.8,24.8,27.8,25,27.8,25.2z"/>
	<path class="st7" d="M27.8,23.7C27.8,23.7,27.8,23.7,27.8,23.7c0-0.3-0.1-0.6,0-1C27.9,23.1,27.8,23.4,27.8,23.7z"/>
	<path class="st14" d="M10.9,19.7c0-0.1,0-0.2,0-0.3c0,0,0-0.1,0.1-0.1c0,0,0.1,0,0,0.1c0,0.1,0,0.1,0,0.2
		C11,19.7,10.9,19.7,10.9,19.7z"/>
	<path class="st10" d="M12.5,31c-0.5,0.1-0.9-0.4-1-0.8c-0.1-0.4-0.2-0.8-0.2-1.2c-0.1-1-0.2-1.9-0.2-2.9c0-0.2,0-0.4,0-0.6
		c0-0.1,0.1-0.2,0.2-0.2c0.1,0,0.2,0.1,0.2,0.3c-0.1,0.6,0,1.2,0,1.8c0,0.5,0.1,1.1,0.1,1.6c0,0.4,0.1,0.7,0.2,1.1
		c0.1,0.4,0.5,0.6,0.9,0.5c0.1,0,0.2,0,0.3,0.1c0,0.1,0,0.2-0.1,0.3C12.7,31,12.6,31,12.5,31z"/>
	<path class="st10" d="M13.4,30.3c0-0.2,0.2-0.4,0.3-0.4c0.1,0,0.3,0.1,0.3,0.3c0,0.2-0.1,0.4-0.3,0.4
		C13.5,30.6,13.4,30.5,13.4,30.3z"/>
	<path class="st10" d="M14.3,29.6c-0.1,0-0.2-0.1-0.2-0.2c0-0.1,0.1-0.2,0.2-0.2c0.1,0,0.2,0.1,0.2,0.2
		C14.5,29.5,14.4,29.6,14.3,29.6z"/>
	<path class="st16" d="M22.8,5.4c0.1,0,0.1,0,0.1,0.1c-0.1,0.2-0.3,0.4-0.4,0.5c-0.1,0.1-0.1,0.2-0.1,0.3c0.1,0.1,0.2,0.1,0.3,0.1
		c0.3-0.1,0.6,0.1,0.8,0.2c0.4,0.3,0.7,0.6,0.9,1.1c0.4,0.8,0.8,1.6,0.9,2.5c0,0.2,0.1,0.5,0.1,0.7c0,0.4,0.2,0.7,0.2,1
		c0,0-0.1,0-0.1,0c-0.1,0-0.1,0-0.2-0.1c0-0.1,0.1-0.1,0.1-0.1c0.1,0,0.1-0.1,0-0.1c-0.3-0.1-0.5-0.1-0.8-0.2c0,0-0.1,0-0.1,0
		c0,0,0,0.1,0.1,0.1c0,0,0.1,0,0.1,0c0.2,0.1,0.4,0,0.4,0.3c0,0,0,0,0,0c0.1,0.1,0.3,0.2,0.5,0.2c0,0,0,0,0,0.1c0,0-0.1,0-0.1,0.1
		c-0.1,0.2-0.1,0.2-0.3,0.1c-0.1,0-0.2-0.1-0.2,0c0,0.1-0.1,0.1-0.1,0.1c-0.2,0-0.2,0.1-0.1,0.3c0,0,0.1,0.1,0,0.1c0,0-0.1,0-0.1,0
		c-0.1,0-0.2,0-0.3,0c0-0.6-0.1-1.2-0.3-1.8c-0.1-0.3-0.3-0.6-0.5-0.8c0,0,0-0.1-0.1-0.1c0.1,0,0.3-0.1,0.2-0.2
		c0-0.2-0.1-0.4-0.1-0.6c0-0.1-0.1-0.1-0.1-0.1c-0.2-0.1-0.2-0.2,0-0.3c0.2-0.2,0.5-0.3,0.7-0.5c0.1-0.1,0.1-0.2,0.1-0.3
		C24.1,8,24,8,23.9,8c-0.2,0-0.4,0-0.6-0.1c-0.1,0-0.1,0-0.1-0.1c0-0.2,0-0.3-0.3-0.2c-0.2,0-0.3,0-0.3-0.2c0-0.1-0.1-0.2-0.1-0.3
		c-0.1-0.3-0.3-0.5-0.3-0.8c0-0.2-0.1-0.4-0.3-0.6c0.1-0.1,0.3-0.2,0.4-0.3C22.5,5.4,22.6,5.4,22.8,5.4z"/>
	<path class="st11" d="M26.2,12.8c0,0.5,0,1,0,1.5c0.1,1.2-0.3,2.2-0.8,3.2c-0.2,0.3-0.3,0.5-0.4,0.8c0,0.1,0,0.1-0.1,0.1
		c-0.1-0.9-0.2-1.8-0.2-2.7c0-0.6-0.2-1.3-0.2-1.9c0-0.2,0-0.4,0-0.6c0,0.1,0.1,0.3,0.3,0.3c0,0,0,0,0,0c0,0.2,0.1,0.3,0.3,0.4
		c0.1,0,0.1,0.1,0.2,0.2c0,0.1,0,0.1-0.1,0.1c-0.4,0.1-0.4,0.3-0.1,0.6c0,0,0.1,0.1,0.1,0.1c0.2,0.2,0.2,0.5,0.1,0.8
		c0,0-0.1,0.1,0,0.1c0,0,0.1,0,0.1,0c0.1-0.1,0.1-0.2,0.1-0.3c0-0.3-0.1-0.5-0.3-0.7c-0.2-0.2-0.2-0.3,0.1-0.4
		c0.2-0.1,0.2-0.2,0.1-0.3c-0.1-0.1-0.2-0.2-0.3-0.3c0,0-0.1,0-0.1-0.1c0-0.2-0.3-0.3-0.3-0.5c0,0-0.1-0.1-0.1-0.1
		c0-0.1,0.1,0,0.2,0c0.1,0.1,0.2-0.1,0.2-0.1c-0.1-0.2,0-0.3,0.2-0.4c0.1,0,0.1,0,0.2,0c0.2,0.2,0.3,0.1,0.4-0.1
		c0,0.1,0,0.2,0.1,0.3C25.9,12.9,26,12.9,26.2,12.8z"/>
	<path class="st14" d="M25.7,12.4c-0.1,0.2-0.2,0.3-0.4,0.1c-0.1,0-0.1,0-0.2,0c-0.2,0.1-0.3,0.2-0.2,0.4c0,0.1-0.1,0.2-0.2,0.1
		c-0.1,0-0.1,0-0.2,0c0,0.1,0.1,0.1,0.1,0.1c0,0.2,0.3,0.3,0.3,0.5c0,0,0.1,0,0.1,0.1c0.1,0.1,0.2,0.2,0.3,0.3
		c0.1,0.2,0.1,0.3-0.1,0.3c-0.3,0.1-0.3,0.2-0.1,0.4c0.2,0.2,0.3,0.4,0.3,0.7c0,0.1-0.1,0.2-0.1,0.3c0,0-0.1,0-0.1,0
		c0,0,0-0.1,0-0.1c0.2-0.2,0.1-0.6-0.1-0.8c0,0-0.1-0.1-0.1-0.1c-0.3-0.3-0.2-0.4,0.1-0.6c0.1,0,0.1-0.1,0.1-0.1
		c0-0.1-0.1-0.1-0.2-0.2c-0.1-0.1-0.3-0.1-0.3-0.4c0,0,0,0,0,0c-0.2,0-0.2-0.1-0.3-0.3c0-0.1,0-0.3,0-0.4c0.1,0,0.2,0,0.3,0
		c0,0,0.1,0.1,0.1,0c0,0,0-0.1,0-0.1c-0.1-0.2,0-0.2,0.1-0.3c0.1,0,0.1,0,0.1-0.1c0.1-0.1,0.2-0.1,0.2,0c0.2,0.1,0.2,0.1,0.3-0.1
		c0,0,0,0,0.1-0.1C25.7,12.2,25.7,12.3,25.7,12.4z"/>
	<path class="st14" d="M25.6,12.1c-0.2,0.1-0.3,0-0.5-0.2c0,0,0,0,0,0c0-0.3-0.2-0.2-0.4-0.3c0,0-0.1,0-0.1,0c0,0-0.1,0-0.1-0.1
		c0,0,0,0,0.1,0c0.3,0.1,0.5,0.1,0.8,0.2c0.1,0,0.1,0.1,0,0.1c0,0-0.1,0-0.1,0.1c0,0.1,0.1,0.1,0.2,0.1c0,0,0.1,0,0.1,0
		C25.6,12,25.6,12,25.6,12.1z"/>
	<path class="st14" d="M20.6,13.6c0.1,0,0.2-0.1,0.3-0.2c0.1-0.1,0.2-0.1,0.2,0.1c0.1,0.2,0.2,0.2,0.3,0.1c0,0,0-0.1,0.1-0.1
		c0-0.1,0.1-0.2,0.2-0.1c0.1,0,0.1,0.1,0.1,0.2c0.1,0.5-0.1,0.9-0.6,1.2c-0.1,0.1-0.2,0.1-0.4,0.2c0.3,0.1,0.5,0,0.7-0.1
		c0,0,0.1-0.1,0.1,0c0.2,0.1,0.3,0,0.3-0.2c0-0.2,0.2-0.2,0.3-0.1c0.3,0.2,0.7,0.3,0.9,0.6c0.1,0.1,0.2,0.1,0.4,0.2
		c0.1,0,0.2,0,0.2-0.1c0-0.4-0.1-0.8-0.3-1.1c-0.1-0.2-0.1-0.2,0.1-0.4c0.2-0.1,0.3-0.2,0.2-0.5c0-0.1,0-0.1,0.1-0.2
		c0.1,0,0.3-0.1,0.4-0.1c0,0,0,0.1,0,0.1c-0.1,0-0.1,0.1-0.2,0.1c-0.1,0-0.2,0.1-0.1,0.2c0.1,0.2-0.1,0.2-0.2,0.3
		c-0.2,0.2-0.2,0.2-0.1,0.5c0.2,0.4,0.2,0.7,0.3,1.1c0,0.1,0,0.2-0.2,0.1c-0.3,0-0.5-0.2-0.8-0.4c-0.1-0.1-0.2-0.2-0.3-0.1
		c-0.1,0.1,0,0.2,0.1,0.3c0.1,0.1,0,0.2-0.1,0.2c-0.1,0-0.2,0.1-0.2,0.2c0,0.1-0.1,0.1-0.2,0.1c-0.4,0-0.9,0.1-1.2,0.3
		c-0.2,0.1-0.2,0.2-0.1,0.4c0.2,0.4,0.1,0.7,0,1.1c-0.1,0.2-0.3,0.4-0.3,0.7c0,0.2-0.3,0.2-0.4,0c-0.1-0.1-0.1-0.2-0.1-0.4
		c0-0.1-0.1-0.2-0.2-0.2c-0.1,0-0.2,0-0.2,0.1c0,0.2-0.1,0.2-0.2,0.3c-0.1,0-0.3,0-0.4,0.2c-0.1,0.1-0.2,0.1-0.3,0.1
		c-0.2,0-0.4,0-0.6,0.1c0,0-0.1,0-0.1,0c0-0.1,0-0.1,0.1-0.1c0.1-0.1,0.3-0.1,0.4-0.1c0.2,0,0.4,0,0.6-0.1c0.1-0.1,0.2-0.1,0.3-0.1
		c0.2,0,0.2-0.1,0.2-0.2c0-0.2,0-0.3,0.3-0.2c0.2,0.1,0.3,0.2,0.3,0.4c0,0,0,0.1,0,0.1c0,0.1,0,0.2,0.2,0.2c0.1,0,0.1-0.1,0.2-0.2
		c0.2-0.3,0.4-0.6,0.5-0.9c0.1-0.2,0-0.4-0.1-0.6c-0.1-0.3-0.1-0.4,0.2-0.6c0.4-0.2,0.8-0.3,1.2-0.3c0.1,0,0.2,0,0.3-0.1
		c0.2-0.2,0.3-0.3,0.1-0.5c0,0,0-0.1,0-0.1c0.1-0.1,0-0.2-0.1-0.2c-0.2-0.1-0.2-0.1-0.3,0.1c0,0.1-0.1,0.2-0.2,0.1
		c-0.2-0.1-0.4,0.1-0.5,0.1c-0.1,0-0.3,0.1-0.4,0c-0.2-0.1-0.2-0.2-0.1-0.3c0.2-0.1,0.4-0.2,0.5-0.4c0.2-0.2,0.4-0.4,0.3-0.7
		c0-0.1,0-0.2-0.1-0.1c-0.2,0.2-0.3,0.1-0.4-0.1c-0.1-0.1-0.1-0.1-0.1,0c-0.2,0.1-0.5,0.3-0.7,0.4c0,0-0.1,0.1-0.2,0
		c-0.1-0.1,0-0.1,0.1-0.2c0.2-0.1,0.2-0.3,0.2-0.5c0-0.1,0-0.1-0.1-0.1c-0.3,0-0.4-0.1-0.4-0.4c0-0.2,0-0.4,0-0.6
		c0-0.1,0-0.2-0.1-0.2c-0.1,0-0.2,0.1-0.2,0.2c0,0.3-0.2,0.4-0.4,0.4c-0.3,0-0.5,0.2-0.5,0.5c0,0.1-0.1,0.2-0.2,0.1
		c-0.1,0-0.2,0.1-0.3,0.1c-0.1,0.1-0.2,0.2-0.4,0.1c0,0-0.1,0-0.1-0.1c0,0,0-0.1,0.1,0c0.2,0,0.3-0.1,0.4-0.2c0,0,0.1-0.1,0.2-0.1
		c0.2,0.1,0.2-0.1,0.3-0.2c0.1-0.2,0.2-0.3,0.4-0.3c0.2,0,0.4-0.1,0.4-0.4c0-0.1,0.1-0.3,0.3-0.3c0.2,0,0.3,0.2,0.2,0.3
		c0,0.2,0,0.5,0,0.7c0,0.2,0,0.3,0.3,0.3c0.3,0,0.3,0,0.2,0.3c0,0.1,0,0.1,0.1,0.1C20.6,13.5,20.6,13.6,20.6,13.6
		c-0.1,0-0.1,0-0.1,0.1c0,0,0,0,0,0c0,0-0.1,0-0.1,0c0,0,0,0,0,0c0,0,0,0,0,0c0,0,0.1,0,0.1,0c0,0,0,0,0,0
		C20.5,13.7,20.5,13.7,20.6,13.6z"/>
	<path class="st14" d="M21.9,5.7c0.2,0.2,0.2,0.3,0.3,0.6c0,0.3,0.2,0.5,0.3,0.8c0,0.1,0.1,0.2,0.1,0.3c0,0.2,0.1,0.2,0.3,0.2
		c0.2,0,0.3,0,0.3,0.2c0,0.1,0,0.1,0.1,0.1C23.5,8,23.7,8,23.9,8c0.1,0,0.2,0,0.3,0.1c0.1,0.1,0,0.2-0.1,0.3
		c-0.2,0.2-0.4,0.3-0.7,0.5c-0.2,0.1-0.2,0.2,0,0.3c0,0,0.1,0,0.1,0.1c0,0.2,0.1,0.4,0.1,0.6c0,0.2-0.1,0.2-0.2,0.2c0,0-0.1,0-0.1,0
		c0.3-0.2,0.2-0.2,0.2-0.5c0-0.3-0.3-0.3-0.4-0.5c-0.1-0.1-0.3,0-0.4,0.1c-0.1,0.1,0,0.1,0,0.2c0.1,0.2,0,0.4-0.1,0.7c0,0,0,0-0.1,0
		c0,0,0,0,0-0.1c0-0.1,0-0.1,0-0.2c0-0.2,0.1-0.3-0.1-0.5c-0.1-0.1,0-0.2,0.1-0.2C22.8,9,23,9,23.1,8.9c0.3-0.1,0.6-0.3,0.9-0.6
		c0,0,0.1-0.1,0-0.2c0-0.1-0.1,0-0.1,0c-0.3,0-0.5-0.1-0.8-0.2c-0.1,0-0.1-0.1-0.1-0.2c0,0,0.1-0.1,0-0.1c-0.1,0-0.2,0-0.2,0
		c-0.1,0,0,0.1,0,0.1c0,0.1,0.1,0.2,0.1,0.3c0,0,0,0.1,0,0.1c0,0-0.1,0-0.1,0c-0.1-0.1-0.3-0.2-0.4-0.3c-0.2-0.2-0.5-0.3-0.8-0.3
		c0,0-0.2-0.1-0.1,0.1c0,0,0,0.1,0,0.1c-0.1-0.1-0.2,0.1-0.4,0c-0.3-0.1-0.6-0.1-0.9-0.1c-0.1,0-0.2,0-0.3,0
		c0.2,0.1,0.3,0.2,0.4,0.4c0.2,0.3,0.2,0.4-0.1,0.5c-0.1,0-0.2,0.1-0.3,0.1c-0.1,0.1-0.4,0.1-0.2,0.3c-0.1,0.1,0,0.3-0.1,0.4
		c-0.1,0.1-0.2,0.2-0.4,0.2c-0.1,0-0.2,0.1-0.3,0.2c-0.1,0.2-0.2,0.3-0.2,0.5c0,0.2-0.2,0.4-0.4,0.4c0,0,0,0,0,0
		c-0.1,0-0.1,0.1-0.1,0.1c0,0,0,0,0-0.1c0-0.1,0.1-0.1,0.2-0.1c0.1,0,0.2-0.1,0.3-0.2c0-0.1,0-0.1,0-0.2c-0.1-0.3,0.2-0.5,0.3-0.7
		c0-0.1,0.1,0,0.2-0.1c0.3-0.1,0.4-0.2,0.4-0.4c0-0.3,0-0.4,0.3-0.5c0.1-0.1,0.2-0.1,0.4-0.1c0.2,0,0.2-0.1,0.1-0.3
		C20,8.2,19.8,8,19.6,7.9c0,0-0.1,0-0.1-0.1c0-0.1,0.1-0.1,0.2-0.1c0.4,0,0.8-0.1,1.2,0c0.1,0,0.2-0.1,0.3-0.1
		c0.4-0.1,0.8,0,1.1,0.3c0,0,0,0,0,0c0.1,0.1,0.2,0.2,0.3,0.2c0.1-0.1,0-0.2-0.1-0.3c-0.2-0.5-0.3-1-0.6-1.5c0,0,0-0.1,0-0.1
		c0.1-0.2,0-0.2-0.1-0.3C21.8,5.7,21.9,5.7,21.9,5.7z"/>
	<path class="st11" d="M22.4,11.2c0-0.2,0.1-0.3,0.1-0.5c0.1-0.3,0.3-0.3,0.6-0.3c0.2,0,0.3,0.1,0.4,0.3c0,0.2-0.1,0.2-0.3,0.2
		c-0.2,0-0.4,0-0.6,0.2C22.6,11.1,22.5,11.2,22.4,11.2z"/>
	<path class="st14" d="M22.4,11.2c0.1,0,0.2-0.1,0.2-0.1c0.2-0.2,0.3-0.3,0.6-0.2c0.1,0,0.3,0,0.3-0.2c0.1,0,0.1,0.1,0.1,0.1
		c-0.1,0.2-0.2,0.2-0.4,0.2c-0.2,0-0.3,0-0.4,0.2c-0.1,0.1-0.2,0.2-0.3,0.2c-0.1,0.1-0.2,0.1-0.3,0.3c0,0.1-0.2,0.1-0.3,0.1
		c0,0,0,0,0,0c0,0,0-0.1,0-0.1c0.1,0,0.2,0,0.2-0.1C22.1,11.4,22.2,11.3,22.4,11.2C22.4,11.2,22.4,11.2,22.4,11.2L22.4,11.2z"/>
	<path class="st11" d="M22.4,11.2C22.4,11.2,22.4,11.2,22.4,11.2C22.4,11.2,22.4,11.2,22.4,11.2z"/>
	<path class="st15" d="M11.1,6.5c-0.4,0.1-0.7,0.4-1,0.7C10.1,7.2,10,7.3,9.9,7.3C9.8,7.2,9.8,7.1,9.8,7c0-0.2,0.1-0.4,0-0.6
		c0-0.1,0-0.2,0.1-0.2c0,0.2,0,0.5-0.1,0.7c0,0.1,0,0.2,0,0.2c0.1,0,0.1-0.1,0.1-0.1c0.2-0.2,0.4-0.3,0.6-0.5
		c0.2-0.1,0.2-0.2,0.3-0.3c0,0,0-0.1,0-0.1c-0.1-0.2,0-0.2,0.2-0.3c0.2,0,0.3-0.2,0.4-0.3c0.2-0.3,0.5-0.3,0.8-0.4c0,0,0.1,0,0.1,0
		c0,0,0,0.1-0.1,0.1c-0.1,0.1-0.3,0.2-0.5,0.2c-0.1,0-0.1,0.1-0.2,0.1c0,0.1-0.1,0.1,0,0.2c0.1,0.1,0.1,0.1,0.2,0.1
		c0.1,0,0.1,0,0.2,0c0.1,0,0.2,0.1,0.2,0.2c0,0.1-0.1,0.1-0.1,0c-0.1-0.1-0.2-0.1-0.2-0.1c-0.1,0-0.2,0-0.3-0.1c0,0,0-0.1-0.1-0.1
		c-0.2,0-0.3,0.2-0.4,0.2c0,0,0,0.2-0.1,0.3c0,0,0,0,0.1,0c0.2-0.1,0.3,0,0.5,0c0.2,0,0.4,0,0.5,0.2c0.1-0.3,0.3-0.5,0.5-0.6
		c0.1-0.1,0.2-0.1,0.3-0.1c0.1,0,0.1,0,0.1,0.1c0,0.1,0,0.1-0.1,0.1c-0.4,0-0.6,0.3-0.8,0.6c-0.1,0.1-0.1,0.2-0.2,0.3
		c0,0.1-0.1,0.1-0.1,0.1c-0.1,0,0-0.1,0-0.2c0,0,0-0.1,0-0.1c0-0.1,0.1-0.2,0-0.3c-0.1-0.1-0.3-0.1-0.4-0.1c0,0,0,0,0,0
		c0,0.3-0.3,0.6-0.4,0.9c0,0,0,0.1,0,0.1c0,0,0,0,0,0c0,0,0,0,0,0c0.1,0,0.2-0.1,0.3-0.1c0.2-0.1,0.3,0,0.3,0.2c0,0.1,0,0.2,0,0.3
		c0,0.1,0,0.2,0.1,0.3c0,0,0.1,0.1,0,0.2c0,0,0,0.1-0.1,0.1c0,0-0.2-0.3-0.2-0.3c0-0.1,0-0.3,0.1-0.4c0-0.1-0.1-0.2-0.2-0.1
		c-0.2,0.1-0.3,0.1-0.4,0.2c0,0-0.1,0.1-0.1,0c-0.1,0,0-0.1,0-0.1c0.2-0.3,0.2-0.6,0.4-0.9c0,0,0.1-0.1,0-0.1c-0.1,0-0.2,0-0.2,0.1
		c0,0.3-0.2,0.2-0.3,0.4c0,0-0.1,0-0.1,0c0-0.1,0-0.1,0.1-0.1C11.1,6.7,11.1,6.6,11.1,6.5C11.1,6.5,11.1,6.5,11.1,6.5
		C11.1,6.5,11.1,6.5,11.1,6.5z"/>
	<path class="st15" d="M16.6,3.1c-0.2,0.3-0.4,0.5-0.7,0.7c-0.1,0-0.1,0.1-0.1,0.1c0,0.1,0.1,0,0.1,0c0.1,0,0.3,0,0.4-0.1
		c0.2-0.1,0.2-0.1,0.3,0.1c0,0.1,0.1,0.1,0.2,0c0.1-0.1,0.1-0.2,0.2-0.2c0.1-0.1,0.2-0.1,0.3,0.1c0,0.1,0.1,0.1,0.2,0.1
		c0.1-0.1,0.2-0.1,0.4-0.2c0.1-0.1,0.2,0,0.3,0.1c0.1,0.2,0.2,0.3,0.4,0.3c0,0,0.1,0,0.1,0.1c0,0,0,0-0.1,0c-0.2,0-0.4-0.1-0.4-0.3
		c-0.1-0.1-0.1-0.1-0.2-0.1C17.7,3.9,17.5,4,17.4,4c-0.1,0-0.2,0-0.3-0.1c0-0.1-0.1-0.1-0.2-0.1c-0.1,0.1-0.2,0.1-0.1,0.2
		C17,4.2,17,4.4,17.1,4.5c0,0,0,0.1,0,0.1c0,0-0.1,0-0.1,0c0-0.1-0.1-0.1-0.1-0.2c0-0.2-0.1-0.2-0.2-0.2c-0.1,0-0.3,0-0.3-0.2
		c0-0.1-0.1,0-0.1,0c-0.1,0.1-0.2,0.1-0.1,0.2c0,0,0,0,0.1,0.1c0,0.1,0.1,0.1,0.1,0.2c0,0.1-0.1,0.1-0.2,0.1c-0.2,0-0.2,0.2-0.3,0.3
		C15.8,5,15.9,5,16,5.1c0.2,0.1,0.4,0.1,0.6,0.2c0.1,0,0.1,0,0.2,0c0.2,0,0.3,0,0.3,0.2c0,0.1,0,0.2,0.2,0.2c0.1,0,0.1,0,0.2,0.1
		c0.2,0.1,0.2,0.2,0,0.3c-0.1,0.1-0.2,0.2-0.2,0.4c0,0,0,0.1,0,0.1c0,0-0.1,0-0.1-0.1c0-0.1,0.1-0.3,0.1-0.4
		c0.2-0.3,0.2-0.3-0.1-0.3c-0.1,0-0.2-0.1-0.2-0.3c0,0,0-0.1,0-0.1c-0.1,0-0.1,0-0.2,0C16.5,5.7,16.1,5.7,16,6c0,0,0,0-0.1,0
		c0,0,0-0.1,0-0.1c0-0.1,0.1-0.2,0.2-0.2c0.1-0.1,0.2-0.2,0.4-0.3c0.1-0.1,0.1-0.2,0-0.2c-0.2,0-0.3-0.1-0.5-0.2
		c-0.2-0.1-0.2-0.2-0.1-0.3c0,0,0.1-0.1,0-0.2c-0.3,0.1-0.6,0.2-0.8,0.3c0,0-0.1,0-0.1,0.1c0,0-0.1,0-0.1,0c0-0.1,0-0.1,0.1-0.1
		c0,0,0.1,0,0.1-0.1c0.4-0.2,0.8-0.4,1.3-0.4c0-0.1-0.2-0.2-0.2-0.3c0,0-0.1,0-0.2,0c-0.1,0-0.2,0-0.2-0.1c0-0.1,0-0.2,0.1-0.2
		c0,0,0.1-0.1,0.1-0.1c0.3-0.1,0.5-0.3,0.6-0.6C16.4,3.1,16.5,3,16.6,3.1C16.6,3,16.6,3.1,16.6,3.1z"/>
	<path class="st14" d="M7.6,11c0.4-0.5,0.9-0.9,1.4-1.3c0.2-0.1,0.3-0.1,0.3,0.1c0,0.1,0,0.3,0.1,0.4c0.1,0.1,0.1,0.1,0.2,0
		c0.2-0.2,0.3-0.3,0.5-0.5c0.1-0.1,0.1-0.2,0.1-0.3c0-0.1,0.1-0.2,0.2-0.2c0.2,0,0.3-0.1,0.4-0.3c0,0,0-0.1,0.1-0.1
		c0-0.1,0.1-0.1,0.1-0.1C11.1,8.9,11,9,11,9c-0.1,0.2-0.3,0.4-0.6,0.4c0,0-0.1,0-0.1,0.1c-0.1,0.4,0,0.8,0.2,1.1
		c0.1-0.1,0.1-0.2,0.1-0.2c0.1-0.1,0.1-0.3,0.2-0.1c0,0,0,0,0.1,0c0.1,0,0-0.1,0-0.1c0-0.2,0-0.3,0.2-0.5c0,0,0.1-0.1,0.1-0.1
		c0.1,0.1,0,0.1-0.1,0.1c-0.1,0.1-0.2,0.3-0.1,0.4c0,0.1,0,0.2-0.1,0.2c-0.1,0.1-0.1,0.1-0.2,0c-0.1-0.1-0.1,0-0.1,0
		c0,0.1-0.1,0.2-0.1,0.3c0,0,0,0.1-0.1,0.1c0,0-0.1,0-0.1-0.1c-0.1-0.2-0.2-0.4-0.2-0.7c0-0.1,0-0.2-0.1-0.2C10,10,10,10.1,10,10.1
		c-0.1,0.1-0.2,0.2-0.3,0.3c-0.1,0.1-0.2,0.1-0.3,0c-0.1-0.1-0.1-0.3-0.1-0.4c0-0.1-0.1-0.2-0.2-0.1c-0.5,0.4-1.2,0.7-1.4,1.4
		c0,0,0,0.1-0.1,0.1C7.4,11.2,7.6,11.1,7.6,11z"/>
	<path class="st14" d="M21,5.7c-0.1,0.2-0.2,0.4-0.1,0.6c0,0.1-0.1,0.2-0.2,0.1c-0.2-0.1-0.3-0.2-0.3-0.4c0,0,0-0.1,0-0.1
		c-0.2-0.1-0.5,0.1-0.5,0.3c0,0.2-0.1,0.3-0.2,0.4c0,0-0.1,0.1-0.1,0.1c-0.1,0-0.1-0.1-0.1-0.1c0-0.3,0-0.3-0.3-0.1
		c-0.2,0.1-0.4,0.2-0.6,0.3c0,0-0.1,0.1-0.1,0c0-0.1,0-0.1,0.1-0.1c0.2-0.1,0.4-0.2,0.7-0.4c0,0,0,0,0,0c0.3-0.2,0.3-0.2,0.4,0.2
		c0.1-0.1,0.1-0.1,0.1-0.2c0-0.2,0.1-0.3,0.2-0.3c0.1-0.1,0.3-0.1,0.5-0.1c0.1,0,0.2,0.1,0.2,0.2c0,0.1,0,0.1,0.1,0.2
		c0.1,0,0.1,0.1,0.2,0.1c0.1,0,0.1-0.1,0-0.2c0-0.2,0.2-0.3,0.1-0.5C21,5.6,21,5.6,21,5.7z"/>
	<path class="st14" d="M22.8,5.4c-0.1,0-0.3,0-0.4,0c0-0.1,0.1-0.1,0.1-0.1c0.1,0,0.1,0,0.2,0C22.8,5.3,22.8,5.3,22.8,5.4z"/>
	<path class="st14" d="M18.1,22.8c0-0.1-0.1-0.2-0.1-0.3c-0.1-0.2-0.1-0.3-0.4-0.2c-0.2,0-0.3,0.1-0.5,0.1c-0.1,0-0.2,0-0.3-0.2
		c-0.1-0.1,0.1-0.2,0.1-0.2c0,0,0,0,0,0c-0.1,0-0.3,0-0.3-0.1c0-0.1,0.2-0.1,0.3-0.1c0.1-0.1,0.3-0.1,0.5-0.2
		c-0.2-0.2-0.3-0.3-0.4-0.5c0,0-0.1-0.1,0-0.1c0.1,0,0.1,0,0.1,0.1c0.1,0.2,0.2,0.4,0.4,0.5c0.1,0.1,0.1,0.1,0,0.2
		c-0.1,0.1-0.3,0.1-0.4,0.2c0.2,0.1,0.2,0.2,0,0.3c0,0-0.1,0.1-0.1,0.1c0,0.1,0.1,0.1,0.1,0.1c0.2,0,0.5-0.1,0.7-0.1
		c0.1,0,0.1-0.1,0.1-0.2c-0.1-0.3,0-0.3,0.2-0.4c0.2-0.1,0.4-0.2,0.6-0.3c0.1,0,0.1-0.1,0-0.2c0,0-0.1-0.1-0.1-0.1
		c-0.1-0.2-0.2-0.3-0.5-0.2c-0.1,0-0.3,0-0.4,0c-0.1,0-0.2-0.1-0.1-0.2c0.2-0.2,0.2-0.4,0.4-0.6c0.1-0.1,0-0.2-0.1-0.2
		c-0.2,0-0.4-0.1-0.6-0.1c-0.2,0-0.3-0.2-0.4-0.4c0,0,0-0.1,0-0.1c0,0,0.1,0,0.1,0c0.2,0.5,0.7,0.4,1,0.5c0.2,0,0.3,0.1,0.2,0.3
		c-0.1,0.2-0.2,0.4-0.3,0.6c-0.1,0.1,0,0.1,0.1,0.1c0.1,0,0.3,0.1,0.4-0.1c0-0.1,0.1,0,0.1,0c0.2,0.2,0.3,0.4,0.5,0.6
		c0.1,0.1,0,0.1-0.1,0.2c-0.3,0.1-0.5,0.2-0.8,0.3c-0.1,0-0.1,0.1-0.1,0.2c0.1,0.3,0.2,0.5,0.3,0.8C18.2,22.8,18.2,22.8,18.1,22.8z"
		/>
	<path class="st5" d="M15.5,16.7c-0.2,0-0.3,0.1-0.5,0c-0.5-0.1-0.8-0.6-0.8-1.1c0-0.4,0.2-0.8,0.6-1.1c0.3-0.2,0.6-0.1,0.9-0.1
		c0.3,0.1,0.5,0.3,0.6,0.6c0.1,0.4,0,0.7-0.2,1.1C16,16.4,15.7,16.6,15.5,16.7z"/>
	<path class="st15" d="M7.2,15.2c-0.1-0.1-0.1-0.1-0.1-0.2c0,0-0.1-0.1,0-0.1c0.1,0,0.1,0.1,0.1,0.1c0-0.1,0-0.1,0-0.2
		c0.1-0.1,0.2-0.1,0.2,0c0.1,0.2,0.3,0.3,0.4,0.4c0.1-0.1,0-0.2,0-0.3c-0.1-0.7-0.2-1.5,0-2.2c0-0.2,0.2-0.4,0.3-0.6
		c0,0,0.1-0.1,0.1-0.1c0.1,0,0,0.1,0.1,0.1c0,0,0,0.1,0,0.1c0.2,0.1,0.2,0.3,0.3,0.5c0,0,0,0,0,0.1c0.1-0.2,0.1-0.3,0.2-0.4
		c0-0.1,0-0.1,0.1-0.1c0.1,0,0.1,0.1,0.1,0.1c0,0.1,0.1,0.1,0.1,0c0.3-0.2,0.6-0.3,0.9-0.5c0,0,0.1,0,0.1,0c0,0,0.1,0,0.1,0
		c0,0.1,0,0.1-0.1,0.1c-0.2,0.1-0.5,0.2-0.7,0.4c-0.1,0-0.1,0-0.1,0.1c0.3,0.1,0.2,0.3,0.2,0.5c0,0.1,0,0.3,0.1,0.3
		c0.1,0,0.1-0.1,0.2-0.2c0.2-0.2,0.2-0.2,0.4,0c0.1,0.1,0.1,0.1,0.2,0.1c0.1,0,0.1,0,0.2,0.1c0.1,0.1,0,0.1,0,0.2
		c-0.1,0.2-0.3,0.3-0.4,0.5c-0.1,0.1-0.1,0.1,0,0.2c0.2,0.3,0.2,0.3-0.1,0.5c-0.2,0.1-0.2,0.3-0.1,0.5c0.1,0.2,0.2,0.4,0.2,0.7
		c0,0,0,0.1,0,0.1c-0.1-0.1-0.1-0.3-0.2-0.5c-0.1-0.1-0.1-0.2-0.1-0.4c0-0.1-0.1-0.2-0.2-0.1c-0.1,0-0.1,0.1-0.1,0.2
		c0,0,0,0.1,0,0.1c0.2,0.4,0,0.7-0.3,0.9c-0.1,0.1-0.3,0.2-0.4,0.3C9,16.5,9,16.5,9,16.6c0.2,0.3,0.2,0.6,0.3,0.9
		c0,0.1,0.1,0.3,0.1,0.4c0,0,0.1,0.1,0,0.1c0,0-0.1,0-0.1,0c-0.1-0.1-0.1-0.2-0.1-0.3c-0.1-0.3-0.1-0.7-0.2-1
		c-0.1-0.3-0.1-0.3,0.2-0.5c0.2-0.1,0.4-0.3,0.5-0.5c0.1-0.1,0.1-0.2,0.1-0.3c0-0.1-0.1-0.3-0.1-0.4c0-0.1,0-0.2,0.2-0.3
		c0.2,0,0.3-0.2,0.5-0.3c0.1-0.1,0-0.2-0.1-0.3c-0.2-0.1-0.1-0.2,0-0.3c0.2-0.2,0.3-0.3,0.5-0.6c-0.2,0.1-0.4,0-0.5-0.1
		c0-0.1-0.1,0-0.2,0c-0.1,0.1-0.1,0.2-0.2,0.3c0,0-0.1,0.1-0.1,0.1c-0.1,0-0.1-0.1-0.1-0.2c-0.1-0.2-0.1-0.4-0.1-0.6
		c0-0.1,0-0.2-0.2-0.2c-0.1,0-0.2,0-0.3-0.1c-0.1-0.1-0.1,0-0.1,0c0,0.1-0.1,0.2-0.1,0.3C8.8,13,8.8,13.1,9,13.1
		c0.1,0,0.2,0.1,0.1,0.2c0,0,0,0.1-0.1,0.1C9,13.6,9,13.7,9.2,13.7c0.1,0,0.2,0.1,0.2,0.2c0,0,0,0.1,0,0.1c0,0-0.1,0-0.1,0
		c0-0.1-0.1-0.1-0.2-0.1c-0.1,0-0.1,0-0.2,0c-0.1-0.1,0-0.1,0-0.2c0,0,0-0.1,0.1-0.1C9,13.3,9,13.3,8.8,13.3c-0.1,0-0.1-0.1-0.2-0.2
		c0-0.2,0-0.4-0.1-0.5c-0.1-0.1-0.1-0.3-0.2-0.3c0,0,0-0.1-0.1-0.1C8.1,12.4,8,12.7,8,13c0,0.6-0.1,1.3,0.1,1.9c0,0.1,0,0.2,0,0.3
		c0,0.1,0,0.1-0.1,0.1c-0.1,0-0.1,0-0.1-0.1c-0.1-0.1-0.2-0.2-0.3-0.3c0,0-0.1-0.1-0.1-0.1c-0.1,0,0,0.1,0,0.1
		C7.3,15.1,7.4,15.2,7.2,15.2z"/>
	<path class="st5" d="M17.2,17.4c0-0.1,0.2-0.3,0.3-0.3c0.1,0,0.2,0.1,0.2,0.2c0,0.2-0.2,0.3-0.3,0.3C17.3,17.7,17.2,17.5,17.2,17.4
		z"/>
	<path class="st14" d="M10.3,15.8C10.3,15.8,10.3,15.8,10.3,15.8c0.1-0.1,0.2,0,0.2,0c0.1,0.2,0.1,0.2,0.2,0c0.1-0.1,0.3-0.1,0.4,0
		c0,0,0,0.1,0,0.1c0,0-0.1,0-0.1,0c-0.1-0.1-0.2,0-0.3,0.1c-0.1,0.1-0.2,0.1-0.2,0C10.4,16,10.4,15.9,10.3,15.8z"/>
	<path class="st17" d="M13.7,20.2c-0.1,0-0.2-0.1-0.2-0.2c-0.6-0.8-0.9-1.7-1.1-2.7c-0.1-0.7-0.2-1.4-0.1-2.1
		c0.1-1.9,0.4-3.7,1.3-5.4c0.3-0.6,0.7-1.1,1.1-1.6c0,0,0.1-0.1,0.1-0.1c0.1,0,0,0.1,0,0.2c0,0.2-0.1,0.5-0.2,0.7
		c-0.4,1.1-0.7,2.2-0.9,3.3c-0.2,1-0.4,2-0.5,3c-0.1,1.2-0.2,2.4-0.1,3.6c0,0.4,0.2,0.9,0.4,1.2C13.7,20.1,13.7,20.1,13.7,20.2z"/>
	<path class="st10" d="M6.2,19.8c0-0.3,0-0.5,0-0.8c0-0.1,0-0.1,0-0.2c0-0.1,0.1-0.2,0.2-0.2c0.1,0,0.2,0.1,0.2,0.2
		c0,0.8,0,1.7,0.1,2.5c0.1,0.6,0.1,1.2,0.1,1.8c0,0.5,0.1,1,0.3,1.4c0.1,0.4,0.2,0.5,0.7,0.4c0.1,0,0.3,0,0.3,0.2
		c0,0.1-0.1,0.2-0.2,0.2c-0.6,0.1-0.9-0.1-1.1-0.7c-0.2-0.6-0.3-1.2-0.3-1.8c0-0.8-0.1-1.6-0.2-2.3C6.2,20.4,6.2,20.1,6.2,19.8
		C6.2,19.8,6.2,19.8,6.2,19.8z"/>
	<path class="st10" d="M8.8,24.9c0,0.2-0.1,0.3-0.3,0.3c-0.2,0-0.3-0.2-0.3-0.3c0-0.2,0.2-0.3,0.3-0.3C8.7,24.6,8.8,24.7,8.8,24.9z"
		/>
	<path class="st16" d="M20.4,13.7c0-0.1,0.1-0.1,0.1-0.1c0,0,0,0,0,0C20.5,13.7,20.5,13.7,20.4,13.7L20.4,13.7z"/>
	<path class="st16" d="M20.4,13.8C20.4,13.8,20.3,13.8,20.4,13.8L20.4,13.8C20.3,13.8,20.4,13.8,20.4,13.8
		C20.4,13.8,20.4,13.8,20.4,13.8z"/>
	<path class="st16" d="M20.4,13.7C20.4,13.7,20.4,13.7,20.4,13.7C20.4,13.8,20.4,13.8,20.4,13.7C20.4,13.7,20.4,13.7,20.4,13.7
		C20.4,13.7,20.4,13.7,20.4,13.7z"/>
	<path class="st16" d="M20.3,13.8C20.3,13.8,20.3,13.8,20.3,13.8C20.3,13.8,20.3,13.8,20.3,13.8C20.3,13.8,20.3,13.8,20.3,13.8z"/>
	<path class="st11" d="M11.2,7.4C11.2,7.4,11.2,7.4,11.2,7.4C11.2,7.4,11.2,7.4,11.2,7.4C11.2,7.4,11.2,7.4,11.2,7.4z"/>
	<path class="st11" d="M11.1,6.5C11.1,6.5,11.1,6.5,11.1,6.5C11.1,6.5,11.1,6.5,11.1,6.5C11.1,6.5,11.1,6.5,11.1,6.5z"/>
</g>
</svg>
