<?xml version="1.0" encoding="utf-8"?>
<!-- Generator: Adobe Illustrator 26.0.2, SVG Export Plug-In . SVG Version: 6.00 Build 0)  -->
<svg version="1.1" id="Layer_1" xmlns="http://www.w3.org/2000/svg" xmlns:xlink="http://www.w3.org/1999/xlink" x="0px" y="0px"
	 viewBox="0 0 62 32" style="enable-background:new 0 0 62 32;" xml:space="preserve">
<style type="text/css">
	.st0{fill:#FFFFFF;stroke:url(#SVGID_1_);stroke-width:2;}
	.st1{fill-rule:evenodd;clip-rule:evenodd;fill:#708B96;}
	.st2{fill-rule:evenodd;clip-rule:evenodd;fill:#424242;}
	.st3{fill:#FFCC33;}
	.st4{fill-rule:evenodd;clip-rule:evenodd;fill:#FFFFFF;}
	.st5{fill:#F5AC37;}
	.st6{fill:#FEFEFD;}
</style>
<g transform="translate(.010288 .053497)">
	
		<linearGradient id="SVGID_1_" gradientUnits="userSpaceOnUse" x1="15.9897" y1="33.946" x2="15.9897" y2="1.946" gradientTransform="matrix(1 0 0 -1 30.0003 33.893)">
		<stop  offset="0" style="stop-color:#444243"/>
		<stop  offset="1" style="stop-color:#708B96"/>
	</linearGradient>
	<circle class="st0" cx="46" cy="15.9" r="15"/>
	<path class="st1" d="M46.2,20.9L46.2,20.9L40,17.3l6.2,8.7v0h0v0l6.3-8.7L46.2,20.9z"/>
	<path class="st2" d="M46.2,5.9L46.2,5.9L46.2,5.9l6.2,10.2l-6.2-2.8L40,16.1L46.2,5.9L46.2,5.9L46.2,5.9z M46.2,13.3L40,16.1
		l6.2,3.6h0l6.2-3.6L46.2,13.3L46.2,13.3z"/>
</g>
<path class="st3" d="M0,16C0,7.2,7.2,0,16,0s16,7.2,16,16s-7.2,16-16,16S0,24.8,0,16z"/>
<path class="st4" d="M17.5,23L17.5,23l5.5,0v-2h-2.7c1.6-1.2,2.7-3.2,2.7-5.3C23,12,19.9,9,16,9s-7,3-7,6.8c0,2.2,1.1,4.1,2.7,5.3H9
	v2h5.5v-2.7c-2-0.6-3.5-2.5-3.5-4.6c0-2.7,2.2-4.9,5-4.9s5,2.2,5,4.9c0,2.2-1.5,4-3.5,4.6C17.5,20.4,17.5,23,17.5,23z"/>
<image style="overflow:visible;" width="638" height="785" id="eye_logo_xA0_Image" xlink:href="26D9B7956701C52D.png"  transform="matrix(3.200945e-02 0 0 3.200945e-02 6.0731 3.7855)">
</image>
<circle class="st5" cx="46" cy="16" r="16"/>
<path class="st6" d="M46.6,17.1h6.1c0.1,0,0.2,0,0.2-0.2c0-0.6,0-1.2,0-1.9c0-0.1-0.1-0.2-0.2-0.2H40.6c-0.1,0-0.2,0-0.2,0.2v1.8
	c0,0.2,0,0.2,0.2,0.2H46.6z M52.2,12.9c0,0,0-0.1,0-0.1c-0.1-0.2-0.2-0.4-0.4-0.6c-0.2-0.3-0.5-0.7-0.7-0.9
	c-0.1-0.2-0.3-0.3-0.5-0.4c-0.9-0.7-1.9-1.3-3-1.5C47.1,9.1,46.5,9,45.9,9h-5.4c-0.1,0-0.2,0.1-0.2,0.2v3.5c0,0.1,0,0.2,0.2,0.2
	L52.2,12.9C52.1,12.9,52.2,12.9,52.2,12.9L52.2,12.9L52.2,12.9z M52.2,19.2c-0.2,0-0.3,0-0.5,0H40.6c-0.1,0-0.2,0-0.2,0.2v3.5
	c0,0.2,0,0.2,0.2,0.2h5.1c0.2,0,0.5,0,0.7,0c0.7-0.1,1.5-0.2,2.2-0.5c0.3-0.1,0.5-0.2,0.7-0.3h0.1c1.2-0.6,2.2-1.6,2.8-2.8
	C52.2,19.4,52.3,19.3,52.2,19.2L52.2,19.2z M38.4,24.9L38.4,24.9v-2.4v-0.8v-2.4c0-0.1,0-0.1-0.2-0.1h-2.2c-0.1,0-0.2,0-0.2-0.2
	v-1.9h2.3c0.1,0,0.2,0,0.2-0.2v-1.9c0-0.1,0-0.1-0.2-0.1h-2.2c-0.1,0-0.2,0-0.2-0.2V13c0-0.1,0-0.1,0.2-0.1h2.2c0.1,0,0.2,0,0.2-0.2
	V7.3c0-0.2,0-0.2,0.2-0.2h7.5c0.5,0,1.1,0.1,1.6,0.2c1.1,0.2,2.2,0.6,3.1,1.2c0.6,0.4,1.2,0.8,1.8,1.4c0.4,0.4,0.8,0.9,1.1,1.3
	c0.3,0.5,0.6,1,0.8,1.5c0,0.1,0.2,0.2,0.3,0.2h1.8c0.2,0,0.2,0,0.2,0.2v1.6c0,0.2-0.1,0.2-0.2,0.2h-1.4c-0.1,0-0.2,0-0.2,0.2
	c0.1,0.6,0.1,1.2,0,1.8c0,0.2,0,0.2,0.2,0.2h1.6c0.1,0.1,0,0.2,0,0.3c0,0.1,0,0.2,0,0.3V19c0,0.2,0,0.2-0.2,0.2h-1.9
	c-0.1,0-0.3,0.1-0.3,0.2c-0.4,1.2-1.2,2.2-2.1,3.1c-0.3,0.3-0.7,0.6-1.1,0.9c-0.4,0.2-0.8,0.5-1.2,0.7c-0.8,0.3-1.5,0.6-2.4,0.7
	c-0.8,0.1-1.6,0.2-2.3,0.2L38.4,24.9L38.4,24.9L38.4,24.9z"/>
</svg>
