<?xml version="1.0" encoding="utf-8"?>
<!-- Generator: Adobe Illustrator 26.0.1, SVG Export Plug-In . SVG Version: 6.00 Build 0)  -->
<svg version="1.1" id="Layer_1" xmlns="http://www.w3.org/2000/svg" xmlns:xlink="http://www.w3.org/1999/xlink" x="0px" y="0px"
	 viewBox="0 0 32 32" style="enable-background:new 0 0 32 32;" xml:space="preserve">
<style type="text/css">
	.st0{fill-rule:evenodd;clip-rule:evenodd;fill:#FFFFFF;}
	.st1{fill:#FDFDFD;}
	.st2{fill:#FDFEFD;}
	.st3{fill:#EDF5E7;}
	.st4{fill:#9AE36B;}
	.st5{fill:#549F25;}
	.st6{fill:#9AE46C;}
	.st7{fill:#529E20;}
	.st8{fill:#7CC72E;}
	.st9{fill:#EAF4E4;}
	.st10{fill:#90DA38;}
	.st11{fill:#72BD2A;}
	.st12{fill:#9AE46B;}
	.st13{fill:#D1753D;}
	.st14{fill:#D1743D;}
	.st15{fill:#91DA39;}
	.st16{fill:#C93731;}
</style>
<path class="st0" d="M17.5,23L17.5,23l5.5,0v-2h-2.7c1.6-1.2,2.7-3.2,2.7-5.3C23,12,19.9,9,16,9s-7,3-7,6.8c0,2.2,1.1,4.1,2.7,5.3H9
	v2h5.5v0v-0.7v-2c-2-0.6-3.5-2.5-3.5-4.6c0-2.7,2.2-4.9,5-4.9s5,2.2,5,4.9c0,2.2-1.5,4-3.5,4.6V23z"/>
<g>
	<path class="st1" d="M28.5,16c0,5.2-25.4,8.4-25.4,4.9l0,0c0,0,0,0,0,0c0.1,0.4,0.1,0.9,0.2,1.3c0,0.3,0.1,0.5,0.3,0.7
		c0.2,0.2,0.3,0.1,0.4-0.1c0.2-0.3,0.2-0.6,0.2-1c0-1.1,0-2.2,0.2-3.3c0-0.1,0-0.3,0.1-0.4c0.1,0.1,0.1,0.2,0.1,0.4
		c0,1.1,0.1,2.2,0.1,3.4c0,0.3,0,0.6,0.1,0.9c0.2,1,0.5,1.9,1,2.8C6,26,6.3,26.3,6.7,26.5c0.5,0.1,0.9,0.1,1.3-0.1
		c0.4-0.2,0.7-0.6,0.9-1c0.2-0.3,0.3-0.7,0.4-1.1c0.1,0.2,0.1,0.3,0.1,0.4c0.1,0.4,0,0.8,0,1.2c0.1,0.5,0.1,0.9,0.2,1.4
		c0,1,0.2,2,0.5,3c0.1,0.5,0.4,0.9,0.7,1.2c0.1,0.1,0.2,0.2,0.3,0c0,0,0,0,0.1,0c0.1,0.1,0.3,0.1,0.5,0.1c0.2,0,0.4,0,0.6,0
		c0.4,0,0.8-0.1,1.1-0.4c0.1-0.1,0.1-0.2,0.3-0.2c0.1,0.1,0.2,0.1,0.3-0.1c0.1-0.2,0.2-0.4,0.2-0.7c0.2-0.6,0.4-1.2,0.5-1.8
		c0.2-1.1,0.2-2.3,0.3-3.4c0-0.2,0-0.3,0-0.5c0,0.1,0.1,0.1,0.1,0.1c0.1,0.5,0.3,1,0.4,1.6c0.1,0.5,0.2,0.9,0.6,1.3
		c0.1,0.1,0.2,0.2,0.4,0.1c0.2,0,0.3-0.2,0.3-0.3c0-0.4,0.1-0.7,0.1-1.1c0-0.1,0-0.2,0.1-0.3c0.1,0.6,0.1,1.1,0.2,1.6
		c0,0.4,0,0.8,0.1,1.3c0,0.1,0,0.3,0.2,0.2c0,0,0,0,0.1,0c0,0.1,0,0.2,0.1,0.3c0,0,0,0.1,0.1,0.1c0,0,0.1,0,0.1-0.1c0,0,0-0.1,0-0.1
		c0.1,0,0.2,0.1,0.2-0.1c0-0.4,0-0.8,0-1.1c-0.1-0.7-0.2-1.4-0.2-2.1c0-0.2,0-0.3,0.1-0.4c0-0.1,0-0.1,0.1-0.1
		c0.1,0,0.1,0.1,0.1,0.1c0.1,0.4,0.1,0.7,0.1,1.1c0,0.5,0.1,1.1,0.3,1.6c0.1,0.4,0.3,0.7,0.6,1c0.2,0.2,0.3,0.3,0.6,0.3
		c0.7,0.1,1.2-0.2,1.7-0.7c0.1-0.1,0.3-0.3,0.4-0.5c0.2-0.5,0.3-1.1,0.4-1.7c0.1-0.6,0-1.1,0.1-1.7c0,0,0-0.1,0.1-0.1
		c0.1,0.1,0.1,0.2,0.2,0.3c0.2,0.2,0.3,0.4,0.5,0.5c0.2,0.1,0.2,0.2,0.2,0.4c-0.2,0.6-0.2,1.2-0.2,1.9c0,0.3,0.1,0.6,0.2,0.9
		c0.3,0.5,0.7,0.7,1.2,0.6c0.4,0,1.1-0.6,1.2-1c0,0,0,0,0-0.1c0.1-0.4,0.1-0.8,0.2-1.1c0.1-0.8,0.2-1.6,0.4-2.3
		c0.1-0.4,0.2-0.8,0.4-1.1c0.1,0.2,0.1,0.3,0.1,0.5c0,0.4,0,0.7,0,1.1c0,0.3,0.2,0.4,0.5,0.3c0.1,0,0.2-0.1,0.3-0.3c0,0,0,0,0.1,0
		c0,0.1,0,0.2,0,0.3c0.1,0.3,0.1,0.5,0.1,0.8c0,0.1,0,0.2,0,0.3c0,0.1,0.1,0.3,0.2,0.3c0.1,0.1,0.3,0,0.4-0.1
		c0.2-0.2,0.3-0.5,0.3-0.7c0.1-1.1,0-2.1-0.1-3.2c0-0.6,0-1.2,0-1.7c0.1-0.8,0.2-1.5,0.1-2.3C28.2,17.9,28.3,16.9,28.5,16L28.5,16
		L28.5,16z"/>
	<path class="st2" d="M3.1,18.4c0-6,25.4-8.8,25.4-4.3c0,0,0,0,0,0c-0.1-0.6-0.2-1.3-0.2-1.9c-0.1-1.3-0.7-2.5-1.1-3.8
		c-0.1-0.5-0.4-0.9-0.6-1.4c-0.2-0.7-0.6-1.4-1-2c-0.5-0.8-1.1-1.5-1.8-2.1c-0.3-0.3-0.6-0.6-1-0.8C22,1.6,21,1.2,19.9,0.9
		c-1.4-0.4-2.9-0.5-4.4-0.5c-1.1,0.1-2.2,0.3-3.2,0.6c-0.7,0.2-1.3,0.5-1.9,0.9C10.3,2,10.2,2.1,10,2.2c-0.8,0.5-1.6,1-2.2,1.7
		C7.1,4.5,6.5,5.2,6,6C5.5,6.8,5,7.7,4.7,8.7c-0.2,0.5-0.3,1-0.5,1.5c-0.2,0.7-0.4,1.5-0.5,2.2c-0.1,0.6-0.2,1.1-0.3,1.7
		c-0.1,0.7-0.3,1.5-0.3,2.2C3.2,17,3.1,17.7,3.1,18.4C3.1,18.4,3.1,18.4,3.1,18.4z"/>
	<path class="st3" d="M3.1,18.4c0,0.8,0,1.7,0,2.5l0,0l0,0C3.1,20.1,3.1,18.4,3.1,18.4z"/>
	<path class="st3" d="M28.5,14.2C28.5,14.2,28.5,14.2,28.5,14.2c0,0.6,0,1.2,0,1.8l0,0l0,0C28.5,15.4,28.5,14.8,28.5,14.2z"/>
	<path class="st4" d="M17.8,29.1c0,0,0,0.1,0,0.1c0,0,0,0.1-0.1,0.1c-0.1,0-0.1-0.1-0.1-0.1c0-0.1,0-0.2-0.1-0.3
		c-0.1-0.8-0.1-1.6-0.2-2.3c0-0.3,0-0.6-0.1-0.9c0-0.2-0.1-0.3-0.3-0.3c-0.2,0-0.3,0.1-0.3,0.3c0,0.4-0.1,0.9-0.1,1.3
		c0,0.1,0,0.1-0.1,0.2c-0.1,0-0.1,0-0.2-0.1c-0.2-0.3-0.4-0.7-0.4-1c-0.1-0.3-0.1-0.6-0.2-0.9c-0.2-0.8-0.5-1.7-0.4-2.5
		c0.3,0,0.6,0,0.9,0c0.8,0,1.6-0.1,2.4-0.2c0.9,0,1.7-0.3,2.5-0.6c0.5-0.2,1-0.5,1.5-0.9c0.7-0.6,1.3-1.3,1.7-2.1
		c0.1,0.2,0.2,0.4,0.3,0.7c0.2,0.5,0.8,0.7,1.2,0.4c0.2-0.1,0.3-0.3,0.4-0.4c0.7-1,0.9-2.1,0.8-3.2c-0.1-1.2-0.4-2.3-0.5-3.5
		c0-0.3-0.1-0.6,0.1-0.9c0.1,0.1,0.1,0.2,0.1,0.3c0.1,0.3,0.1,0.6,0.3,0.9c0.1,0.2,0.2,0.3,0.4,0.2c0.2,0,0.3-0.1,0.4-0.3
		c0.1-0.2,0-0.5,0.1-0.7c0,0,0-0.1-0.1-0.1c-0.1,0-0.1,0-0.1,0.1c-0.1,0.1-0.1,0.2-0.1,0.3c0,0.1,0,0.2,0,0.3c0,0.1,0,0.2-0.1,0.2
		c-0.1,0-0.1-0.1-0.2-0.1c-0.1-0.1-0.1-0.2-0.1-0.3c-0.1-0.3-0.1-0.5-0.3-0.7c-0.1-0.1-0.1-0.2-0.3-0.2c-0.1,0-0.2,0.1-0.3,0.2
		c0,0.1,0,0.1,0,0.2c-0.1,0.3,0,0.5,0,0.8c0,0.5,0.1,0.9,0.1,1.4c0.1,0.7,0.3,1.3,0.3,2c0.1,0.9,0,1.8-0.5,2.6
		c-0.2,0.3-0.3,0.6-0.7,0.9c-0.3,0.2-0.6,0.1-0.8-0.2c-0.2-0.3-0.3-0.7-0.3-1c0.3-0.6,0.7-1.2,1-1.8c0.4-0.7,0.5-1.5,0.6-2.3
		c0-0.7,0.1-1.5,0-2.2c0-0.2,0-0.4-0.1-0.5c0.1-0.5,0.2-0.9,0.2-1.4c-0.1-0.5-0.1-1-0.2-1.5c-0.2-0.8-0.6-1.4-0.9-2.1
		C24.4,6,24,5.4,23.5,4.8c-0.2-0.3-0.5-0.4-0.8-0.1c0,0-0.1,0.1-0.1,0.1c-0.2,0-0.3-0.2-0.4-0.2c0.1-0.2,0.2-0.5,0.2-0.7
		c0-0.7-1-1.5-1.7-1c-0.2,0.1-0.3,0.2-0.5,0.4c0,0-0.1,0-0.1,0c-0.4-0.2-0.9-0.3-1.3-0.5c-0.4-0.1-0.7-0.1-1.1-0.2
		c-0.8-0.2-1.7-0.2-2.5,0c-1,0.2-2,0.6-3,1c-0.5,0.3-1,0.6-1.5,0.9c-0.4,0.3-0.9,0.6-1.3,1C9.2,5.7,9,5.9,8.8,6.1
		c-0.3,0.3-0.5,0.6-0.7,1C7.9,7.5,7.7,7.9,7.5,8.4C7.2,8.8,7,9.4,6.9,9.9c-0.2,0.5-0.3,1.1-0.3,1.6c-0.1,0.5-0.1,1-0.1,1.5
		c0,0.1,0,0.2-0.2,0.2c-0.1,0-0.1-0.1-0.2-0.1C6,12.9,6,12.8,6,12.6c0-0.3,0.1-0.5,0-0.8c0-0.1,0-0.3-0.2-0.3
		c-0.1,0-0.2,0.1-0.3,0.2c-0.1,0.1-0.1,0.3-0.2,0.5c-0.1,0.3-0.2,0.6-0.4,0.8c-0.2,0.2-0.3,0.2-0.6,0.2c-0.2-0.1-0.3-0.2-0.4-0.4
		c-0.1-0.3,0-0.5,0.1-0.8C4.3,10.8,4.7,9.8,5,8.7C5.2,7.9,5.6,7.2,6,6.5c0.2-0.4,0.4-0.8,0.7-1.1C7,5.1,7.2,4.8,7.5,4.6
		C8,4,8.6,3.5,9.2,3c0.4-0.3,0.9-0.5,1.3-0.8c0.2-0.2,0.4-0.3,0.7-0.4c0.8-0.4,1.7-0.7,2.6-0.9c0.9-0.2,1.8-0.3,2.7-0.2
		c0.8,0,1.6,0.1,2.4,0.2C19.5,1,20,1.2,20.6,1.4c0.7,0.2,1.4,0.6,2,1c0.5,0.3,1,0.7,1.4,1.1c0.2,0.2,0.3,0.4,0.4,0.5
		c0.4,0.4,0.7,0.9,1.1,1.4C26,6.1,26.3,7,26.7,7.9c0.3,0.7,0.5,1.5,0.7,2.2c0.3,0.9,0.6,1.9,0.6,2.8c0,0.7,0.2,1.3,0.2,2
		c0,0.2-0.1,0.4,0,0.6c0,0.2,0,0.4,0,0.6c-0.1,0.7-0.2,1.5-0.2,2.2c0,0.5,0.1,1,0,1.5c-0.1,0.9-0.2,1.7-0.2,2.6
		c0,1.1,0.1,2.1,0.1,3.2c0,0.1,0,0.3,0,0.4c0,0.2,0,0.4-0.2,0.5c0,0.1-0.1,0.1-0.2,0.1c-0.1,0,0-0.1,0-0.2c0-0.2,0-0.5,0-0.7
		c0-0.2-0.1-0.3-0.1-0.5c0.1-0.4-0.1-0.7,0-1.1c0-0.4,0-0.7,0-1.1c0-0.3,0.1-0.6,0-0.9c0-0.1,0-0.1-0.1-0.1c-0.1,0-0.2,0-0.2,0.1
		c-0.1,0.1-0.1,0.3-0.1,0.4c0,0.5,0,0.9,0,1.4c0,0.4,0,0.7,0,1.1c0,0.1,0,0.2-0.1,0.2c-0.1,0-0.1-0.1-0.1-0.2c0-0.6,0-1.2,0-1.9
		c0-0.1,0-0.3-0.2-0.3c-0.2,0-0.2,0.1-0.3,0.2c-0.1,0.2-0.2,0.5-0.2,0.7c-0.1,0.5-0.3,1-0.4,1.4c-0.1,0.6-0.2,1.1-0.2,1.7
		c-0.1,0.4-0.1,0.8-0.2,1.3c0,0.1,0,0.1-0.1,0.2c-0.2,0.2-0.4,0.4-0.6,0.6c-0.1,0.1-0.2,0.1-0.3,0.1c-0.6,0-1-0.4-1.1-1
		c-0.1-0.6,0-1.2,0.1-1.8c0-0.3,0.1-0.5,0.2-0.8c0.1-0.2,0-0.3-0.2-0.3c-0.1,0-0.1,0-0.2,0c-0.3-0.3-0.6-0.6-0.7-1
		c0-0.3-0.1-0.6-0.1-0.9c0-0.1,0-0.2-0.2-0.1c-0.1,0-0.1,0.1-0.1,0.2c0,0.1,0,0.1,0,0.2c0.1,0.8-0.1,1.7-0.1,2.5
		c0,0.6-0.1,1.1-0.3,1.7c-0.1,0.7-0.9,1.3-1.5,1.4c-0.4,0.1-0.7,0-1-0.4c-0.2-0.3-0.4-0.7-0.5-1c-0.2-0.5-0.2-1-0.2-1.5
		c0-0.3,0-0.6-0.1-0.8c0-0.1-0.1-0.3-0.2-0.3c-0.2-0.1-0.4,0-0.5,0.2c-0.2,0.5-0.1,1,0,1.5c0.1,0.7,0.2,1.5,0.2,2.2
		C17.7,29,17.7,29,17.8,29.1z M25.8,17.4c0,0.6-0.2,1.1-0.7,1.5C25,19,25,19.1,25,19.2c0.1,0.1,0.1,0.1,0.3,0.1
		c0.1-0.1,0.2-0.1,0.3-0.2c0.4-0.6,0.6-1.2,0.6-1.9c0-0.1-0.1-0.2-0.2-0.2c-0.1,0-0.2,0.1-0.2,0.2C25.8,17.2,25.8,17.3,25.8,17.4z
		 M24,28.3c0.2,0,0.3-0.1,0.4-0.3c0-0.1,0.1-0.2-0.1-0.3c-0.1-0.1-0.2,0-0.3,0.1c-0.1,0.1-0.2,0.1-0.2,0c-0.1-0.1-0.1-0.3-0.1-0.4
		c0-0.1,0-0.2-0.1-0.2c-0.1,0-0.2,0-0.2,0.1c-0.1,0.1-0.1,0.2-0.1,0.3c0.1,0.2,0.1,0.4,0.3,0.6C23.7,28.2,23.8,28.3,24,28.3z
		 M24.7,18.2c-0.1,0-0.2,0.1-0.2,0.2c0,0.1,0.1,0.2,0.2,0.2c0.1,0,0.2-0.1,0.2-0.2C24.9,18.3,24.8,18.3,24.7,18.2z M25,26.9
		c0.1,0,0.2-0.1,0.2-0.2c0-0.1-0.1-0.2-0.2-0.2c-0.1,0-0.2,0.1-0.2,0.2C24.8,26.8,24.9,26.9,25,26.9z M24.6,27.7
		c0.1,0,0.2-0.1,0.2-0.2c0-0.1-0.1-0.2-0.2-0.2c-0.1,0-0.2,0.1-0.2,0.2C24.4,27.6,24.5,27.7,24.6,27.7z"/>
	<path class="st5" d="M17.8,29.1c0-0.1,0-0.1,0-0.2c0-0.7-0.1-1.5-0.2-2.2c-0.1-0.5-0.2-1,0-1.5c0.1-0.2,0.3-0.3,0.5-0.2
		c0.2,0,0.2,0.2,0.2,0.3c0,0.3,0.1,0.6,0.1,0.8c0,0.5,0,1,0.2,1.5c0.1,0.4,0.3,0.7,0.5,1c0.3,0.4,0.6,0.4,1,0.4
		c0.6-0.1,1.4-0.7,1.5-1.4c0.1-0.6,0.3-1.1,0.3-1.7c0-0.8,0.2-1.7,0.1-2.5c0-0.1,0-0.1,0-0.2c0-0.1,0-0.2,0.1-0.2
		c0.1,0,0.1,0.1,0.2,0.1c0,0.3,0.1,0.6,0.1,0.9c0.1,0.4,0.3,0.8,0.7,1c0.1,0.1,0.1,0.1,0.2,0c0.2-0.1,0.3,0,0.2,0.3
		c-0.1,0.3-0.1,0.5-0.2,0.8c-0.1,0.6-0.2,1.2-0.1,1.8c0.1,0.6,0.5,1,1.1,1c0.1,0,0.2,0,0.3-0.1c0.2-0.2,0.4-0.4,0.6-0.6
		c0,0,0.1-0.1,0.1-0.2c0.1-0.4,0.1-0.8,0.2-1.3c0.1-0.6,0.1-1.1,0.2-1.7c0.1-0.5,0.2-1,0.4-1.4c0.1-0.2,0.1-0.5,0.2-0.7
		c0.1-0.1,0.1-0.3,0.3-0.2c0.2,0,0.2,0.2,0.2,0.3c0,0.6,0,1.2,0,1.9c0,0.1,0,0.2,0.1,0.2c0.1,0,0.1-0.1,0.1-0.2c0-0.4,0-0.7,0-1.1
		c0-0.5,0-0.9,0-1.4c0-0.2,0.1-0.3,0.1-0.4c0-0.1,0.1-0.1,0.2-0.1c0.1,0,0.1,0.1,0.1,0.1c0.1,0.3,0,0.6,0,0.9c0,0.4,0,0.7,0,1.1
		c0,0.4,0.1,0.7,0,1.1c0,0.2,0.1,0.3,0.1,0.5c0,0.2,0,0.5,0,0.7c0,0.1,0,0.1,0,0.2c0.1,0,0.1,0,0.2-0.1c0.1-0.2,0.1-0.4,0.2-0.5
		c0-0.1,0-0.3,0-0.4c0-1.1,0-2.1-0.1-3.2c0-0.9,0.1-1.7,0.2-2.6c0.1-0.5,0-1,0-1.5c0-0.7,0.1-1.5,0.2-2.2c0-0.2,0-0.4,0-0.6
		c0-0.2,0-0.4,0-0.6c0-0.7-0.1-1.3-0.2-2c-0.1-1-0.3-1.9-0.6-2.8c-0.3-0.7-0.4-1.5-0.7-2.2C26.3,7,26,6.1,25.5,5.3
		c-0.3-0.5-0.7-1-1.1-1.4c-0.2-0.2-0.3-0.3-0.4-0.5c-0.4-0.4-0.9-0.8-1.4-1.1c-0.6-0.4-1.3-0.8-2-1C20,1.2,19.5,1,18.9,0.9
		c-0.8-0.1-1.6-0.2-2.4-0.2c-0.9,0-1.8,0-2.7,0.2c-0.9,0.2-1.7,0.5-2.6,0.9c-0.2,0.1-0.5,0.2-0.7,0.4C10.1,2.5,9.6,2.7,9.2,3
		C8.6,3.5,8,4,7.5,4.6C7.2,4.8,7,5.1,6.7,5.4C6.5,5.7,6.2,6.1,6,6.5C5.6,7.2,5.2,7.9,5,8.7c-0.3,1.1-0.7,2.1-0.9,3.2
		C4,12.2,4,12.4,4,12.7c0,0.2,0.2,0.4,0.4,0.4c0.2,0.1,0.4,0,0.6-0.2c0.2-0.2,0.3-0.5,0.4-0.8c0.1-0.2,0.1-0.3,0.2-0.5
		c0.1-0.1,0.1-0.2,0.3-0.2C6,11.6,6,11.7,6,11.8c0,0.3,0,0.5,0,0.8c0,0.2,0,0.3,0.1,0.4c0,0.1,0.1,0.1,0.2,0.1
		c0.1,0,0.1-0.1,0.2-0.2c0.1-0.1,0.1-0.3,0.1-0.4c0-0.1,0.1-0.2,0.2-0.3c0.1,0,0.2,0.1,0.1,0.2c-0.1,0.3-0.1,0.5-0.2,0.8
		c-0.1,0.1-0.2,0.1-0.2,0.2c-0.2,0-0.4-0.1-0.5-0.3c-0.1-0.2-0.2-0.4-0.2-0.6c0-0.2,0-0.4,0-0.6c-0.1,0-0.1,0.1-0.1,0.1
		c-0.1,0.3-0.2,0.6-0.4,0.8c-0.3,0.4-0.9,0.5-1.2,0.2c-0.1-0.1-0.1,0-0.1,0.1c0,0.2-0.1,0.4-0.1,0.6c-0.2,0.7-0.3,1.5-0.3,2.3
		c0,0.9-0.1,1.7-0.1,2.6c0,0.8-0.1,1.6,0,2.5c0,0.4,0.1,0.9,0.2,1.3c0,0.1,0.1,0.3,0.2,0.3c0.1,0,0.1-0.2,0.1-0.3
		C4,22.1,4,21.6,4,21.2c0-0.7,0-1.4,0.1-2c0-0.3,0-0.6,0.1-0.9c0.1-0.3,0.2-0.4,0.4-0.4c0.2,0,0.3,0.2,0.3,0.5c0,0.6,0,1.3,0,1.9
		c0,0.5,0,1,0.1,1.4c0,0.3,0,0.7,0.1,1c0.2,1,0.5,1.9,1,2.8c0.2,0.4,0.5,0.7,0.9,0.7c0.8,0.1,1.2-0.1,1.7-0.8c0.3-0.5,0.5-1,0.6-1.5
		c0-0.1,0-0.2-0.1-0.3c-0.2-0.2-0.4-0.4-0.5-0.7c-0.1-0.4-0.2-0.8-0.3-1.2c0-0.1,0-0.2,0.1-0.2c0.1,0,0.2,0.1,0.2,0.1
		c0,0.1,0,0.1,0,0.2c0,0.3,0.1,0.7,0.2,1C8.9,23,9,23.2,9.1,23.3c0.1,0.1,0.2,0.2,0.4,0.2c0.2,0,0.2-0.2,0.2-0.3c0,0,0-0.1,0-0.1
		c0.1-0.2,0.1-0.5,0.1-0.7c0.1-0.5,0-1.1,0.1-1.6c0-0.1,0-0.2,0-0.3c0-0.2,0-0.5,0-0.7c0,0,0-0.1,0-0.1c0-0.1,0-0.1,0-0.2
		c0-0.1,0.1-0.2,0.1-0.2c0,0,0.1,0,0.1,0c0,0,0.1,0,0.1-0.1c0.1,0,0.2,0,0.3,0c0.2,0.1,0.3,0.3,0.3,0.6c0,0.2,0,0.4,0,0.6
		c0,0.1,0,0.1,0.1,0.2c0.1,0,0.1-0.1,0.1-0.1c0,0,0-0.1,0-0.1c0.1-0.3,0-0.6,0.1-0.9c0.3-0.2,0.4-0.1,0.4,0.2c0,0.1,0,0.2,0.1,0.3
		c0,0.1,0.1,0.1,0.2,0.1c0.1,0,0.1-0.1,0.1-0.2c0-0.2,0-0.3,0-0.5c0-0.1,0-0.2,0.1-0.1c0.1,0,0.1,0.1,0.1,0.2c0,0.1,0,0.3,0,0.4
		c0,0.3-0.1,0.4-0.3,0.5c-0.2,0-0.4-0.1-0.5-0.4c0,0.1,0,0.2,0,0.3c0,0.1,0,0.2-0.1,0.3c-0.1,0.2-0.3,0.3-0.4,0.3
		c-0.2,0-0.3-0.2-0.4-0.4c0-0.1,0-0.1,0-0.2c0-0.2,0-0.4,0-0.5c0-0.1,0-0.2-0.1-0.3c-0.1,0-0.1,0.1-0.2,0.2c0,0,0,0.1-0.1,0.1
		c-0.1,0.3-0.1,0.7-0.1,1c0,0.1,0,0.2,0,0.3c0,0.6,0,1.1-0.1,1.6c0,0.4-0.1,0.7-0.4,1c-0.1,0.1-0.1,0.1,0,0.2
		c0.1,0.4,0.1,0.9,0.1,1.3c0,0.3,0,0.6,0,0.9c0.1,0.5,0.1,1,0.2,1.5c0,0.9,0.3,1.8,0.5,2.7c0.1,0.3,0.2,0.5,0.4,0.7
		c0.1,0.1,0.3,0.2,0.4,0.4c0,0-0.1,0-0.1,0c-0.1,0.2-0.2,0.1-0.3,0c-0.4-0.3-0.6-0.7-0.7-1.2c-0.3-1-0.5-2-0.5-3
		c0-0.5-0.1-0.9-0.2-1.4c0-0.4,0-0.8,0-1.2c0-0.1,0-0.3-0.1-0.4c-0.1,0.4-0.3,0.7-0.4,1.1c-0.2,0.4-0.5,0.8-0.9,1
		c-0.4,0.2-0.9,0.2-1.3,0.1C6.3,26.3,6,26,5.8,25.6c-0.5-0.9-0.9-1.8-1-2.8c0-0.3-0.1-0.6-0.1-0.9c0-1.1-0.1-2.2-0.1-3.4
		c0-0.1,0-0.2-0.1-0.4c-0.1,0.1-0.1,0.3-0.1,0.4c-0.1,1.1-0.1,2.2-0.2,3.3c0,0.4-0.1,0.7-0.2,1c-0.1,0.2-0.2,0.3-0.4,0.1
		c-0.2-0.2-0.3-0.4-0.3-0.7c-0.1-0.4-0.1-0.9-0.2-1.3c0-0.8,0-1.7,0-2.5c0-0.7,0.1-1.4,0.1-2.1c0-0.8,0.1-1.5,0.3-2.2
		c0.1-0.6,0.2-1.1,0.3-1.7c0.1-0.8,0.3-1.5,0.5-2.2c0.1-0.5,0.3-1,0.5-1.5C5,7.7,5.5,6.8,6,6c0.5-0.8,1.1-1.4,1.7-2.1
		C8.4,3.3,9.2,2.7,10,2.2c0.2-0.1,0.3-0.2,0.5-0.3c0.6-0.4,1.2-0.7,1.9-0.9c1-0.3,2.1-0.6,3.2-0.6c1.5-0.1,2.9,0.1,4.4,0.5
		c1,0.3,2,0.7,2.9,1.3c0.4,0.3,0.7,0.5,1,0.8c0.7,0.6,1.3,1.3,1.8,2.1c0.4,0.6,0.7,1.3,1,2c0.2,0.5,0.4,0.9,0.6,1.4
		c0.3,1.3,0.9,2.5,1.1,3.8c0.1,0.6,0.1,1.3,0.2,1.9c0,0.6,0,1.2,0,1.8c-0.2,0.9-0.3,1.9-0.2,2.8c0,0.8-0.1,1.5-0.1,2.3
		c0,0.6-0.1,1.2,0,1.7c0.1,1.1,0.1,2.1,0.1,3.2c0,0.3-0.1,0.5-0.3,0.7c-0.1,0.1-0.2,0.1-0.4,0.1c-0.1-0.1-0.2-0.2-0.2-0.3
		c0-0.1,0-0.2,0-0.3c0-0.3,0-0.5-0.1-0.8c0-0.1,0-0.2,0-0.3c0-0.1,0-0.2,0-0.4c0-0.2,0-0.4,0-0.5c0-0.3,0-0.6,0-0.9
		c0-0.3,0.1-0.6,0-1c-0.1,0.3,0,0.6-0.1,0.9c0,0.3,0,0.6,0,1c0,0.2,0,0.3,0,0.5c0,0.1,0,0.2,0,0.4c-0.1,0.1-0.1,0.2-0.3,0.3
		c-0.2,0.1-0.5-0.1-0.5-0.3c0-0.4,0-0.7,0-1.1c0-0.1,0-0.3-0.1-0.5c-0.2,0.4-0.2,0.8-0.4,1.1c-0.2,0.8-0.3,1.5-0.4,2.3
		c0,0.4-0.1,0.8-0.2,1.1c0,0,0,0,0,0.1c-0.1,0.4-0.8,1-1.2,1c-0.5,0-1-0.2-1.2-0.6c-0.2-0.3-0.2-0.6-0.2-0.9c0-0.6,0-1.3,0.2-1.9
		c0.1-0.2,0.1-0.3-0.2-0.4c-0.2-0.1-0.4-0.3-0.5-0.5c-0.1-0.1-0.1-0.2-0.2-0.3c-0.1,0-0.1,0.1-0.1,0.1C22,25.3,22,25.9,22,26.4
		c-0.1,0.6-0.2,1.1-0.4,1.7c-0.1,0.2-0.2,0.3-0.4,0.5c-0.5,0.5-1,0.8-1.7,0.7c-0.2,0-0.4-0.1-0.6-0.3c-0.3-0.3-0.5-0.6-0.6-1
		c-0.2-0.5-0.3-1-0.3-1.6c0-0.4,0-0.7-0.1-1.1c0-0.1,0-0.1-0.1-0.1c-0.1,0-0.1,0.1-0.1,0.1c-0.1,0.1-0.1,0.3-0.1,0.4
		c0,0.7,0.1,1.4,0.2,2.1c0,0.4,0,0.8,0,1.1C18,29.2,17.8,29.1,17.8,29.1z"/>
	<path class="st6" d="M11.3,31.4c-0.1-0.1-0.3-0.2-0.4-0.4c-0.2-0.2-0.3-0.5-0.4-0.7c-0.3-0.9-0.5-1.8-0.5-2.7c0-0.5-0.1-1-0.2-1.5
		c0-0.3,0-0.6,0-0.9c0-0.4,0-0.9-0.1-1.3c0-0.1,0-0.1,0-0.2c0.3-0.2,0.4-0.6,0.4-1c0.1-0.5,0.1-1.1,0.1-1.6c0.1,0,0.2,0.1,0.3,0.1
		c0.6,0.3,1.1,0.7,1.8,1c0.9,0.3,1.7,0.5,2.6,0.5c0,0.5-0.1,1-0.1,1.5c0,0.9-0.1,1.8-0.1,2.7c0,0.5-0.1,1-0.2,1.4
		c-0.2,0.8-0.5,1.7-0.8,2.5c-0.1,0-0.2,0.1-0.3,0.2c-0.3,0.3-0.6,0.4-1.1,0.4c-0.2,0-0.4,0-0.6,0C11.6,31.5,11.4,31.5,11.3,31.4z
		 M11.9,30.6c0.1,0,0.2,0,0.4,0c0.1,0,0.2-0.1,0.1-0.3c0-0.1-0.1-0.1-0.3-0.1c-0.4,0.1-0.8-0.1-0.9-0.5C11.1,29.3,11,29,11,28.6
		c-0.1-0.5-0.1-1.1-0.1-1.6c0-0.6-0.1-1.2,0-1.8c0-0.1,0-0.3-0.2-0.3c-0.1,0-0.2,0.1-0.2,0.2c0,0.2-0.1,0.4,0,0.6
		c0,1,0.1,1.9,0.2,2.9c0,0.4,0.1,0.8,0.2,1.2C11,30.2,11.4,30.6,11.9,30.6z M12.8,29.9c0,0.2,0.1,0.3,0.3,0.3c0.2,0,0.3-0.2,0.3-0.4
		c0-0.2-0.1-0.3-0.3-0.3C12.9,29.5,12.8,29.7,12.8,29.9z M13.8,29.1c0.1,0,0.2-0.1,0.2-0.2c0-0.1-0.1-0.2-0.2-0.2
		c-0.1,0-0.2,0.1-0.2,0.2C13.6,29.1,13.6,29.1,13.8,29.1z"/>
	<path class="st5" d="M13.7,30.8c0.3-0.8,0.6-1.7,0.8-2.5c0.1-0.5,0.2-1,0.2-1.4c0-0.9,0.1-1.8,0.1-2.7c0-0.5,0.1-1,0.1-1.5
		c0-0.1,0-0.2,0-0.3c0.1,0,0.1,0,0.2,0c0,0.1,0,0.2,0,0.2c-0.1,0.9,0.2,1.7,0.4,2.5c0.1,0.3,0.1,0.6,0.2,0.9c0.1,0.4,0.2,0.7,0.4,1
		c0,0.1,0.1,0.1,0.2,0.1c0.1,0,0.1-0.1,0.1-0.2c0.1-0.4,0.1-0.9,0.1-1.3c0-0.2,0.1-0.3,0.3-0.3c0.2,0,0.3,0.1,0.3,0.3
		c0.1,0.3,0.1,0.6,0.1,0.9c0.1,0.8,0.1,1.6,0.2,2.3c0,0,0,0-0.1,0c-0.2,0.1-0.2-0.1-0.2-0.2c-0.1-0.4-0.1-0.8-0.1-1.3
		c0-0.5-0.1-1.1-0.2-1.6c-0.1,0.1-0.1,0.2-0.1,0.3c0,0.4-0.1,0.7-0.1,1.1c0,0.2-0.1,0.3-0.3,0.3c-0.2,0-0.3,0-0.4-0.1
		c-0.3-0.4-0.5-0.8-0.6-1.3c-0.1-0.5-0.3-1-0.4-1.6c0,0,0,0-0.1-0.1c0,0.2,0,0.4,0,0.5c-0.1,1.1-0.1,2.3-0.3,3.4
		c-0.1,0.6-0.3,1.2-0.5,1.8c-0.1,0.2-0.1,0.5-0.2,0.7C13.9,30.9,13.8,31,13.7,30.8z"/>
	<path class="st6" d="M27.1,25.1c0-0.1,0.1-0.2,0-0.4c0,0,0,0,0,0C27.2,24.8,27.3,25,27.1,25.1C27.2,25.1,27.2,25.1,27.1,25.1z"/>
	<path class="st3" d="M22.5,4.8C22.6,4.8,22.6,4.8,22.5,4.8c0.4-0.3,0.7-0.2,0.9,0C24,5.4,24.4,6,24.8,6.7c0.3,0.7,0.7,1.4,0.9,2.1
		c0.1,0.5,0.2,1,0.2,1.5c0.1,0.5-0.1,0.9-0.2,1.4c-0.1,0.2-0.1,0.4-0.1,0.6c-0.2,0.1-0.3,0.1-0.4-0.1c0-0.1-0.1-0.2-0.1-0.3
		c0-0.1,0-0.1,0-0.2c0,0,0,0,0-0.1c0,0,0-0.1,0-0.1c0-0.4-0.2-0.7-0.2-1c0-0.2-0.1-0.5-0.1-0.7c-0.1-0.9-0.5-1.7-0.9-2.5
		c-0.2-0.4-0.5-0.8-0.9-1.1C22.7,6,22.4,5.9,22.1,6c-0.1,0-0.2,0-0.3-0.1c-0.1-0.1,0-0.2,0.1-0.3c0.1-0.2,0.3-0.4,0.4-0.5
		C22.4,5,22.5,4.9,22.5,4.8z"/>
	<path class="st7" d="M24.3,18.4c0,0.4,0.1,0.7,0.3,1c0.2,0.3,0.5,0.4,0.8,0.2c0.3-0.2,0.5-0.5,0.7-0.9c0.4-0.8,0.5-1.7,0.5-2.6
		c-0.1-0.7-0.2-1.3-0.3-2c-0.1-0.4-0.1-0.9-0.1-1.4c0-0.3-0.1-0.5,0-0.8c0-0.1,0-0.1,0-0.2c0-0.1,0.1-0.2,0.3-0.2
		c0.1,0,0.2,0.1,0.3,0.2c0.1,0.2,0.2,0.5,0.3,0.7c0,0.1,0,0.2,0.1,0.3c0,0.1,0.1,0.2,0.2,0.1c0.1,0,0.1-0.1,0.1-0.2
		c0-0.1,0-0.2,0-0.3c0-0.1,0-0.2,0.1-0.3c0,0,0.1-0.1,0.1-0.1c0.1,0,0.1,0.1,0.1,0.1c-0.1,0.2,0,0.5-0.1,0.7
		c-0.1,0.2-0.2,0.3-0.4,0.3c-0.2,0-0.3-0.1-0.4-0.2c-0.1-0.3-0.2-0.6-0.3-0.9c0-0.1-0.1-0.2-0.1-0.3c-0.1,0.3-0.1,0.6-0.1,0.9
		c0.1,1.2,0.4,2.3,0.5,3.5c0.1,1.2-0.2,2.3-0.8,3.2c-0.1,0.2-0.3,0.3-0.4,0.4c-0.5,0.3-1,0.2-1.2-0.4c-0.1-0.2-0.1-0.5-0.3-0.7
		c0-0.1,0-0.2-0.1-0.3c0-0.1,0-0.1,0-0.2c-0.1-0.6-0.2-1.2-0.2-1.7c0-0.5,0-0.9-0.1-1.4c-0.1-0.9-0.2-1.7-0.2-2.6c0,0,0-0.1,0-0.1
		c0-0.4,0-0.7-0.1-1.1c-0.1-0.4-0.2-0.8-0.4-1.1c0-0.1,0-0.1-0.1-0.1c-0.1-0.2-0.2-0.3-0.4-0.3c-0.2,0-0.5,0.1-0.6,0.3
		c-0.1,0.2-0.1,0.3-0.1,0.5c0,0,0,0,0,0c0,0,0,0,0,0c-0.1,0.1-0.2,0.2-0.3,0.3c-0.2,0.1-0.4,0-0.6-0.2c-0.3-0.3-0.4-0.7-0.4-1.1
		c0-0.1,0-0.3-0.1-0.3c-0.1-0.1-0.2,0.1-0.2,0.1c0,0-0.1,0-0.1,0c-0.1,0-0.1-0.1-0.1-0.1c0-0.2,0.2-0.3,0.3-0.3c0.1,0,0.2,0,0.3,0.1
		c0.1,0.2,0.1,0.4,0.2,0.6c0,0.3,0.1,0.6,0.4,0.9c0.1,0.1,0.2,0.1,0.2,0c0.2-0.1,0.3-0.3,0.3-0.5c0.1-0.3,0.3-0.5,0.6-0.6
		c0.2-0.1,0.4,0,0.5,0c0,0,0.1,0,0.1,0c0,0,0,0.1,0.1,0.1c0.3,0.2,0.4,0.5,0.5,0.8c0.2,0.6,0.3,1.2,0.3,1.8c0,0.1,0,0.3,0,0.4
		c0,0.2,0,0.4,0,0.6c0.1,0.6,0.2,1.3,0.2,1.9c0.1,0.9,0.1,1.8,0.2,2.7C24.3,18.1,24.3,18.3,24.3,18.4z"/>
	<path class="st8" d="M6.7,12.3c-0.1,0.1-0.2,0.2-0.2,0.3c0,0.1,0,0.3-0.1,0.4c0-0.5,0-1,0.1-1.5c0.1-0.5,0.2-1.1,0.3-1.6
		c0.2-0.5,0.4-1,0.6-1.5c0.2-0.4,0.4-0.8,0.6-1.2c0.2-0.4,0.4-0.7,0.7-1C9,5.9,9.2,5.7,9.4,5.4c0.4-0.4,0.8-0.7,1.3-1
		c0.5-0.3,0.9-0.6,1.5-0.9c0.9-0.5,1.9-0.8,3-1c0.8-0.2,1.7-0.2,2.5,0c0.4,0.1,0.7,0.1,1.1,0.2C19.1,2.9,19.6,3,20,3.2
		c0,0,0.1,0,0.1,0c0,0.1-0.1,0.2-0.1,0.2c-0.1,0-0.2-0.1-0.3-0.1c-0.4-0.2-0.8-0.3-1.2-0.4c-0.8-0.2-1.7-0.3-2.5-0.3
		c0,0,0-0.1,0-0.1c-0.1,0-0.1,0.1-0.1,0.1c-0.3,0-0.5,0-0.8,0.1c-0.3,0.1-0.6,0.2-0.9,0.3c-0.8,0.2-1.6,0.6-2.4,1
		c-0.4,0.2-0.8,0.5-1.1,0.7C10.3,5,10,5.2,9.7,5.5C9.6,5.6,9.6,5.7,9.4,5.8C9.3,5.8,9.3,5.9,9.3,6c-0.4,0.3-0.8,0.8-1,1.2
		C8,7.9,7.6,8.6,7.3,9.3C7.2,9.7,7,10.1,7,10.6c0,0.1-0.2,0.2-0.1,0.3c-0.1,0.1,0,0.2-0.1,0.3C6.8,11.6,6.7,11.9,6.7,12.3z"/>
	<path class="st3" d="M20,3.5c0-0.1,0.1-0.2,0.1-0.2c0.1-0.2,0.3-0.3,0.5-0.4c0.7-0.5,1.7,0.2,1.7,1c0,0.3,0,0.5-0.2,0.7
		C22,4.7,22,4.8,21.9,4.9c-0.1,0-0.1,0.1-0.1,0.1c-0.1,0.1-0.3,0.2-0.4,0.3c0,0-0.1,0-0.1,0c-0.3,0.1-0.5,0-0.7-0.1
		c0,0-0.1-0.1-0.1-0.1c-0.2-0.2-0.3-0.5-0.3-0.7C19.9,4.1,20,3.8,20,3.5z"/>
	<path class="st8" d="M24,18.5c0.1,0.1,0.1,0.2,0.1,0.3c-0.5,0.8-1,1.5-1.7,2.1c-0.4,0.4-0.9,0.7-1.5,0.9c-0.8,0.3-1.6,0.6-2.5,0.6
		c-0.8,0-1.6,0.2-2.4,0.2c-0.3,0-0.6,0-0.9,0c0-0.1,0-0.2,0-0.2c0.8-0.1,1.6,0,2.4-0.1c0,0,0.1,0,0.1,0c0.1,0,0.2,0,0.3,0
		c0.4,0,0.7-0.1,1.1-0.1c0.5-0.1,0.9-0.2,1.3-0.4c0.7-0.2,1.3-0.6,1.9-1.1c0.6-0.5,1.1-1.1,1.4-1.7C23.8,18.8,23.9,18.6,24,18.5z"/>
	<path class="st8" d="M24.3,18.4c-0.1-0.1-0.1-0.3-0.1-0.4c0.1,0,0.1-0.1,0.1-0.1c0.1-0.3,0.3-0.5,0.4-0.8c0.6-1,0.9-2,0.8-3.2
		c0-0.5,0-1,0-1.5c0-0.2,0.1-0.4,0.1-0.6c0.1,0.1,0.1,0.3,0.1,0.5c0.1,0.7,0,1.5,0,2.2c0,0.8-0.2,1.5-0.6,2.3
		C25,17.2,24.7,17.8,24.3,18.4z"/>
	<path class="st9" d="M25.8,17.4c0-0.1,0-0.2,0-0.3c0-0.1,0-0.2,0.2-0.2c0.1,0,0.2,0.1,0.2,0.2c0.1,0.7-0.1,1.4-0.6,1.9
		c-0.1,0.1-0.2,0.2-0.3,0.2c-0.1,0-0.2,0-0.3-0.1c-0.1-0.1,0-0.2,0.1-0.2C25.6,18.5,25.8,18,25.8,17.4z"/>
	<path class="st9" d="M24,28.3c-0.1,0-0.3-0.1-0.3-0.2c-0.1-0.2-0.2-0.4-0.3-0.6c0-0.1,0-0.2,0.1-0.3c0.1-0.1,0.1-0.1,0.2-0.1
		c0.1,0,0.1,0.1,0.1,0.2c0,0.2,0,0.3,0.1,0.4c0.1,0.1,0.1,0.1,0.2,0c0.1-0.1,0.1-0.2,0.3-0.1c0.1,0.1,0.1,0.2,0.1,0.3
		C24.3,28.2,24.1,28.3,24,28.3z"/>
	<path class="st8" d="M21.9,4.9C22,4.8,22,4.7,22.1,4.6c0.2,0,0.2,0.2,0.4,0.2c-0.1,0.1-0.1,0.2-0.2,0.2C22.3,5,22.2,5,22.2,5
		c0-0.1,0-0.1-0.1-0.1C22,4.9,22,4.9,21.9,4.9z"/>
	<path class="st9" d="M24.7,18.2c0.1,0,0.2,0.1,0.2,0.2c0,0.1-0.1,0.2-0.2,0.2c-0.1,0-0.2-0.1-0.2-0.2
		C24.5,18.3,24.6,18.3,24.7,18.2z"/>
	<path class="st9" d="M25,26.9c-0.1,0-0.2-0.1-0.2-0.2c0-0.1,0.1-0.2,0.2-0.2c0.1,0,0.2,0.1,0.2,0.2C25.2,26.8,25.1,26.9,25,26.9z"
		/>
	<path class="st9" d="M24.6,27.7c-0.1,0-0.2-0.1-0.2-0.2c0-0.1,0.1-0.2,0.2-0.2c0.1,0,0.2,0.1,0.2,0.2
		C24.8,27.6,24.7,27.7,24.6,27.7z"/>
	<path class="st10" d="M24,18.5c-0.1,0.1-0.2,0.3-0.3,0.4c-0.4,0.7-0.9,1.2-1.4,1.7c-0.6,0.5-1.2,0.9-1.9,1.1
		c-0.4,0.2-0.9,0.3-1.3,0.4c-0.4,0.1-0.7,0.1-1.1,0.1c-0.1,0-0.2,0-0.3,0c-0.1-0.3-0.2-0.5-0.3-0.8c0-0.1,0-0.2,0.1-0.2
		c0.3-0.1,0.5-0.2,0.8-0.3c0.1,0,0.2-0.1,0.1-0.2c-0.1-0.2-0.3-0.4-0.5-0.6c0,0-0.1-0.1-0.1,0c-0.1,0.2-0.3,0.1-0.4,0.1
		c-0.1,0-0.2,0-0.1-0.1c0.1-0.2,0.2-0.4,0.3-0.6c0.1-0.2,0-0.2-0.2-0.3c-0.4-0.1-0.8,0-1-0.5c0,0,0-0.1-0.1,0c0,0,0,0.1,0,0.1
		c0.1,0.2,0.2,0.4,0.4,0.4c0.2,0,0.4,0.1,0.6,0.1c0.1,0,0.2,0.1,0.1,0.2c-0.1,0.2-0.2,0.4-0.4,0.6c-0.1,0.1-0.1,0.2,0.1,0.2
		c0.1,0,0.3,0.1,0.4,0c0.3-0.1,0.4,0,0.5,0.2c0,0,0.1,0.1,0.1,0.1c0.1,0.1,0.1,0.1,0,0.2c-0.2,0.1-0.4,0.2-0.6,0.3
		c-0.3,0.1-0.3,0.1-0.2,0.4c0,0.1,0.1,0.2-0.1,0.2c-0.2,0-0.5,0.1-0.7,0.1c-0.1,0-0.1,0-0.1-0.1c0-0.1,0-0.1,0.1-0.1
		c0.1-0.1,0.1-0.2,0-0.3c0.1-0.1,0.3-0.1,0.4-0.2c0.1,0,0.1-0.1,0-0.2c-0.2-0.1-0.3-0.3-0.4-0.5c0,0,0-0.1-0.1-0.1
		c-0.1,0,0,0.1,0,0.1c0.1,0.2,0.3,0.4,0.4,0.5c-0.2,0.1-0.3,0.1-0.5,0.2c-0.1,0-0.3,0-0.3,0.1c0,0.1,0.2,0.1,0.3,0.1c0,0,0,0,0,0
		c-0.1,0.1-0.2,0.1-0.1,0.2c0.1,0.1,0.1,0.2,0.3,0.2c0.2,0,0.3-0.1,0.5-0.1c0.3,0,0.3,0,0.4,0.2c0,0.1,0.1,0.2,0.1,0.3
		c-0.8,0.1-1.6,0-2.4,0.1c-0.1,0-0.1,0-0.2,0c-0.3,0-0.5,0-0.7,0c-0.5-0.1-1.1-0.2-1.6-0.4c-0.4-0.2-0.9-0.3-1.3-0.6
		c-0.4-0.2-0.7-0.5-1.1-0.7c0-0.3,0-0.7,0.1-1c0-0.1,0-0.1,0.1-0.1c0.1-0.1,0.1-0.2,0.2-0.2c0.1,0,0.1,0.2,0.1,0.3
		c0,0.2,0,0.4,0,0.5c0,0.1,0,0.1,0,0.2c0,0.2,0.2,0.4,0.4,0.4c0.2,0,0.3-0.1,0.4-0.3c0-0.1,0.1-0.2,0.1-0.3c0-0.1,0-0.2,0-0.3
		c0.1,0.3,0.3,0.4,0.5,0.4c0,0.1,0.1,0.2,0.2,0.2c0.5,0.3,1.1,0.6,1.7,0.5c0.4-0.1,0.8-0.2,1-0.5c0.2-0.2,0.3-0.4,0.4-0.6
		c0.2-0.3,0.3-0.6,0.3-0.9c0-0.4-0.1-0.8-0.1-1.3c0-0.1-0.1-0.2-0.1-0.3c-0.1-0.1-0.2-0.2-0.2-0.3c-0.1-0.3-0.3-0.6-0.4-0.9
		c0.2-0.2,0.5-0.3,0.7-0.6c0.2-0.3,0.3-0.7,0.2-1.1c-0.1-0.3-0.3-0.5-0.6-0.6c0.2-0.7,0.4-1.4,0.7-2c0.3-0.6,0.6-1.1,0.8-1.7
		c0.3-0.6,0.4-1.1,0.4-1.8c0-0.2,0-0.5-0.1-0.7c-0.1-0.2-0.2-0.5-0.4-0.7c-0.2-0.2-0.4-0.5-0.7-0.6c-0.7-0.4-1.5-0.6-2.4-0.5
		c-0.4,0.1-0.8,0.3-1,0.6c-0.6,0.7-0.9,1.6-1.2,2.5c-0.1,0.4-0.2,0.8-0.4,1.2c-0.2,0.5-0.3,1-0.3,1.5c0,0.8,0,1.7,0,2.5
		c0,1.3,0.1,2.6,0.2,3.9c0,0.4,0.2,0.8,0.3,1.1c0,0.1,0.1,0.1,0.2,0.1c-0.1,0.3-0.1,0.6-0.1,0.9c0,0,0,0.1,0,0.1
		c0,0.1-0.1,0.1-0.1,0.1c-0.1,0-0.1-0.1-0.1-0.2c0-0.2,0-0.4,0-0.6c0-0.2-0.1-0.4-0.3-0.6c-0.1,0-0.2,0-0.3,0c0-0.1,0-0.1,0-0.2
		c0,0,0-0.1,0-0.1c0,0-0.1,0-0.1,0.1c0,0.1,0,0.2,0,0.3c0,0-0.1,0-0.1,0c-0.2-0.3,0-0.6,0-0.9c0,0,0.1-0.1,0-0.1
		c-0.1,0-0.1,0-0.1,0.1c0,0,0,0.1,0,0.1c0,0.2-0.3,0.3-0.1,0.6c0,0,0,0,0,0.1c-0.1,0.2-0.1,0.3,0.1,0.4c0,0.1,0,0.1,0,0.2
		c-0.2,0-0.3,0-0.4-0.1c-0.1-0.1-0.1-0.1-0.2-0.1c-0.1-0.1-0.1,0-0.1,0.1c0,0.1,0,0.3-0.1,0.4c0,0-0.1-0.1-0.1-0.1
		c-0.5-0.4-0.8-0.9-1.2-1.4c-0.4-0.5-0.7-1.2-0.8-1.8c-0.2-0.6-0.4-1.2-0.4-1.8c0.1,0,0.1-0.1,0.1-0.2c0,0,0-0.1,0-0.1
		c0.1,0,0.1,0,0.1,0.1c0.1,0.1,0.2,0.2,0.3,0.3c0,0,0.1,0.1,0.1,0.1c0.1,0,0.1-0.1,0.1-0.1c0-0.1,0-0.2,0-0.3
		c-0.1-0.6-0.1-1.3-0.1-1.9c0-0.3,0.1-0.5,0.2-0.8c0,0,0.1,0.1,0.1,0.1c0.2,0,0.2,0.2,0.2,0.3c0.1,0.2,0.1,0.3,0.1,0.5
		c0,0.1,0,0.2,0.2,0.2c0.2,0,0.3,0,0.1,0.2c0,0,0,0.1-0.1,0.1c0,0.1-0.1,0.1,0,0.2c0,0,0.1,0,0.2,0c0.1,0,0.2-0.1,0.2,0.1
		c0,0,0,0.1,0.1,0c0,0,0.1-0.1,0-0.1c0-0.1-0.1-0.2-0.2-0.2c-0.2,0-0.2-0.1-0.1-0.2c0,0,0-0.1,0.1-0.1c0-0.1,0-0.2-0.1-0.2
		c-0.2,0-0.2-0.1-0.1-0.2c0-0.1,0.1-0.2,0.1-0.3c0,0,0-0.1,0.1,0c0.1,0.1,0.2,0.1,0.3,0.1c0.2-0.1,0.2,0,0.2,0.2
		c0,0.2,0,0.4,0.1,0.6c0,0.1,0,0.1,0.1,0.2c0.1,0,0.1-0.1,0.1-0.1c0.1-0.1,0.1-0.2,0.2-0.3c0-0.1,0.1-0.1,0.2,0
		c0.1,0.2,0.2,0.2,0.5,0.1C10,13,9.8,13.2,9.6,13.4c-0.1,0.1-0.2,0.2,0,0.3c0.1,0.1,0.2,0.2,0.1,0.3c-0.1,0.1-0.3,0.3-0.5,0.3
		c-0.1,0-0.2,0.1-0.2,0.3c0,0.1,0.1,0.3,0.1,0.4c0,0.1,0,0.2-0.1,0.3c-0.2,0.2-0.3,0.4-0.5,0.5C8.2,16,8.2,16,8.4,16.3
		c0.1,0.3,0.2,0.7,0.2,1c0,0.1,0.1,0.2,0.1,0.3c0,0,0.1,0.1,0.1,0c0,0,0-0.1,0-0.1c-0.1-0.1-0.1-0.3-0.1-0.4
		c-0.1-0.3-0.1-0.6-0.3-0.9c-0.1-0.1,0-0.1,0.1-0.2c0.1-0.1,0.3-0.2,0.4-0.3c0.3-0.2,0.5-0.5,0.3-0.9c0,0,0-0.1,0-0.1
		c0-0.1,0-0.2,0.1-0.2c0.1,0,0.1,0,0.2,0.1c0,0.1,0.1,0.2,0.1,0.4c0.1,0.2,0,0.3,0.2,0.5c0.1,0.1,0.1,0.2,0.2,0.2
		c0.1,0.1,0.2,0.1,0.2,0c0.1-0.1,0.2-0.2,0.3-0.1c0,0,0.1,0,0.1,0c0,0,0-0.1,0-0.1c-0.1-0.1-0.3-0.1-0.4,0c-0.1,0.1-0.1,0.1-0.2,0
		c0-0.1-0.1-0.1-0.1-0.1c0-0.2-0.1-0.5-0.2-0.7c-0.1-0.2,0-0.3,0.1-0.5c0.3-0.2,0.3-0.3,0.1-0.5c-0.1-0.1-0.1-0.1,0-0.2
		c0.2-0.1,0.3-0.3,0.4-0.5c0-0.1,0.1-0.1,0-0.2c-0.1-0.1-0.1-0.1-0.2-0.1c-0.1,0-0.2,0-0.2-0.1c-0.2-0.2-0.2-0.2-0.4,0
		c-0.1,0.1-0.1,0.3-0.2,0.2c-0.1,0-0.1-0.2-0.1-0.3c-0.1-0.2,0-0.4-0.2-0.5c0-0.1,0.1-0.1,0.1-0.1c0.2-0.1,0.5-0.2,0.7-0.4
		c0,0,0.1,0,0.1-0.1c0-0.1-0.1-0.1-0.1,0c0,0-0.1,0-0.1,0c-0.3,0.2-0.6,0.3-0.9,0.5c0,0-0.1,0.1-0.1,0c0,0,0-0.1-0.1-0.1
		c-0.1,0-0.1,0.1-0.1,0.1c-0.1,0.1-0.1,0.3-0.2,0.4c0-0.1,0-0.1,0-0.1C8,12.1,8,11.8,7.8,11.7c-0.1,0,0-0.1,0-0.1
		c0-0.1,0-0.1-0.1-0.1c-0.1,0-0.1,0-0.1,0.1c-0.1,0.2-0.2,0.4-0.3,0.6c-0.1,0.7-0.1,1.5,0,2.2c0,0.1,0,0.2,0,0.3
		c-0.2-0.1-0.3-0.3-0.4-0.4c-0.1-0.1-0.1-0.1-0.2,0c0-0.2,0-0.3,0-0.5c0-0.2,0-0.3,0-0.5c0.1-0.2,0.2-0.5,0.2-0.8
		c0-0.1,0-0.2-0.1-0.2c0-0.4,0.1-0.8,0.1-1.2c0-0.1,0-0.2,0.1-0.3c0,0,0.1,0,0.1-0.1c0.3-0.7,0.9-1,1.4-1.4c0.1-0.1,0.2-0.1,0.2,0.1
		c0,0.1,0.1,0.3,0.1,0.4c0.1,0.1,0.2,0.2,0.3,0c0.1-0.1,0.2-0.2,0.3-0.3c0,0,0.1-0.1,0.2-0.1c0.1,0,0.1,0.1,0.1,0.2
		c0,0.2,0.1,0.5,0.2,0.7c0,0,0,0.1,0.1,0.1c0,0,0.1,0,0.1-0.1c0-0.1,0.1-0.2,0.1-0.3c0,0,0-0.1,0.1,0c0.1,0.1,0.1,0.1,0.2,0
		c0.1-0.1,0.1-0.1,0.1-0.2c0-0.2,0-0.3,0.1-0.4c0,0,0.1-0.1,0.1-0.1c-0.1-0.1-0.1,0-0.1,0.1c-0.1,0.1-0.2,0.3-0.2,0.5
		c0,0,0,0.1,0,0.1c0,0-0.1,0-0.1,0c-0.1-0.2-0.2,0-0.2,0.1c0,0.1,0,0.2-0.1,0.2C9.7,9.9,9.7,9.5,9.7,9.1c0,0,0-0.1,0.1-0.1
		c0.3,0,0.5-0.2,0.6-0.4c0,0,0.1-0.1,0-0.2c-0.1,0-0.1,0-0.1,0.1c0,0,0,0.1-0.1,0.1C10.1,8.8,10,8.9,9.8,8.9C9.7,8.9,9.6,8.9,9.6,9
		c0,0.1,0,0.2-0.1,0.3C9.4,9.5,9.2,9.7,9.1,9.8C9,9.9,8.9,9.9,8.8,9.8C8.8,9.7,8.8,9.5,8.7,9.4C8.7,9.2,8.6,9.1,8.4,9.3
		C7.9,9.6,7.4,10,7,10.6c0-0.4,0.2-0.8,0.4-1.2c0.3-0.7,0.6-1.4,1-2.1c0.2-0.5,0.5-0.9,1-1.2c0,0.2-0.1,0.4,0,0.6
		c0,0.1,0,0.2,0.1,0.2c0.1,0,0.1-0.1,0.2-0.1c0.3-0.3,0.6-0.5,1-0.7l0,0c0,0.1,0,0.2-0.2,0.2c-0.1,0-0.1,0.1-0.1,0.1
		c0,0,0,0.1,0.1,0c0.1-0.1,0.4-0.1,0.3-0.4c0-0.1,0.1-0.1,0.2-0.1c0.1,0,0,0.1,0,0.1c-0.2,0.3-0.3,0.6-0.4,0.9c0,0-0.1,0.1,0,0.1
		c0.1,0.1,0.1,0,0.1,0C10.6,7.1,10.8,7,10.9,7c0.1,0,0.2,0,0.2,0.1c0,0.1,0,0.3-0.1,0.4c0,0,0.2,0.3,0.2,0.3c0,0,0.1,0,0.1-0.1
		c0-0.1,0-0.1,0-0.2c-0.1-0.1-0.1-0.2-0.1-0.3c0-0.1,0-0.2,0-0.3c0-0.2-0.1-0.2-0.3-0.2c-0.1,0-0.2,0.1-0.3,0.1l0,0c0,0,0-0.1,0-0.1
		C10.7,6.6,11,6.3,11,6c0,0,0,0,0,0c0.1,0,0.3-0.1,0.4,0.1c0.1,0.1,0.1,0.2,0,0.3c0,0,0,0.1,0,0.1c0,0.1-0.1,0.1,0,0.2
		c0.1,0,0.1-0.1,0.1-0.1c0.1-0.1,0.1-0.2,0.2-0.3c0.2-0.3,0.3-0.6,0.8-0.6c0,0,0.1,0,0.1-0.1c0-0.1-0.1-0.1-0.1-0.1
		c-0.1,0-0.2,0.1-0.3,0.1c-0.2,0.1-0.4,0.4-0.5,0.6c-0.1-0.2-0.3-0.3-0.5-0.2c-0.2,0-0.3-0.1-0.5,0c0,0-0.1,0-0.1,0
		c0-0.1,0-0.3,0.1-0.3c0.2,0,0.3-0.2,0.4-0.2c0,0,0,0.1,0.1,0.1c0.1,0.1,0.2,0.1,0.3,0.1c0.1,0,0.2-0.1,0.2,0.1c0,0.1,0.1,0,0.1,0
		c0-0.1,0-0.2-0.2-0.2c-0.1,0-0.1,0-0.2,0c-0.1,0-0.2,0-0.2-0.1c-0.1-0.1,0-0.2,0-0.2c0-0.1,0.1-0.1,0.2-0.1c0.2,0,0.3-0.1,0.5-0.2
		c0,0,0.1,0,0.1-0.1c0,0-0.1,0-0.1,0c-0.3,0.2-0.6,0.2-0.8,0.4c-0.1,0.1-0.2,0.3-0.4,0.3c-0.1,0-0.3,0.1-0.2,0.3c0,0,0,0.1,0,0.1
		c-0.1,0.1-0.2,0.3-0.3,0.3C9.9,6.2,9.7,6.4,9.5,6.6c0,0-0.1,0.1-0.1,0.1c-0.1,0,0-0.1,0-0.2c0-0.2,0-0.5,0.1-0.7
		c0.1-0.1,0.2-0.2,0.3-0.3c0.3-0.3,0.6-0.5,1-0.8C11,4.5,11.4,4.2,11.8,4c0.8-0.4,1.5-0.7,2.4-1c0.3-0.1,0.6-0.2,0.9-0.3
		c0.3-0.1,0.5-0.1,0.8-0.1c-0.2,0.2-0.3,0.5-0.6,0.6c0,0-0.1,0-0.1,0.1C15,3.4,15,3.4,15,3.5c0,0.1,0.1,0.1,0.2,0.1
		c0.1,0,0.2,0,0.2,0c0,0.2,0.1,0.2,0.2,0.3c-0.5,0-0.9,0.2-1.3,0.4c0,0-0.1,0-0.1,0.1c0,0-0.1,0.1-0.1,0.1c0,0.1,0.1,0,0.1,0
		c0,0,0.1,0,0.1-0.1c0.3-0.1,0.6-0.2,0.8-0.3c0,0.1,0,0.1,0,0.2c-0.1,0.2-0.1,0.3,0.1,0.3c0.2,0.1,0.3,0.2,0.5,0.2
		c0.1,0,0.2,0.1,0,0.2c-0.1,0.1-0.2,0.2-0.4,0.3c-0.1,0.1-0.1,0.1-0.2,0.2c0,0,0,0.1,0,0.1c0,0,0.1,0,0.1,0c0.2-0.3,0.5-0.3,0.7-0.6
		c0-0.1,0.1-0.1,0.2,0c0.1,0,0.1,0.1,0,0.1c0,0.2,0.1,0.2,0.2,0.3c0.3,0.1,0.3,0.1,0.1,0.3c-0.1,0.1-0.2,0.2-0.1,0.4
		c0,0,0,0.1,0.1,0.1c0,0,0,0,0-0.1c0-0.2,0.1-0.3,0.2-0.4c0.1-0.2,0.1-0.2,0-0.3c-0.1,0-0.1-0.1-0.2-0.1c-0.1,0-0.2-0.1-0.2-0.2
		c0-0.2-0.1-0.2-0.3-0.2c-0.1,0-0.1,0.1-0.2,0c-0.2-0.1-0.4-0.1-0.6-0.2c-0.1,0-0.2,0-0.2-0.2c0.1-0.1,0-0.3,0.3-0.3
		c0.1,0,0.2,0,0.2-0.1c0-0.1,0-0.2-0.1-0.2c0,0,0,0-0.1-0.1c0-0.1,0.1-0.2,0.1-0.2c0,0,0.1-0.1,0.1,0c0,0.2,0.2,0.2,0.3,0.2
		c0.1,0,0.2,0.1,0.2,0.2c0,0.1,0,0.1,0.1,0.2c0,0,0.1,0,0.1,0c0,0,0-0.1,0-0.1c-0.1-0.1,0-0.3-0.2-0.5c-0.1-0.1,0-0.2,0.1-0.2
		c0.1,0,0.1,0,0.2,0.1c0.1,0.1,0.2,0.1,0.3,0.1c0.1,0,0.3-0.1,0.4-0.2c0.1-0.1,0.2-0.1,0.2,0.1c0.1,0.2,0.2,0.3,0.4,0.3
		c0,0,0.1,0,0.1,0c0,0,0-0.1-0.1-0.1c-0.2,0-0.3-0.2-0.4-0.3c-0.1-0.1-0.2-0.2-0.3-0.1c-0.1,0.1-0.2,0.1-0.4,0.2
		c-0.1,0-0.2,0-0.2-0.1c0-0.2-0.2-0.1-0.3-0.1c-0.1,0.1-0.1,0.2-0.2,0.2c-0.1,0.1-0.1,0.1-0.2,0c-0.1-0.2-0.1-0.2-0.3-0.1
		c-0.1,0.1-0.2,0.1-0.4,0.1c0,0-0.1,0-0.1,0c0-0.1,0-0.1,0.1-0.1c0.3-0.1,0.5-0.4,0.7-0.7c0.9,0,1.7,0.1,2.5,0.3
		c0.4,0.1,0.8,0.2,1.2,0.4c0.1,0,0.2,0.1,0.3,0.1c0,0.3-0.1,0.6,0,0.9c0.1,0.3,0.2,0.5,0.3,0.7c0,0.2-0.2,0.3-0.1,0.5
		c0,0.1,0,0.1,0,0.2c-0.1,0-0.1-0.1-0.2-0.1c-0.1-0.1-0.1-0.1-0.1-0.2c0-0.1-0.1-0.2-0.2-0.2c-0.2,0-0.3,0-0.5,0.1
		c-0.1,0.1-0.2,0.2-0.2,0.3c0,0.1,0,0.2-0.1,0.2c-0.1-0.3-0.1-0.3-0.4-0.2c0,0,0,0,0,0C18.4,5.9,18.2,6,18,6.2c0,0-0.1,0.1-0.1,0.1
		c0,0.1,0.1,0,0.1,0c0.2-0.1,0.4-0.2,0.6-0.3c0.2-0.1,0.2-0.1,0.3,0.1c0,0.1,0,0.1,0.1,0.1c0.1,0,0.1,0,0.1-0.1
		c0.1-0.1,0.2-0.2,0.2-0.4c0-0.2,0.3-0.4,0.5-0.3c0,0,0.1,0,0,0.1c0,0.2,0.2,0.3,0.3,0.4c0.1,0.1,0.2,0,0.2-0.1
		c0-0.2,0.1-0.4,0.1-0.6c0.2,0.1,0.5,0.1,0.7,0.1c0.1,0.1,0.2,0.2,0.1,0.3c0,0,0,0.1,0,0.1c0.3,0.5,0.4,1,0.6,1.5
		c0,0.1,0.2,0.3,0.1,0.3c-0.1,0.1-0.2-0.1-0.3-0.2c0,0,0,0,0,0c-0.3-0.2-0.7-0.3-1.1-0.3c-0.1,0-0.2,0.2-0.3,0.1
		c-0.4-0.1-0.8,0-1.2,0c-0.1,0-0.1,0-0.2,0.1c0,0.1,0.1,0.1,0.1,0.1c0.2,0.1,0.4,0.2,0.5,0.4c0.1,0.1,0.1,0.2-0.1,0.3
		c-0.1,0-0.2,0.1-0.4,0.1c-0.3,0.1-0.3,0.2-0.3,0.5c0,0.3-0.1,0.4-0.4,0.4c-0.1,0-0.2,0-0.2,0.1c-0.1,0.3-0.4,0.4-0.3,0.7
		c0,0.1,0,0.1,0,0.2c-0.1,0.1-0.1,0.2-0.3,0.2c-0.1,0-0.1,0-0.2,0.1c0,0,0,0.1,0,0.1c0.1,0.1,0.1-0.1,0.1-0.1c0,0,0,0,0,0
		c0.2,0,0.4-0.2,0.4-0.4c0-0.2,0.1-0.4,0.2-0.5c0.1-0.1,0.1-0.2,0.3-0.2c0.1,0,0.3-0.1,0.4-0.2c0.1-0.1,0-0.3,0.1-0.4
		c-0.2-0.3,0.1-0.3,0.2-0.3c0.1,0,0.2-0.1,0.3-0.1c0.3-0.1,0.4-0.2,0.1-0.5c-0.1-0.1-0.3-0.3-0.4-0.4c0.1,0,0.2,0,0.3,0
		c0.3,0,0.6-0.1,0.9,0.1c0.2,0.1,0.3-0.1,0.4,0c0,0,0,0,0-0.1c-0.1-0.1,0-0.1,0.1-0.1c0.3,0,0.5,0.1,0.8,0.3
		c0.1,0.1,0.3,0.2,0.4,0.3c0,0,0.1,0.1,0.1,0c0,0,0-0.1,0-0.1c0-0.1,0-0.2-0.1-0.3c0,0-0.1-0.1,0-0.1c0.1,0,0.2,0,0.2,0
		c0.1,0,0,0.1,0,0.1c0,0.1,0,0.1,0.1,0.2c0.3,0.1,0.5,0.2,0.8,0.2c0.1,0,0.1,0,0.1,0c0,0.1,0,0.1,0,0.2c-0.3,0.2-0.5,0.5-0.9,0.6
		c-0.2,0.1-0.3,0.1-0.5,0.2c-0.1,0-0.2,0.1-0.1,0.2C22.1,9,22.1,9.2,22,9.3c0,0.1,0,0.1,0,0.2c0,0,0,0.1,0,0.1c0,0,0.1,0,0.1,0
		c0.1-0.2,0.2-0.4,0.1-0.7c0-0.1-0.1-0.1,0-0.2c0.1-0.1,0.3-0.2,0.4-0.1c0.1,0.2,0.4,0.2,0.4,0.5c0,0.3,0.1,0.3-0.2,0.5
		c-0.2,0-0.4,0-0.5,0c-0.3,0.1-0.5,0.3-0.6,0.6c0,0.2-0.1,0.4-0.3,0.5c-0.1,0.1-0.2,0.1-0.2,0c-0.2-0.2-0.3-0.5-0.4-0.9
		c0-0.2,0-0.4-0.2-0.6c-0.1-0.1-0.2-0.2-0.3-0.1c-0.2,0.1-0.3,0.1-0.3,0.3c0,0.1,0,0.1,0.1,0.1c0.1,0,0.1,0,0.1,0
		c0.1,0,0.1-0.2,0.2-0.1c0.1,0.1,0.1,0.2,0.1,0.3c0,0.4,0.1,0.8,0.4,1.1c0.2,0.2,0.3,0.3,0.6,0.2c0,0.1-0.1,0.1-0.2,0.1
		c0,0-0.1,0,0,0.1c0,0,0,0,0,0c0.1,0,0.3,0,0.3-0.1c0-0.2,0.1-0.2,0.3-0.3c0.1-0.1,0.2-0.1,0.3-0.2c0.1-0.1,0.3-0.2,0.4-0.2
		c0.2,0,0.3,0,0.4-0.2c0.3,0.3,0.4,0.7,0.4,1.1c0.1,0.3,0.1,0.7,0.1,1.1c-0.1,0-0.3,0.1-0.4,0.1c-0.1,0-0.1,0.1-0.1,0.2
		c0.1,0.3-0.1,0.4-0.2,0.5c-0.2,0.2-0.2,0.2-0.1,0.4c0.2,0.3,0.3,0.7,0.3,1.1c0,0.1-0.1,0.2-0.2,0.1c-0.1,0-0.3-0.1-0.4-0.2
		c-0.3-0.3-0.6-0.4-0.9-0.6c-0.1-0.1-0.3-0.1-0.3,0.1c-0.1,0.2-0.1,0.3-0.3,0.2c0,0-0.1,0-0.1,0c-0.2,0.1-0.4,0.2-0.7,0.1
		c0.1-0.1,0.2-0.2,0.4-0.2c0.5-0.3,0.7-0.6,0.6-1.2c0-0.1,0-0.2-0.1-0.2c-0.1,0-0.1,0.1-0.2,0.1c0,0,0,0.1-0.1,0.1
		c-0.1,0.1-0.2,0.1-0.3-0.1c0-0.1-0.1-0.1-0.2-0.1c-0.1,0.1-0.2,0.2-0.3,0.2c0,0,0,0,0,0c0,0,0-0.1-0.1-0.1c-0.1,0-0.1,0-0.1-0.1
		c0.1-0.3,0.1-0.3-0.2-0.3c-0.2,0-0.3-0.1-0.3-0.3c0-0.2,0-0.5,0-0.7c0-0.2-0.1-0.3-0.2-0.3c-0.2,0-0.3,0.1-0.3,0.3
		c0,0.3-0.2,0.4-0.4,0.4c-0.2,0-0.4,0.1-0.4,0.3c-0.1,0.1,0,0.3-0.3,0.2c0,0-0.1,0.1-0.2,0.1c-0.1,0.1-0.2,0.2-0.4,0.2
		c0,0-0.1,0-0.1,0c0,0.1,0,0.1,0.1,0.1c0.1,0,0.3-0.1,0.4-0.1c0.1-0.1,0.2-0.1,0.3-0.1c0.1,0,0.2,0,0.2-0.1c0.1-0.3,0.2-0.4,0.5-0.5
		c0.2,0,0.4-0.2,0.4-0.4c0-0.1,0-0.2,0.2-0.2c0.1,0,0.2,0.1,0.1,0.2c0,0.2,0,0.4,0,0.6c0,0.3,0.1,0.4,0.4,0.4c0.1,0,0.1,0,0.1,0.1
		c0,0.2-0.1,0.4-0.2,0.5c-0.1,0-0.1,0.1-0.1,0.2c0,0.1,0.1,0,0.2,0c0.2-0.1,0.5-0.3,0.7-0.4c0.1,0,0.1-0.1,0.1,0
		c0.1,0.2,0.2,0.2,0.4,0.1c0.1-0.1,0.1,0,0.1,0.1c0,0.3-0.1,0.6-0.3,0.7c-0.2,0.1-0.4,0.2-0.5,0.4c-0.1,0.1-0.1,0.2,0.1,0.3
		c0.1,0,0.3,0,0.4,0c0.2,0,0.3-0.2,0.5-0.1c0.1,0,0.1-0.1,0.2-0.1c0.1-0.2,0.1-0.2,0.3-0.1c0.1,0.1,0.2,0.1,0.1,0.2c0,0,0,0.1,0,0.1
		c0.2,0.2,0,0.4-0.1,0.5c-0.1,0.1-0.1,0.1-0.3,0.1c-0.4,0-0.8,0.1-1.2,0.3c-0.3,0.2-0.3,0.3-0.2,0.6c0.1,0.2,0.1,0.4,0.1,0.6
		c-0.1,0.3-0.2,0.6-0.5,0.9c0,0.1-0.1,0.2-0.2,0.2c-0.1,0-0.1-0.1-0.2-0.2c0,0,0-0.1,0-0.1c0-0.2-0.1-0.3-0.3-0.4
		c-0.2-0.1-0.3-0.1-0.3,0.2c0,0.1,0,0.2-0.2,0.2c-0.1,0-0.2,0-0.3,0.1c-0.2,0.1-0.4,0.1-0.6,0.1c-0.2,0-0.3,0-0.4,0.1
		c0,0-0.1,0-0.1,0.1c0,0,0.1,0,0.1,0c0.2-0.1,0.4-0.1,0.6-0.1c0.1,0,0.2,0,0.3-0.1c0.1-0.1,0.2-0.1,0.4-0.2c0.2,0,0.2-0.1,0.2-0.3
		c0-0.1,0.1-0.2,0.2-0.1c0.1,0,0.2,0.1,0.2,0.2c0,0.1,0.1,0.3,0.1,0.4c0.1,0.2,0.4,0.2,0.4,0c0.1-0.3,0.2-0.4,0.3-0.7
		c0.2-0.4,0.2-0.7,0-1.1c-0.1-0.2,0-0.3,0.1-0.4c0.4-0.2,0.8-0.3,1.2-0.3c0.1,0,0.2,0,0.2-0.1c0-0.1,0.1-0.2,0.2-0.2
		c0.1,0,0.1-0.1,0.1-0.2c-0.1-0.1-0.2-0.2-0.1-0.3c0.1-0.1,0.2,0,0.3,0.1c0.2,0.2,0.5,0.3,0.8,0.4c0.2,0,0.2,0,0.2-0.1
		c0-0.4-0.1-0.8-0.3-1.1c-0.1-0.3-0.1-0.3,0.1-0.5c0.1-0.1,0.2-0.2,0.2-0.3c-0.1-0.1,0-0.2,0.1-0.2c0.1,0,0.2-0.1,0.2-0.1
		c0,0.9,0.2,1.7,0.2,2.6c0,0.5,0.1,0.9,0.1,1.4c0,0.6,0.1,1.2,0.2,1.7C24,18.4,24,18.4,24,18.5z M16.6,16.9c0,0.1,0.1,0.3,0.3,0.3
		c0.1,0,0.3-0.2,0.3-0.3c0-0.1-0.1-0.2-0.2-0.2C16.8,16.6,16.6,16.8,16.6,16.9z"/>
	<path class="st11" d="M11.4,19.4c-0.1,0-0.1-0.1-0.2-0.1c-0.2-0.4-0.3-0.7-0.3-1.1c-0.1-1.3-0.2-2.6-0.2-3.9c0-0.8,0-1.7,0-2.5
		c0-0.5,0.1-1,0.3-1.5c0.1-0.4,0.2-0.8,0.4-1.2c0.3-0.9,0.6-1.7,1.2-2.5c0.3-0.3,0.6-0.5,1-0.6c0.9-0.1,1.6,0.2,2.4,0.5
		c0.3,0.1,0.5,0.4,0.7,0.6c0.2,0.2,0.2,0.5,0.4,0.7c0.1,0.2,0.1,0.4,0.1,0.7c0.1,0.6-0.1,1.2-0.4,1.8c-0.3,0.6-0.5,1.1-0.8,1.7
		c-0.3,0.6-0.5,1.3-0.7,2c-0.3,0-0.6-0.1-0.9,0.1c-0.4,0.3-0.5,0.7-0.6,1.1c0,0.5,0.2,1,0.8,1.1c0.2,0,0.3,0,0.5,0
		c0.1,0.3,0.3,0.6,0.4,0.9c0,0.1,0.2,0.2,0.2,0.3c0.1,0.1,0.1,0.2,0.1,0.3c0,0.4,0.1,0.8,0.1,1.3c0,0.3-0.2,0.6-0.3,0.9
		c-0.1,0.2-0.3,0.4-0.4,0.6c-0.3,0.3-0.6,0.4-1,0.5c-0.6,0.1-1.2-0.2-1.7-0.5c-0.1-0.1-0.2-0.1-0.2-0.2c0.2-0.1,0.3-0.3,0.3-0.5
		c0-0.1,0-0.3,0-0.4c0-0.1,0-0.1-0.1-0.2c-0.1,0-0.1,0.1-0.1,0.1c0,0.2,0,0.3,0,0.5c0,0.1,0,0.2-0.1,0.2c-0.1,0-0.1,0-0.2-0.1
		c-0.1-0.1,0-0.2-0.1-0.3C11.7,19.3,11.6,19.2,11.4,19.4z M13.1,19.7c0-0.1,0-0.1,0-0.1c-0.2-0.4-0.4-0.8-0.4-1.2
		c-0.1-1.2,0-2.4,0.1-3.6c0.1-1,0.3-2,0.5-3c0.2-1.1,0.5-2.2,0.9-3.3c0.1-0.2,0.2-0.4,0.2-0.7c0-0.1,0-0.1,0-0.2
		c-0.1,0-0.1,0-0.1,0.1c-0.4,0.5-0.8,1.1-1.1,1.6c-0.9,1.7-1.3,3.5-1.3,5.4c0,0.7,0.1,1.4,0.1,2.1c0.1,1,0.5,1.9,1.1,2.7
		C12.9,19.6,13,19.7,13.1,19.7z"/>
	<path class="st12" d="M10,20.8c0,0.5,0,1.1-0.1,1.6c0,0.2,0,0.5-0.1,0.7c0,0,0,0.1,0,0.1c0,0.1-0.1,0.3-0.2,0.3
		c-0.2,0-0.3-0.1-0.4-0.2C9,23.2,8.9,23,8.8,22.8c-0.1-0.3-0.2-0.6-0.2-1c0-0.1,0-0.1,0-0.2c0-0.1-0.1-0.2-0.2-0.1
		c-0.1,0-0.1,0.1-0.1,0.2c0,0.4,0.1,0.8,0.3,1.2c0.1,0.3,0.3,0.5,0.5,0.7c0.1,0.1,0.1,0.1,0.1,0.3C9,24.5,8.9,25,8.6,25.4
		c-0.4,0.7-0.9,0.9-1.7,0.8c-0.4-0.1-0.7-0.4-0.9-0.7c-0.5-0.9-0.8-1.8-1-2.8c-0.1-0.3-0.1-0.7-0.1-1c0-0.5,0-1-0.1-1.4
		c0-0.6,0-1.3,0-1.9c0-0.3-0.1-0.5-0.3-0.5c-0.2,0-0.3,0.1-0.4,0.4c-0.1,0.3-0.1,0.6-0.1,0.9C4,19.8,4,20.5,4,21.2
		c0,0.4,0,0.8-0.1,1.3c0,0.1,0,0.3-0.1,0.3c-0.1,0-0.2-0.1-0.2-0.3c-0.1-0.4-0.1-0.8-0.2-1.3c-0.1-0.8,0-1.6,0-2.5
		c0-0.9,0.1-1.7,0.1-2.6c0-0.8,0.1-1.5,0.3-2.3c0-0.2,0.1-0.4,0.1-0.6c0-0.1,0-0.2,0.1-0.1c0.3,0.3,0.9,0.2,1.2-0.2
		c0.2-0.3,0.3-0.6,0.4-0.8c0,0,0-0.1,0.1-0.1c0,0.2,0,0.4,0,0.6c0,0.2,0.1,0.4,0.2,0.6c0.1,0.2,0.3,0.3,0.5,0.3c0,0.3,0,0.6,0,1
		c0,0.1,0,0.3,0,0.4c0.1,0.5,0.2,1,0.3,1.4c0.2,0.7,0.5,1.5,0.9,2.1c0.6,0.8,1.2,1.6,2,2.2C9.7,20.7,9.8,20.8,10,20.8z M5.6,19.3
		C5.6,19.3,5.6,19.3,5.6,19.3c0,0.3,0,0.6,0,0.9c0.1,0.8,0.1,1.6,0.2,2.3c0,0.6,0.1,1.2,0.3,1.8c0.2,0.6,0.5,0.7,1.1,0.7
		c0.1,0,0.2,0,0.2-0.2c0-0.2-0.1-0.2-0.3-0.2c-0.4,0-0.5-0.1-0.7-0.4c-0.2-0.5-0.2-0.9-0.3-1.4c0-0.6-0.1-1.2-0.1-1.8
		C6,20.1,5.9,19.3,6,18.5c0-0.1,0-0.2-0.2-0.2c-0.1,0-0.2,0.1-0.2,0.2c0,0.1,0,0.1,0,0.2C5.6,18.8,5.6,19.1,5.6,19.3z M8.2,24.4
		c0-0.2-0.1-0.3-0.2-0.3c-0.2,0-0.3,0.2-0.3,0.3c0,0.2,0.2,0.3,0.3,0.3C8.1,24.8,8.2,24.6,8.2,24.4z"/>
	<path class="st8" d="M10,20.8c-0.1,0-0.2-0.1-0.3-0.2c-0.8-0.6-1.5-1.4-2-2.2c-0.4-0.6-0.7-1.4-0.9-2.1c-0.1-0.5-0.2-1-0.3-1.4
		c0-0.1,0-0.3,0-0.4c0-0.3,0-0.6,0-1c0-0.1,0.1-0.1,0.2-0.2c0.1,0.2,0,0.3,0,0.5c0,0.2,0,0.3,0,0.5c0,0.1,0,0.1,0,0.2
		c-0.1,0-0.1-0.1-0.1-0.1c0,0,0,0.1,0,0.1c0,0.1,0.1,0.2,0.1,0.2c0,0.6,0.3,1.2,0.4,1.8c0.2,0.7,0.4,1.3,0.8,1.8
		c0.3,0.5,0.7,1,1.2,1.4c0,0,0.1,0.1,0.1,0.1c0,0.1,0,0.1,0.1,0.1c0,0,0.1,0.1,0.1,0.1c0.2,0.1,0.3,0.4,0.5,0.4
		C10,20.6,10,20.7,10,20.8z"/>
	<path class="st8" d="M10.2,20.8c0.4,0.2,0.8,0.4,1.1,0.7c0.4,0.3,0.8,0.4,1.3,0.6c0.5,0.2,1.1,0.3,1.6,0.4c0.2,0,0.5,0,0.7,0
		c0,0.1,0,0.2,0,0.3c-0.9,0-1.8-0.2-2.6-0.5c-0.6-0.2-1.2-0.6-1.8-1c-0.1-0.1-0.2-0.1-0.3-0.1C10.2,21,10.2,20.9,10.2,20.8z"/>
	<path class="st10" d="M10,20.5c-0.2-0.1-0.4-0.3-0.5-0.4c-0.1,0-0.1-0.1-0.1-0.1c0.1-0.1,0.1-0.2,0.1-0.3c0-0.1,0.1-0.1,0.1-0.1
		c0.2,0.1,0.3,0.2,0.5,0.2C10,20,10,20.3,10,20.5z"/>
	<path class="st13" d="M10.1,19.5c-0.2-0.1-0.3-0.2-0.1-0.4c0,0,0,0,0-0.1c-0.1-0.2,0.2-0.4,0.1-0.6c0,0,0-0.1,0-0.1
		c0,0,0.1-0.1,0.1-0.1c0.1,0,0,0.1,0,0.1c-0.1,0.3-0.3,0.6,0,0.9C10.2,19.3,10.1,19.4,10.1,19.5z"/>
	<path class="st14" d="M10,19.8c-0.2,0-0.4-0.1-0.5-0.2c-0.1-0.1-0.1-0.1-0.1,0.1c0,0.1,0,0.2-0.1,0.3c-0.1,0-0.1,0-0.1-0.1
		c0.1-0.1,0.1-0.3,0.1-0.4c0-0.1,0-0.1,0.1-0.1c0.1,0,0.2,0.1,0.2,0.1c0.1,0.1,0.3,0.2,0.4,0.1C10,19.7,10,19.8,10,19.8z"/>
	<path class="st8" d="M27.2,24.7C27.2,24.7,27.2,24.7,27.2,24.7c-0.1-0.2-0.1-0.3-0.1-0.5c0-0.3,0-0.6,0-1c0,0,0,0,0.1,0
		c0,0.3,0,0.6,0,0.9C27.2,24.4,27.2,24.5,27.2,24.7z"/>
	<path class="st6" d="M27.2,23.3C27.2,23.3,27.2,23.3,27.2,23.3c0-0.3-0.1-0.6,0-1C27.3,22.7,27.2,23,27.2,23.3z"/>
	<path class="st13" d="M10.3,19.2c0-0.1,0-0.2,0-0.3c0,0,0-0.1,0.1-0.1c0,0,0.1,0,0,0.1c0,0.1,0,0.1,0,0.2
		C10.4,19.2,10.3,19.2,10.3,19.2z"/>
	<path class="st9" d="M11.9,30.6c-0.5,0.1-0.9-0.4-1-0.8c-0.1-0.4-0.2-0.8-0.2-1.2c-0.1-1-0.2-1.9-0.2-2.9c0-0.2,0-0.4,0-0.6
		c0-0.1,0.1-0.2,0.2-0.2c0.1,0,0.2,0.1,0.2,0.3c-0.1,0.6,0,1.2,0,1.8c0,0.5,0.1,1.1,0.1,1.6c0,0.4,0.1,0.7,0.2,1.1
		c0.1,0.4,0.5,0.6,0.9,0.5c0.1,0,0.2,0,0.3,0.1c0,0.1,0,0.2-0.1,0.3C12.1,30.6,12,30.6,11.9,30.6z"/>
	<path class="st9" d="M12.8,29.9c0-0.2,0.2-0.4,0.3-0.4c0.1,0,0.3,0.1,0.3,0.3c0,0.2-0.1,0.4-0.3,0.4C12.9,30.2,12.8,30.1,12.8,29.9
		z"/>
	<path class="st9" d="M13.8,29.1c-0.1,0-0.2-0.1-0.2-0.2c0-0.1,0.1-0.2,0.2-0.2c0.1,0,0.2,0.1,0.2,0.2C13.9,29,13.9,29.1,13.8,29.1z
		"/>
	<path class="st15" d="M22.2,5c0.1,0,0.1,0,0.1,0.1c-0.1,0.2-0.3,0.4-0.4,0.5c-0.1,0.1-0.1,0.2-0.1,0.3C21.9,6,22,6,22.1,6
		c0.3-0.1,0.6,0.1,0.8,0.2c0.4,0.3,0.7,0.6,0.9,1.1c0.4,0.8,0.8,1.6,0.9,2.5c0,0.2,0.1,0.5,0.1,0.7c0,0.4,0.2,0.7,0.2,1
		c0,0-0.1,0-0.1,0c-0.1,0-0.1,0-0.2-0.1c0-0.1,0.1-0.1,0.1-0.1c0.1,0,0.1-0.1,0-0.1C24.6,11.1,24.3,11,24,11c0,0-0.1,0-0.1,0
		c0,0,0,0.1,0.1,0.1c0,0,0.1,0,0.1,0c0.2,0.1,0.4,0,0.4,0.3c0,0,0,0,0,0c0.1,0.1,0.3,0.2,0.5,0.2c0,0,0,0,0,0.1c0,0-0.1,0-0.1,0.1
		c-0.1,0.2-0.1,0.2-0.3,0.1c-0.1,0-0.2-0.1-0.2,0c0,0.1-0.1,0.1-0.1,0.1c-0.2,0-0.2,0.1-0.1,0.3c0,0,0.1,0.1,0,0.1c0,0-0.1,0-0.1,0
		c-0.1,0-0.2,0-0.3,0c0-0.6-0.1-1.2-0.3-1.8c-0.1-0.3-0.3-0.6-0.5-0.8c0,0,0-0.1-0.1-0.1c0.1,0,0.3-0.1,0.2-0.2
		c0-0.2-0.1-0.4-0.1-0.6c0-0.1-0.1-0.1-0.1-0.1c-0.2-0.1-0.2-0.2,0-0.3c0.2-0.2,0.5-0.3,0.7-0.5c0.1-0.1,0.1-0.2,0.1-0.3
		c0-0.1-0.2-0.1-0.3-0.1c-0.2,0-0.4,0-0.6-0.1c-0.1,0-0.1,0-0.1-0.1c0-0.2,0-0.3-0.3-0.2c-0.2,0-0.3,0-0.3-0.2
		c0-0.1-0.1-0.2-0.1-0.3c-0.1-0.3-0.3-0.5-0.3-0.8c0-0.2-0.1-0.4-0.3-0.6c0.1-0.1,0.3-0.2,0.4-0.3C21.9,5,22,5,22.2,5z"/>
	<path class="st10" d="M25.6,12.3c0,0.5,0,1,0,1.5c0.1,1.2-0.3,2.2-0.8,3.2c-0.2,0.3-0.3,0.5-0.4,0.8c0,0.1,0,0.1-0.1,0.1
		c-0.1-0.9-0.2-1.8-0.2-2.7c0-0.6-0.2-1.3-0.2-1.9c0-0.2,0-0.4,0-0.6c0,0.1,0.1,0.3,0.3,0.3c0,0,0,0,0,0c0,0.2,0.1,0.3,0.3,0.4
		c0.1,0,0.1,0.1,0.2,0.2c0,0.1,0,0.1-0.1,0.1c-0.4,0.1-0.4,0.3-0.1,0.6c0,0,0.1,0.1,0.1,0.1c0.2,0.2,0.2,0.5,0.1,0.8
		c0,0-0.1,0.1,0,0.1c0,0,0.1,0,0.1,0c0.1-0.1,0.1-0.2,0.1-0.3c0-0.3-0.1-0.5-0.3-0.7c-0.2-0.2-0.2-0.3,0.1-0.4
		c0.2-0.1,0.2-0.2,0.1-0.3c-0.1-0.1-0.2-0.2-0.3-0.3c0,0-0.1,0-0.1-0.1c0-0.2-0.3-0.3-0.3-0.5c0,0-0.1-0.1-0.1-0.1
		c0-0.1,0.1,0,0.2,0c0.1,0.1,0.2-0.1,0.2-0.1c-0.1-0.2,0-0.3,0.2-0.4c0.1,0,0.1,0,0.2,0c0.2,0.2,0.3,0.1,0.4-0.1
		c0,0.1,0,0.2,0.1,0.3C25.3,12.4,25.4,12.4,25.6,12.3z"/>
	<path class="st13" d="M25.1,11.9c-0.1,0.2-0.2,0.3-0.4,0.1c-0.1,0-0.1,0-0.2,0c-0.2,0.1-0.3,0.2-0.2,0.4c0,0.1-0.1,0.2-0.2,0.1
		c-0.1,0-0.1,0-0.2,0c0,0.1,0.1,0.1,0.1,0.1c0,0.2,0.3,0.3,0.3,0.5c0,0,0.1,0,0.1,0.1c0.1,0.1,0.2,0.2,0.3,0.3
		c0.1,0.2,0.1,0.3-0.1,0.3c-0.3,0.1-0.3,0.2-0.1,0.4c0.2,0.2,0.3,0.4,0.3,0.7c0,0.1-0.1,0.2-0.1,0.3c0,0-0.1,0-0.1,0
		c0,0,0-0.1,0-0.1c0.2-0.2,0.1-0.6-0.1-0.8c0,0-0.1-0.1-0.1-0.1c-0.3-0.3-0.2-0.4,0.1-0.6c0.1,0,0.1-0.1,0.1-0.1
		c0-0.1-0.1-0.1-0.2-0.2c-0.1-0.1-0.3-0.1-0.3-0.4c0,0,0,0,0,0c-0.2,0-0.2-0.1-0.3-0.3c0-0.1,0-0.3,0-0.4c0.1,0,0.2,0,0.3,0
		c0,0,0.1,0.1,0.1,0c0,0,0-0.1,0-0.1c-0.1-0.2,0-0.2,0.1-0.3c0.1,0,0.1,0,0.1-0.1c0.1-0.1,0.2-0.1,0.2,0c0.2,0.1,0.2,0.1,0.3-0.1
		c0,0,0,0,0.1-0.1C25.1,11.8,25.1,11.8,25.1,11.9z"/>
	<path class="st13" d="M25,11.6c-0.2,0.1-0.3,0-0.5-0.2c0,0,0,0,0,0c0-0.3-0.2-0.2-0.4-0.3c0,0-0.1,0-0.1,0c0,0-0.1,0-0.1-0.1
		c0,0,0,0,0.1,0c0.3,0.1,0.5,0.1,0.8,0.2c0.1,0,0.1,0.1,0,0.1c0,0-0.1,0-0.1,0.1c0,0.1,0.1,0.1,0.2,0.1c0,0,0.1,0,0.1,0
		C25,11.5,25,11.6,25,11.6z"/>
	<path class="st13" d="M20,13.2c0.1,0,0.2-0.1,0.3-0.2c0.1-0.1,0.2-0.1,0.2,0.1c0.1,0.2,0.2,0.2,0.3,0.1c0,0,0-0.1,0.1-0.1
		c0-0.1,0.1-0.2,0.2-0.1c0.1,0,0.1,0.1,0.1,0.2c0.1,0.5-0.1,0.9-0.6,1.2c-0.1,0.1-0.2,0.1-0.4,0.2c0.3,0.1,0.5,0,0.7-0.1
		c0,0,0.1-0.1,0.1,0c0.2,0.1,0.3,0,0.3-0.2c0-0.2,0.2-0.2,0.3-0.1c0.3,0.2,0.7,0.3,0.9,0.6c0.1,0.1,0.2,0.1,0.4,0.2
		c0.1,0,0.2,0,0.2-0.1c0-0.4-0.1-0.8-0.3-1.1c-0.1-0.2-0.1-0.2,0.1-0.4c0.2-0.1,0.3-0.2,0.2-0.5c0-0.1,0-0.1,0.1-0.2
		c0.1,0,0.3-0.1,0.4-0.1c0,0,0,0.1,0,0.1c-0.1,0-0.1,0.1-0.2,0.1c-0.1,0-0.2,0.1-0.1,0.2c0.1,0.2-0.1,0.2-0.2,0.3
		c-0.2,0.2-0.2,0.2-0.1,0.5c0.2,0.4,0.2,0.7,0.3,1.1c0,0.1,0,0.2-0.2,0.1c-0.3,0-0.5-0.2-0.8-0.4c-0.1-0.1-0.2-0.2-0.3-0.1
		c-0.1,0.1,0,0.2,0.1,0.3c0.1,0.1,0,0.2-0.1,0.2c-0.1,0-0.2,0.1-0.2,0.2c0,0.1-0.1,0.1-0.2,0.1c-0.4,0-0.9,0.1-1.2,0.3
		c-0.2,0.1-0.2,0.2-0.1,0.4c0.2,0.4,0.1,0.7,0,1.1c-0.1,0.2-0.3,0.4-0.3,0.7c0,0.2-0.3,0.2-0.4,0c-0.1-0.1-0.1-0.2-0.1-0.4
		c0-0.1-0.1-0.2-0.2-0.2c-0.1,0-0.2,0-0.2,0.1c0,0.2-0.1,0.2-0.2,0.3c-0.1,0-0.3,0-0.4,0.2c-0.1,0.1-0.2,0.1-0.3,0.1
		c-0.2,0-0.4,0-0.6,0.1c0,0-0.1,0-0.1,0c0-0.1,0-0.1,0.1-0.1c0.1-0.1,0.3-0.1,0.4-0.1c0.2,0,0.4,0,0.6-0.1c0.1-0.1,0.2-0.1,0.3-0.1
		c0.2,0,0.2-0.1,0.2-0.2c0-0.2,0-0.3,0.3-0.2c0.2,0.1,0.3,0.2,0.3,0.4c0,0,0,0.1,0,0.1c0,0.1,0,0.2,0.2,0.2c0.1,0,0.1-0.1,0.2-0.2
		c0.2-0.3,0.4-0.6,0.5-0.9c0.1-0.2,0-0.4-0.1-0.6c-0.1-0.3-0.1-0.4,0.2-0.6c0.4-0.2,0.8-0.3,1.2-0.3c0.1,0,0.2,0,0.3-0.1
		c0.2-0.2,0.3-0.3,0.1-0.5c0,0,0-0.1,0-0.1c0.1-0.1,0-0.2-0.1-0.2c-0.2-0.1-0.2-0.1-0.3,0.1c0,0.1-0.1,0.2-0.2,0.1
		c-0.2-0.1-0.4,0.1-0.5,0.1c-0.1,0-0.3,0.1-0.4,0c-0.2-0.1-0.2-0.2-0.1-0.3c0.2-0.1,0.4-0.2,0.5-0.4c0.2-0.2,0.4-0.4,0.3-0.7
		c0-0.1,0-0.2-0.1-0.1c-0.2,0.2-0.3,0.1-0.4-0.1c-0.1-0.1-0.1-0.1-0.1,0c-0.2,0.1-0.5,0.3-0.7,0.4c0,0-0.1,0.1-0.2,0
		c-0.1-0.1,0-0.1,0.1-0.2c0.2-0.1,0.2-0.3,0.2-0.5c0-0.1,0-0.1-0.1-0.1c-0.3,0-0.4-0.1-0.4-0.4c0-0.2,0-0.4,0-0.6
		c0-0.1,0-0.2-0.1-0.2c-0.1,0-0.2,0.1-0.2,0.2c0,0.3-0.2,0.4-0.4,0.4c-0.3,0-0.5,0.2-0.5,0.5c0,0.1-0.1,0.2-0.2,0.1
		c-0.1,0-0.2,0.1-0.3,0.1c-0.1,0.1-0.2,0.2-0.4,0.1c0,0-0.1,0-0.1-0.1c0,0,0-0.1,0.1,0c0.2,0,0.3-0.1,0.4-0.2c0,0,0.1-0.1,0.2-0.1
		c0.2,0.1,0.2-0.1,0.3-0.2c0.1-0.2,0.2-0.3,0.4-0.3c0.2,0,0.4-0.1,0.4-0.4c0-0.1,0.1-0.3,0.3-0.3c0.2,0,0.3,0.2,0.2,0.3
		c0,0.2,0,0.5,0,0.7c0,0.2,0,0.3,0.3,0.3c0.3,0,0.3,0,0.2,0.3c0,0.1,0,0.1,0.1,0.1C20,13,20,13.1,20,13.2c-0.1,0-0.1,0-0.1,0.1
		c0,0,0,0,0,0c0,0-0.1,0-0.1,0c0,0,0,0,0,0c0,0,0,0,0,0c0,0,0.1,0,0.1,0c0,0,0,0,0,0C19.9,13.3,20,13.3,20,13.2z"/>
	<path class="st13" d="M21.3,5.2c0.2,0.2,0.2,0.3,0.3,0.6c0,0.3,0.2,0.5,0.3,0.8C22,6.7,22,6.8,22,6.9c0,0.2,0.1,0.2,0.3,0.2
		c0.2,0,0.3,0,0.3,0.2c0,0.1,0,0.1,0.1,0.1c0.2,0.1,0.4,0.1,0.6,0.1c0.1,0,0.2,0,0.3,0.1c0.1,0.1,0,0.2-0.1,0.3
		c-0.2,0.2-0.4,0.3-0.7,0.5c-0.2,0.1-0.2,0.2,0,0.3c0,0,0.1,0,0.1,0.1c0,0.2,0.1,0.4,0.1,0.6c0,0.2-0.1,0.2-0.2,0.2c0,0-0.1,0-0.1,0
		C23,9.5,23,9.5,22.9,9.1c0-0.3-0.3-0.3-0.4-0.5c-0.1-0.1-0.3,0-0.4,0.1c-0.1,0.1,0,0.1,0,0.2c0.1,0.2,0,0.4-0.1,0.7c0,0,0,0-0.1,0
		c0,0,0,0,0-0.1c0-0.1,0-0.1,0-0.2c0-0.2,0.1-0.3-0.1-0.5c-0.1-0.1,0-0.2,0.1-0.2c0.2-0.1,0.3-0.1,0.5-0.2c0.3-0.1,0.6-0.3,0.9-0.6
		c0,0,0.1-0.1,0-0.2c0-0.1-0.1,0-0.1,0c-0.3,0-0.5-0.1-0.8-0.2c-0.1,0-0.1-0.1-0.1-0.2c0,0,0.1-0.1,0-0.1c-0.1,0-0.2,0-0.2,0
		c-0.1,0,0,0.1,0,0.1c0,0.1,0.1,0.2,0.1,0.3c0,0,0,0.1,0,0.1c0,0-0.1,0-0.1,0c-0.1-0.1-0.3-0.2-0.4-0.3c-0.2-0.2-0.5-0.3-0.8-0.3
		c0,0-0.2-0.1-0.1,0.1c0,0,0,0.1,0,0.1c-0.1-0.1-0.2,0.1-0.4,0c-0.3-0.1-0.6-0.1-0.9-0.1c-0.1,0-0.2,0-0.3,0
		c0.2,0.1,0.3,0.2,0.4,0.4c0.2,0.3,0.2,0.4-0.1,0.5c-0.1,0-0.2,0.1-0.3,0.1C19,8.4,18.8,8.4,19,8.7c-0.1,0.1,0,0.3-0.1,0.4
		c-0.1,0.1-0.2,0.2-0.4,0.2c-0.1,0-0.2,0.1-0.3,0.2C18.1,9.7,18,9.9,18,10.1c0,0.2-0.2,0.4-0.4,0.4c0,0,0,0,0,0
		c-0.1,0-0.1,0.1-0.1,0.1c0,0,0,0,0-0.1c0-0.1,0.1-0.1,0.2-0.1c0.1,0,0.2-0.1,0.3-0.2c0-0.1,0-0.1,0-0.2c-0.1-0.3,0.2-0.5,0.3-0.7
		c0-0.1,0.1,0,0.2-0.1c0.3-0.1,0.4-0.2,0.4-0.4c0-0.3,0-0.4,0.3-0.5c0.1-0.1,0.2-0.1,0.4-0.1c0.2,0,0.2-0.1,0.1-0.3
		c-0.1-0.2-0.3-0.3-0.5-0.4c0,0-0.1,0-0.1-0.1c0-0.1,0.1-0.1,0.2-0.1c0.4,0,0.8-0.1,1.2,0c0.1,0,0.2-0.1,0.3-0.1
		c0.4-0.1,0.8,0,1.1,0.3c0,0,0,0,0,0c0.1,0.1,0.2,0.2,0.3,0.2c0.1-0.1,0-0.2-0.1-0.3c-0.2-0.5-0.3-1-0.6-1.5c0,0,0-0.1,0-0.1
		c0.1-0.2,0-0.2-0.1-0.3C21.2,5.2,21.3,5.2,21.3,5.2z"/>
	<path class="st10" d="M21.8,10.7c0-0.2,0.1-0.3,0.1-0.5c0.1-0.3,0.3-0.3,0.6-0.3c0.2,0,0.3,0.1,0.4,0.3c0,0.2-0.1,0.2-0.3,0.2
		c-0.2,0-0.4,0-0.6,0.2C22,10.6,21.9,10.7,21.8,10.7z"/>
	<path class="st13" d="M21.8,10.7c0.1,0,0.2-0.1,0.2-0.1c0.2-0.2,0.3-0.3,0.6-0.2c0.1,0,0.3,0,0.3-0.2c0.1,0,0.1,0.1,0.1,0.1
		c-0.1,0.2-0.2,0.2-0.4,0.2c-0.2,0-0.3,0-0.4,0.2c-0.1,0.1-0.2,0.2-0.3,0.2c-0.1,0.1-0.2,0.1-0.3,0.3c0,0.1-0.2,0.1-0.3,0.1
		c0,0,0,0,0,0c0,0,0-0.1,0-0.1c0.1,0,0.2,0,0.2-0.1C21.5,11,21.6,10.9,21.8,10.7C21.8,10.7,21.8,10.7,21.8,10.7L21.8,10.7z"/>
	<path class="st10" d="M21.8,10.7C21.8,10.7,21.8,10.7,21.8,10.7C21.8,10.7,21.8,10.7,21.8,10.7z"/>
	<path class="st14" d="M10.5,6c-0.4,0.1-0.7,0.4-1,0.7C9.5,6.8,9.5,6.9,9.4,6.8c-0.1,0-0.1-0.2-0.1-0.2c0-0.2,0.1-0.4,0-0.6
		c0-0.1,0-0.2,0.1-0.2c0,0.2,0,0.5-0.1,0.7c0,0.1,0,0.2,0,0.2c0.1,0,0.1-0.1,0.1-0.1c0.2-0.2,0.4-0.3,0.6-0.5
		c0.2-0.1,0.2-0.2,0.3-0.3c0,0,0-0.1,0-0.1c-0.1-0.2,0-0.2,0.2-0.3c0.2,0,0.3-0.2,0.4-0.3c0.2-0.3,0.5-0.3,0.8-0.4c0,0,0.1,0,0.1,0
		c0,0,0,0.1-0.1,0.1c-0.1,0.1-0.3,0.2-0.5,0.2c-0.1,0-0.1,0.1-0.2,0.1c0,0.1-0.1,0.1,0,0.2c0.1,0.1,0.1,0.1,0.2,0.1
		c0.1,0,0.1,0,0.2,0c0.1,0,0.2,0.1,0.2,0.2c0,0.1-0.1,0.1-0.1,0c-0.1-0.1-0.2-0.1-0.2-0.1c-0.1,0-0.2,0-0.3-0.1c0,0,0-0.1-0.1-0.1
		c-0.2,0-0.3,0.2-0.4,0.2c0,0,0,0.2-0.1,0.3c0,0,0,0,0.1,0c0.2-0.1,0.3,0,0.5,0c0.2,0,0.4,0,0.5,0.2c0.1-0.3,0.3-0.5,0.5-0.6
		c0.1-0.1,0.2-0.1,0.3-0.1c0.1,0,0.1,0,0.1,0.1c0,0.1,0,0.1-0.1,0.1c-0.4,0-0.6,0.3-0.8,0.6c-0.1,0.1-0.1,0.2-0.2,0.3
		c0,0.1-0.1,0.1-0.1,0.1c-0.1,0,0-0.1,0-0.2c0,0,0-0.1,0-0.1c0-0.1,0.1-0.2,0-0.3C11.3,5.9,11.2,6,11,6c0,0,0,0,0,0
		c0,0.3-0.3,0.6-0.4,0.9c0,0,0,0.1,0,0.1c0,0,0,0,0,0c0,0,0,0,0,0c0.1,0,0.2-0.1,0.3-0.1c0.2-0.1,0.3,0,0.3,0.2c0,0.1,0,0.2,0,0.3
		c0,0.1,0,0.2,0.1,0.3c0,0,0.1,0.1,0,0.2c0,0,0,0.1-0.1,0.1c0,0-0.2-0.3-0.2-0.3c0-0.1,0-0.3,0.1-0.4C11.1,7,11,6.9,10.9,7
		c-0.2,0.1-0.3,0.1-0.4,0.2c0,0-0.1,0.1-0.1,0c-0.1,0,0-0.1,0-0.1c0.2-0.3,0.2-0.6,0.4-0.9c0,0,0.1-0.1,0-0.1c-0.1,0-0.2,0-0.2,0.1
		c0,0.3-0.2,0.2-0.3,0.4c0,0-0.1,0-0.1,0c0-0.1,0-0.1,0.1-0.1C10.5,6.3,10.5,6.2,10.5,6C10.5,6,10.5,6,10.5,6C10.5,6,10.5,6,10.5,6z
		"/>
	<path class="st14" d="M16,2.7c-0.2,0.3-0.4,0.5-0.7,0.7c-0.1,0-0.1,0.1-0.1,0.1c0,0.1,0.1,0,0.1,0c0.1,0,0.3,0,0.4-0.1
		c0.2-0.1,0.2-0.1,0.3,0.1c0,0.1,0.1,0.1,0.2,0c0.1-0.1,0.1-0.2,0.2-0.2c0.1-0.1,0.2-0.1,0.3,0.1c0,0.1,0.1,0.1,0.2,0.1
		c0.1-0.1,0.2-0.1,0.4-0.2c0.1-0.1,0.2,0,0.3,0.1c0.1,0.2,0.2,0.3,0.4,0.3c0,0,0.1,0,0.1,0.1c0,0,0,0-0.1,0c-0.2,0-0.4-0.1-0.4-0.3
		c-0.1-0.1-0.1-0.1-0.2-0.1c-0.1,0.1-0.3,0.1-0.4,0.2c-0.1,0-0.2,0-0.3-0.1c0-0.1-0.1-0.1-0.2-0.1c-0.1,0.1-0.2,0.1-0.1,0.2
		c0.2,0.1,0.1,0.3,0.2,0.5c0,0,0,0.1,0,0.1c0,0-0.1,0-0.1,0c0-0.1-0.1-0.1-0.1-0.2c0-0.2-0.1-0.2-0.2-0.2c-0.1,0-0.3,0-0.3-0.2
		c0-0.1-0.1,0-0.1,0c-0.1,0.1-0.2,0.1-0.1,0.2c0,0,0,0,0.1,0.1c0,0.1,0.1,0.1,0.1,0.2c0,0.1-0.1,0.1-0.2,0.1c-0.2,0-0.2,0.2-0.3,0.3
		c-0.1,0.1,0.1,0.1,0.2,0.2c0.2,0.1,0.4,0.1,0.6,0.2c0.1,0,0.1,0,0.2,0c0.2,0,0.3,0,0.3,0.2c0,0.1,0,0.2,0.2,0.2
		c0.1,0,0.1,0,0.2,0.1c0.2,0.1,0.2,0.2,0,0.3c-0.1,0.1-0.2,0.2-0.2,0.4c0,0,0,0.1,0,0.1c0,0-0.1,0-0.1-0.1c0-0.1,0.1-0.3,0.1-0.4
		c0.2-0.3,0.2-0.3-0.1-0.3c-0.1,0-0.2-0.1-0.2-0.3c0,0,0-0.1,0-0.1c-0.1,0-0.1,0-0.2,0c-0.2,0.3-0.5,0.3-0.7,0.6c0,0,0,0-0.1,0
		c0,0,0-0.1,0-0.1c0-0.1,0.1-0.2,0.2-0.2c0.1-0.1,0.2-0.2,0.4-0.3c0.1-0.1,0.1-0.2,0-0.2c-0.2,0-0.3-0.1-0.5-0.2
		c-0.2-0.1-0.2-0.2-0.1-0.3c0,0,0.1-0.1,0-0.2c-0.3,0.1-0.6,0.2-0.8,0.3c0,0-0.1,0-0.1,0.1c0,0-0.1,0-0.1,0c0-0.1,0-0.1,0.1-0.1
		c0,0,0.1,0,0.1-0.1c0.4-0.2,0.8-0.4,1.3-0.4c0-0.1-0.2-0.2-0.2-0.3c0,0-0.1,0-0.2,0c-0.1,0-0.2,0-0.2-0.1c0-0.1,0-0.2,0.1-0.2
		c0,0,0.1-0.1,0.1-0.1c0.3-0.1,0.5-0.3,0.6-0.6C15.9,2.6,15.9,2.6,16,2.7C16,2.6,16,2.6,16,2.7z"/>
	<path class="st13" d="M7,10.6C7.4,10,7.9,9.6,8.4,9.3c0.2-0.1,0.3-0.1,0.3,0.1c0,0.1,0,0.3,0.1,0.4c0.1,0.1,0.1,0.1,0.2,0
		c0.2-0.2,0.3-0.3,0.5-0.5C9.6,9.3,9.6,9.1,9.6,9c0-0.1,0.1-0.2,0.2-0.2c0.2,0,0.3-0.1,0.4-0.3c0,0,0-0.1,0.1-0.1
		c0-0.1,0.1-0.1,0.1-0.1c0.1,0.1,0,0.1,0,0.2C10.2,8.8,10.1,9,9.8,9c0,0-0.1,0-0.1,0.1c-0.1,0.4,0,0.8,0.2,1.1
		C10,10.2,10,10.1,10,10c0.1-0.1,0.1-0.3,0.2-0.1c0,0,0,0,0.1,0c0.1,0,0-0.1,0-0.1c0-0.2,0-0.3,0.2-0.5c0,0,0.1-0.1,0.1-0.1
		c0.1,0.1,0,0.1-0.1,0.1c-0.1,0.1-0.2,0.3-0.1,0.4c0,0.1,0,0.2-0.1,0.2c-0.1,0.1-0.1,0.1-0.2,0c-0.1-0.1-0.1,0-0.1,0
		c0,0.1-0.1,0.2-0.1,0.3c0,0,0,0.1-0.1,0.1c0,0-0.1,0-0.1-0.1c-0.1-0.2-0.2-0.4-0.2-0.7c0-0.1,0-0.2-0.1-0.2c-0.1,0-0.1,0.1-0.2,0.1
		C9.3,9.7,9.2,9.9,9.1,10c-0.1,0.1-0.2,0.1-0.3,0C8.7,9.8,8.7,9.7,8.6,9.5c0-0.1-0.1-0.2-0.2-0.1C7.9,9.8,7.3,10.2,7,10.8
		c0,0,0,0.1-0.1,0.1C6.8,10.8,7,10.7,7,10.6z"/>
	<path class="st13" d="M20.5,5.2c-0.1,0.2-0.2,0.4-0.1,0.6c0,0.1-0.1,0.2-0.2,0.1c-0.2-0.1-0.3-0.2-0.3-0.4c0,0,0-0.1,0-0.1
		c-0.2-0.1-0.5,0.1-0.5,0.3c0,0.2-0.1,0.3-0.2,0.4c0,0-0.1,0.1-0.1,0.1c-0.1,0-0.1-0.1-0.1-0.1c0-0.3,0-0.3-0.3-0.1
		C18.4,6,18.2,6.1,18,6.3c0,0-0.1,0.1-0.1,0c0-0.1,0-0.1,0.1-0.1c0.2-0.1,0.4-0.2,0.7-0.4c0,0,0,0,0,0C18.9,5.6,18.9,5.6,19,6
		c0.1-0.1,0.1-0.1,0.1-0.2c0-0.2,0.1-0.3,0.2-0.3c0.1-0.1,0.3-0.1,0.5-0.1c0.1,0,0.2,0.1,0.2,0.2c0,0.1,0,0.1,0.1,0.2
		c0.1,0,0.1,0.1,0.2,0.1c0.1,0,0.1-0.1,0-0.2c0-0.2,0.2-0.3,0.1-0.5C20.4,5.1,20.4,5.2,20.5,5.2z"/>
	<path class="st13" d="M22.2,5c-0.1,0-0.3,0-0.4,0c0-0.1,0.1-0.1,0.1-0.1c0.1,0,0.1,0,0.2,0C22.2,4.8,22.2,4.9,22.2,5z"/>
	<path class="st13" d="M17.5,22.3c0-0.1-0.1-0.2-0.1-0.3c-0.1-0.2-0.1-0.3-0.4-0.2c-0.2,0-0.3,0.1-0.5,0.1c-0.1,0-0.2,0-0.3-0.2
		c-0.1-0.1,0.1-0.2,0.1-0.2c0,0,0,0,0,0c-0.1,0-0.3,0-0.3-0.1c0-0.1,0.2-0.1,0.3-0.1c0.1-0.1,0.3-0.1,0.5-0.2
		c-0.2-0.2-0.3-0.3-0.4-0.5c0,0-0.1-0.1,0-0.1c0.1,0,0.1,0,0.1,0.1c0.1,0.2,0.2,0.4,0.4,0.5c0.1,0.1,0.1,0.1,0,0.2
		c-0.1,0.1-0.3,0.1-0.4,0.2c0.2,0.1,0.2,0.2,0,0.3c0,0-0.1,0.1-0.1,0.1c0,0.1,0.1,0.1,0.1,0.1c0.2,0,0.5-0.1,0.7-0.1
		c0.1,0,0.1-0.1,0.1-0.2c-0.1-0.3,0-0.3,0.2-0.4c0.2-0.1,0.4-0.2,0.6-0.3c0.1,0,0.1-0.1,0-0.2c0,0-0.1-0.1-0.1-0.1
		c-0.1-0.2-0.2-0.3-0.5-0.2c-0.1,0-0.3,0-0.4,0c-0.1,0-0.2-0.1-0.1-0.2c0.2-0.2,0.2-0.4,0.4-0.6c0.1-0.1,0-0.2-0.1-0.2
		c-0.2,0-0.4-0.1-0.6-0.1c-0.2,0-0.3-0.2-0.4-0.4c0,0,0-0.1,0-0.1c0,0,0.1,0,0.1,0c0.2,0.5,0.7,0.4,1,0.5c0.2,0,0.3,0.1,0.2,0.3
		c-0.1,0.2-0.2,0.4-0.3,0.6c-0.1,0.1,0,0.1,0.1,0.1c0.1,0,0.3,0.1,0.4-0.1c0-0.1,0.1,0,0.1,0c0.2,0.2,0.3,0.4,0.5,0.6
		c0.1,0.1,0,0.1-0.1,0.2c-0.3,0.1-0.5,0.2-0.8,0.3c-0.1,0-0.1,0.1-0.1,0.2c0.1,0.3,0.2,0.5,0.3,0.8C17.6,22.3,17.6,22.3,17.5,22.3z"
		/>
	<path class="st4" d="M14.9,16.3c-0.2,0-0.3,0.1-0.5,0c-0.5-0.1-0.8-0.6-0.8-1.1c0-0.4,0.2-0.8,0.6-1.1c0.3-0.2,0.6-0.1,0.9-0.1
		c0.3,0.1,0.5,0.3,0.6,0.6c0.1,0.4,0,0.7-0.2,1.1C15.4,16,15.2,16.1,14.9,16.3z"/>
	<path class="st14" d="M6.7,14.8c-0.1-0.1-0.1-0.1-0.1-0.2c0,0-0.1-0.1,0-0.1c0.1,0,0.1,0.1,0.1,0.1c0-0.1,0-0.1,0-0.2
		c0.1-0.1,0.2-0.1,0.2,0c0.1,0.2,0.3,0.3,0.4,0.4c0.1-0.1,0-0.2,0-0.3c-0.1-0.7-0.2-1.5,0-2.2c0-0.2,0.2-0.4,0.3-0.6
		c0,0,0.1-0.1,0.1-0.1c0.1,0,0,0.1,0.1,0.1c0,0,0,0.1,0,0.1C8,11.8,8,12.1,8.1,12.3c0,0,0,0,0,0.1c0.1-0.2,0.1-0.3,0.2-0.4
		c0-0.1,0-0.1,0.1-0.1c0.1,0,0.1,0.1,0.1,0.1c0,0.1,0.1,0.1,0.1,0c0.3-0.2,0.6-0.3,0.9-0.5c0,0,0.1,0,0.1,0c0,0,0.1,0,0.1,0
		c0,0.1,0,0.1-0.1,0.1c-0.2,0.1-0.5,0.2-0.7,0.4c-0.1,0-0.1,0-0.1,0.1c0.3,0.1,0.2,0.3,0.2,0.5c0,0.1,0,0.3,0.1,0.3
		c0.1,0,0.1-0.1,0.2-0.2c0.2-0.2,0.2-0.2,0.4,0c0.1,0.1,0.1,0.1,0.2,0.1c0.1,0,0.1,0,0.2,0.1c0.1,0.1,0,0.1,0,0.2
		c-0.1,0.2-0.3,0.3-0.4,0.5c-0.1,0.1-0.1,0.1,0,0.2c0.2,0.3,0.2,0.3-0.1,0.5c-0.2,0.1-0.2,0.3-0.1,0.5c0.1,0.2,0.2,0.4,0.2,0.7
		c0,0,0,0.1,0,0.1c-0.1-0.1-0.1-0.3-0.2-0.5c-0.1-0.1-0.1-0.2-0.1-0.4c0-0.1-0.1-0.2-0.2-0.1c-0.1,0-0.1,0.1-0.1,0.2
		c0,0,0,0.1,0,0.1c0.2,0.4,0,0.7-0.3,0.9c-0.1,0.1-0.3,0.2-0.4,0.3c-0.1,0.1-0.1,0.1-0.1,0.2c0.2,0.3,0.2,0.6,0.3,0.9
		c0,0.1,0.1,0.3,0.1,0.4c0,0,0.1,0.1,0,0.1c0,0-0.1,0-0.1,0c-0.1-0.1-0.1-0.2-0.1-0.3c-0.1-0.3-0.1-0.7-0.2-1
		C8.2,16,8.2,16,8.5,15.8c0.2-0.1,0.4-0.3,0.5-0.5c0.1-0.1,0.1-0.2,0.1-0.3c0-0.1-0.1-0.3-0.1-0.4c0-0.1,0-0.2,0.2-0.3
		c0.2,0,0.3-0.2,0.5-0.3c0.1-0.1,0-0.2-0.1-0.3c-0.2-0.1-0.1-0.2,0-0.3c0.2-0.2,0.3-0.3,0.5-0.6c-0.2,0.1-0.4,0-0.5-0.1
		c0-0.1-0.1,0-0.2,0c-0.1,0.1-0.1,0.2-0.2,0.3c0,0-0.1,0.1-0.1,0.1C9,13.1,9,13,9,12.9c-0.1-0.2-0.1-0.4-0.1-0.6
		c0-0.1,0-0.2-0.2-0.2c-0.1,0-0.2,0-0.3-0.1c-0.1-0.1-0.1,0-0.1,0c0,0.1-0.1,0.2-0.1,0.3c-0.1,0.1-0.1,0.2,0.1,0.2
		c0.1,0,0.2,0.1,0.1,0.2c0,0,0,0.1-0.1,0.1c-0.1,0.1-0.1,0.2,0.1,0.2c0.1,0,0.2,0.1,0.2,0.2c0,0,0,0.1,0,0.1c0,0-0.1,0-0.1,0
		c0-0.1-0.1-0.1-0.2-0.1c-0.1,0-0.1,0-0.2,0c-0.1-0.1,0-0.1,0-0.2c0,0,0-0.1,0.1-0.1c0.1-0.2,0.1-0.2-0.1-0.2
		c-0.1,0-0.1-0.1-0.2-0.2c0-0.2,0-0.4-0.1-0.5c-0.1-0.1-0.1-0.3-0.2-0.3c0,0,0-0.1-0.1-0.1c-0.2,0.2-0.2,0.5-0.2,0.8
		c0,0.6-0.1,1.3,0.1,1.9c0,0.1,0,0.2,0,0.3c0,0.1,0,0.1-0.1,0.1c-0.1,0-0.1,0-0.1-0.1c-0.1-0.1-0.2-0.2-0.3-0.3c0,0-0.1-0.1-0.1-0.1
		c-0.1,0,0,0.1,0,0.1C6.8,14.6,6.8,14.7,6.7,14.8z"/>
	<path class="st4" d="M16.6,16.9c0-0.1,0.2-0.3,0.3-0.3c0.1,0,0.2,0.1,0.2,0.2c0,0.2-0.2,0.3-0.3,0.3C16.7,17.2,16.6,17.1,16.6,16.9
		z"/>
	<path class="st13" d="M9.7,15.4C9.8,15.4,9.8,15.3,9.7,15.4c0.1-0.1,0.2,0,0.2,0c0.1,0.2,0.1,0.2,0.2,0c0.1-0.1,0.3-0.1,0.4,0
		c0,0,0,0.1,0,0.1c0,0-0.1,0-0.1,0c-0.1-0.1-0.2,0-0.3,0.1c-0.1,0.1-0.2,0.1-0.2,0C9.8,15.5,9.8,15.5,9.7,15.4z"/>
	<path class="st16" d="M13.1,19.7c-0.1,0-0.2-0.1-0.2-0.2c-0.6-0.8-0.9-1.7-1.1-2.7c-0.1-0.7-0.2-1.4-0.1-2.1
		c0.1-1.9,0.4-3.7,1.3-5.4c0.3-0.6,0.7-1.1,1.1-1.6c0,0,0.1-0.1,0.1-0.1c0.1,0,0,0.1,0,0.2c0,0.2-0.1,0.5-0.2,0.7
		c-0.4,1.1-0.7,2.2-0.9,3.3c-0.2,1-0.4,2-0.5,3c-0.1,1.2-0.2,2.4-0.1,3.6c0,0.4,0.2,0.9,0.4,1.2C13.1,19.6,13.1,19.7,13.1,19.7z"/>
	<path class="st9" d="M5.6,19.3c0-0.3,0-0.5,0-0.8c0-0.1,0-0.1,0-0.2c0-0.1,0.1-0.2,0.2-0.2c0.1,0,0.2,0.1,0.2,0.2
		c0,0.8,0,1.7,0.1,2.5c0.1,0.6,0.1,1.2,0.1,1.8c0,0.5,0.1,1,0.3,1.4c0.1,0.4,0.2,0.5,0.7,0.4c0.1,0,0.3,0,0.3,0.2
		C7.4,25,7.3,25,7.1,25c-0.6,0.1-0.9-0.1-1.1-0.7c-0.2-0.6-0.3-1.2-0.3-1.8c0-0.8-0.1-1.6-0.2-2.3C5.6,19.9,5.6,19.6,5.6,19.3
		C5.6,19.3,5.6,19.3,5.6,19.3z"/>
	<path class="st9" d="M8.2,24.4c0,0.2-0.1,0.3-0.3,0.3c-0.2,0-0.3-0.2-0.3-0.3c0-0.2,0.2-0.3,0.3-0.3C8.1,24.1,8.2,24.3,8.2,24.4z"
		/>
	<path class="st15" d="M19.8,13.3c0-0.1,0.1-0.1,0.1-0.1c0,0,0,0,0,0C20,13.3,19.9,13.3,19.8,13.3L19.8,13.3z"/>
	<path class="st15" d="M19.8,13.3C19.8,13.3,19.8,13.3,19.8,13.3L19.8,13.3C19.7,13.3,19.8,13.3,19.8,13.3
		C19.8,13.3,19.8,13.3,19.8,13.3z"/>
	<path class="st15" d="M19.8,13.3C19.8,13.3,19.8,13.3,19.8,13.3C19.8,13.3,19.8,13.3,19.8,13.3C19.8,13.3,19.8,13.3,19.8,13.3
		C19.8,13.3,19.8,13.3,19.8,13.3z"/>
	<path class="st15" d="M19.7,13.3C19.7,13.3,19.7,13.3,19.7,13.3C19.7,13.3,19.7,13.3,19.7,13.3C19.7,13.3,19.7,13.3,19.7,13.3z"/>
	<path class="st10" d="M10.6,7C10.6,7,10.6,7,10.6,7C10.6,7,10.6,7,10.6,7C10.6,7,10.6,7,10.6,7z"/>
	<path class="st10" d="M10.5,6C10.5,6,10.5,6,10.5,6C10.5,6,10.5,6,10.5,6C10.5,6.1,10.5,6,10.5,6z"/>
</g>
</svg>
